<svg width="66" height="15" viewBox="0 0 66 15" fill="none" xmlns="http://www.w3.org/2000/svg">
<path d="M7.67344 14L6.93516 10.7568H3.58652L2.84824 14H0.457619L3.63926 1.09766H6.88242L10.0729 14H7.67344ZM6.48692 8.63867L5.80137 5.65039C5.76035 5.46875 5.6666 5.01465 5.52012 4.28809C5.37949 3.55566 5.29453 3.06641 5.26524 2.82031C5.18906 3.32422 5.09238 3.88086 4.9752 4.49023C4.85801 5.09375 4.55332 6.47656 4.06113 8.63867H6.48692ZM16.8826 0.96582H19.1326V2.54785H19.4578C20.782 2.54785 21.8074 2.96973 22.534 3.81348C23.2664 4.65723 23.6326 5.82031 23.6326 7.30273C23.6326 8.29297 23.4598 9.15723 23.1141 9.89551C22.7684 10.6279 22.2645 11.1963 21.6023 11.6006C20.9461 11.999 20.1522 12.1982 19.2205 12.1982H19.1326V14.1758H16.8826V12.1982H16.7684C15.368 12.1982 14.284 11.7734 13.5164 10.9238C12.7488 10.0742 12.365 8.89062 12.365 7.37305C12.365 6.42383 12.535 5.58301 12.8748 4.85059C13.2147 4.11816 13.7039 3.55273 14.3426 3.1543C14.9813 2.75 15.7313 2.54785 16.5926 2.54785H16.8826V0.96582ZM19.1326 10.3965H19.2029C19.8357 10.3965 20.3221 10.127 20.6619 9.58789C21.0076 9.04883 21.1805 8.29297 21.1805 7.32031C21.1805 6.36523 21.0223 5.63574 20.7059 5.13184C20.3953 4.62207 19.9471 4.36719 19.3611 4.36719H19.1326V10.3965ZM16.8826 4.36719H16.6277C16.0418 4.36719 15.5906 4.62793 15.2742 5.14941C14.9637 5.66504 14.8084 6.38867 14.8084 7.32031C14.8084 8.28711 14.9813 9.04297 15.327 9.58789C15.6785 10.127 16.1678 10.3965 16.7947 10.3965H16.8826V4.36719ZM27.2168 1.15039H29.4316V8.20801C29.4316 8.94043 29.376 9.66406 29.2647 10.3789H29.3613L33.2813 1.15039H36.2168V14H34.0195V6.95996C34.0195 6.09277 34.0869 5.33105 34.2217 4.6748H34.1074L30.1699 14H27.2168V1.15039ZM47.8254 11.8906H50.6027V1.15039H52.9934V14H40.2844V1.15039H42.675V11.8906H45.4523V1.15039H47.8254V11.8906ZM63.143 14L62.4047 10.7568H59.0561L58.3178 14H55.9272L59.1088 1.09766H62.352L65.5424 14H63.143ZM61.9564 8.63867L61.2709 5.65039C61.2299 5.46875 61.1361 5.01465 60.9897 4.28809C60.849 3.55566 60.7641 3.06641 60.7348 2.82031C60.6586 3.32422 60.5619 3.88086 60.4447 4.49023C60.3275 5.09375 60.0229 6.47656 59.5307 8.63867H61.9564Z" fill="white"/>
</svg>
