<svg width="68" height="68" viewBox="0 0 68 68" fill="none" xmlns="http://www.w3.org/2000/svg">
<path d="M0 4.25C0 3.12283 0.447767 2.04183 1.2448 1.2448C2.04183 0.447767 3.12283 0 4.25 0L21.25 0C22.3772 0 23.4582 0.447767 24.2552 1.2448C25.0522 2.04183 25.5 3.12283 25.5 4.25V55.25C25.5 58.6315 24.1567 61.8745 21.7656 64.2656C19.3745 66.6567 16.1315 68 12.75 68C9.36849 68 6.12548 66.6567 3.73439 64.2656C1.3433 61.8745 0 58.6315 0 55.25L0 4.25ZM17 8.5H8.5V17H17V8.5ZM8.5 34H17V25.5H8.5V34ZM12.75 58.4375C13.3804 58.4375 13.9967 58.2506 14.5209 57.9003C15.0451 57.5501 15.4536 57.0522 15.6949 56.4698C15.9361 55.8874 15.9992 55.2465 15.8763 54.6282C15.7533 54.0098 15.4497 53.4419 15.0039 52.9961C14.5581 52.5503 13.9902 52.2467 13.3719 52.1237C12.7535 52.0008 12.1126 52.0639 11.5302 52.3051C10.9478 52.5464 10.4499 52.9549 10.0997 53.4791C9.74944 54.0033 9.5625 54.6196 9.5625 55.25C9.56152 55.6689 9.6433 56.0838 9.80314 56.471C9.96298 56.8581 10.1977 57.2099 10.4939 57.5061C10.7901 57.8023 11.1419 58.037 11.529 58.1969C11.9162 58.3567 12.3311 58.4385 12.75 58.4375ZM29.75 55.25V20.4531L39.7641 10.4433C40.5622 9.64585 41.6443 9.19789 42.7725 9.19789C43.9008 9.19789 44.9829 9.64585 45.781 10.4433L57.8 22.4591C58.5971 23.2572 59.0449 24.3391 59.0449 25.4671C59.0449 26.5951 58.5971 27.6769 57.8 28.475L29.6969 56.5643C29.7362 56.1393 29.75 55.6878 29.75 55.25ZM49.7781 42.5H63.75C64.8772 42.5 65.9582 42.9478 66.7552 43.7448C67.5522 44.5418 68 45.6228 68 46.75V63.75C68 64.8772 67.5522 65.9582 66.7552 66.7552C65.9582 67.5522 64.8772 68 63.75 68H24.2781L49.7781 42.5Z" fill="#A68F4B"/>
</svg>
