<svg width="326" height="136" viewBox="0 0 326 136" fill="none" xmlns="http://www.w3.org/2000/svg">
<path d="M0 0H326V136H0V0Z" fill="#99823D"/>
<g clip-path="url(#clip0_1_6)">
<path d="M113.376 86.75H104.944L103.792 92H94.3581L103.401 57H115.06L124.103 92H114.471L113.376 86.75ZM111.894 80.0081L109.211 67.4125L106.413 80.0081H111.894Z" fill="white"/>
<path d="M151.125 57V92H142.914L135.076 73.625V92H126.306V57H134.526L142.364 75.6987V57H151.125Z" fill="white"/>
<path d="M176.727 63.8163H169.931V92H160.361V63.8163H153.597V57H176.727V63.8163Z" fill="white"/>
<path d="M196.017 86.75H187.577L186.425 92H176.999L186.042 57H197.715L206.757 92H197.112L196.017 86.75ZM194.539 79.9906L191.852 67.4125L189.059 80.0081L194.539 79.9906Z" fill="white"/>
<path d="M222.982 68.9919V64.4681C222.982 63.65 222.542 63.2694 221.61 63.2694H219.639C218.707 63.2694 218.267 63.65 218.267 64.4681V84.5319C218.267 85.35 218.707 85.7306 219.639 85.7306H221.61C222.542 85.7306 222.982 85.35 222.982 84.5319V78.7H220.242V72.645H232.557V85.2406C232.557 89.3269 230.358 92 224.504 92H216.719C210.856 92 208.662 89.3269 208.662 85.2406V63.7594C208.662 59.6731 210.861 57 216.719 57H224.504C230.366 57 232.557 59.6731 232.557 63.7594V69.0094L222.982 68.9919Z" fill="white"/>
<path d="M258 85.1838V92H236.405V57H257.516V63.8163H245.997V70.9563H255.915V77.7725H245.997V85.1838H258Z" fill="white"/>
<path d="M86.4722 43L79.7255 80.3887L77.6759 68.375H68L74.1882 92H85.3155L95.2685 51.75H258L86.4722 43Z" fill="white"/>
</g>
<defs>
<clipPath id="clip0_1_6">
<rect width="190" height="49" fill="white" transform="translate(68 43)"/>
</clipPath>
</defs>
</svg>
