<svg width="60" height="68" viewBox="0 0 60 68" fill="none" xmlns="http://www.w3.org/2000/svg">
<path d="M30.0011 42.5C34.1663 42.4928 38.1855 40.9772 41.3031 38.2379C44.4206 35.4987 46.4217 31.7245 46.9302 27.625H13.0719C13.5802 31.7246 15.5813 35.4989 18.6989 38.2382C21.8164 40.9775 25.8357 42.4931 30.0011 42.5ZM11.7861 23.375H48.216C48.4996 23.3731 48.771 23.2605 48.9715 23.0617C49.172 22.8628 49.2855 22.5937 49.2875 22.3125V18.0625C49.2855 17.7813 49.172 17.5122 48.9715 17.3134C48.771 17.1145 48.4996 17.002 48.216 17H47.1445C47.1459 14.076 46.2782 11.2164 44.6498 8.7786C43.0214 6.34086 40.7045 4.4331 37.9889 3.29376L34.2869 10.625V2.12501C34.2878 1.84571 34.2329 1.56901 34.1255 1.31081C34.0182 1.05262 33.8603 0.818023 33.6612 0.620531C33.462 0.423039 33.2254 0.266544 32.9651 0.160051C32.7047 0.0535582 32.4257 -0.000832057 32.144 9.62113e-06H27.8581C27.5765 -0.000832057 27.2974 0.0535582 27.0371 0.160051C26.7767 0.266544 26.5401 0.423039 26.341 0.620531C26.1418 0.818023 25.984 1.05262 25.8766 1.31081C25.7692 1.56901 25.7144 1.84571 25.7152 2.12501V10.625L22.0186 3.28632C19.3026 4.42788 16.9856 6.33705 15.3565 8.77575C13.7274 11.2145 12.8583 14.0748 12.8576 17H11.7861C11.5026 17.002 11.2312 17.1145 11.0307 17.3134C10.8301 17.5122 10.7166 17.7813 10.7147 18.0625V22.1935C10.7035 22.3416 10.7226 22.4904 10.7709 22.6309C10.8193 22.7714 10.8958 22.9008 10.9959 23.0112C11.0961 23.1216 11.2177 23.2107 11.3535 23.2733C11.4893 23.3358 11.6365 23.3704 11.7861 23.375ZM42.1515 46.75H17.8539C13.1185 46.7511 8.57748 48.6172 5.22939 51.9379C1.8813 55.2586 0.000283979 59.7619 0 64.4576C-4.26087e-08 65.3969 0.376216 66.2978 1.04591 66.9621C1.71561 67.6264 2.62396 67.9997 3.5712 68H56.4299C57.3773 68 58.2859 67.6268 58.9558 66.9625C59.6258 66.2981 60.0021 65.3971 60.0021 64.4576C60.0031 62.1325 59.5421 59.83 58.6455 57.6815C57.7488 55.5331 56.4341 53.5809 54.7764 51.9365C53.1187 50.2921 51.1505 48.9877 48.9843 48.0978C46.8181 47.2078 44.4963 46.7499 42.1515 46.75Z" fill="#A68F4B"/>
</svg>
