<svg width="68" height="68" viewBox="0 0 68 68" fill="none" xmlns="http://www.w3.org/2000/svg">
<path d="M65.5074 5.60798C67.1034 7.20472 68 9.36994 68 11.6276C68 13.8852 67.1034 16.0504 65.5074 17.6472L58.0125 25.1463L42.8517 9.99185L50.3508 2.49273C51.9488 0.896563 54.115 0 56.3736 0C58.6322 0 60.7984 0.896563 62.3964 2.49273L65.5074 5.60798ZM5.96912 46.8861L39.8437 12.9987L55.0035 28.151L21.1097 62.0288C20.2137 62.9222 19.1074 63.5759 17.8925 63.9297L4.06725 67.879C3.51101 68.0412 2.91981 68.0398 2.36435 67.8749C1.80888 67.7101 1.31266 67.3887 0.934997 66.9493C0.528059 66.5744 0.235784 66.0918 0.0921004 65.5575C-0.0515834 65.0232 -0.0407832 64.4591 0.123247 63.9307L4.07575 50.1033C4.42038 48.8862 5.07241 47.7783 5.96912 46.8861V46.8861ZM33.1596 13.6723L13.7477 33.0842L2.125 21.4498C1.53243 20.8578 1.06235 20.1548 0.74163 19.381C0.420906 18.6071 0.255827 17.7777 0.255827 16.9401C0.255827 16.1024 0.420906 15.273 0.74163 14.4992C1.06235 13.7254 1.53243 13.0223 2.125 12.4303L12.5056 2.0486C13.0977 1.45604 13.8007 0.985956 14.5745 0.665233C15.3483 0.34451 16.1778 0.17943 17.0154 0.17943C17.8531 0.17943 18.6825 0.34451 19.4563 0.665233C20.2301 0.985956 20.9331 1.45604 21.5252 2.0486L24.1581 4.67616C24.1177 4.71441 24.0646 4.75585 24.0252 4.79941L15.5125 13.3111C15.3095 13.5071 15.1477 13.7416 15.0363 14.0009C14.9249 14.2601 14.8663 14.539 14.8638 14.8211C14.8614 15.1033 14.9152 15.3831 15.022 15.6443C15.1288 15.9054 15.2866 16.1427 15.4862 16.3422C15.6857 16.5417 15.9229 16.6995 16.1841 16.8063C16.4452 16.9132 16.7251 16.967 17.0072 16.9645C17.2894 16.9621 17.5682 16.9034 17.8275 16.7921C18.0867 16.6807 18.3212 16.5188 18.5172 16.3158L27.03 7.80947C27.0704 7.76697 27.0034 7.72129 27.1501 7.6756L33.1596 13.6723ZM60.3224 40.849C60.2749 40.8852 60.2304 40.9254 60.1896 40.969L51.68 49.4775C51.2929 49.8783 51.0787 50.4151 51.0836 50.9723C51.0884 51.5294 51.3119 52.0624 51.7059 52.4564C52.0999 52.8504 52.6329 53.0739 53.19 53.0787C53.7472 53.0836 54.284 52.8694 54.6847 52.4823L63.1943 43.9727C63.2347 43.8133 63.1677 43.8792 63.3144 43.8399L65.9472 46.4728C67.1424 47.6683 67.8138 49.2895 67.8138 50.9799C67.8138 52.6703 67.1424 54.2915 65.9472 55.487L55.5634 65.8708C54.3679 67.066 52.7467 67.7374 51.0563 67.7374C49.3659 67.7374 47.7447 67.066 46.5492 65.8708L34.9148 54.2513L54.3267 34.8395L60.3224 40.849Z" fill="#A68F4B"/>
</svg>
