<svg width="51" height="68" viewBox="0 0 51 68" fill="none" xmlns="http://www.w3.org/2000/svg">
<path d="M42.5 0H8.5C6.24566 0 4.08365 0.895533 2.48959 2.48959C0.895533 4.08365 0 6.24566 0 8.5L0 59.5C0 61.7543 0.895533 63.9163 2.48959 65.5104C4.08365 67.1045 6.24566 68 8.5 68H42.5C44.7543 68 46.9163 67.1045 48.5104 65.5104C50.1045 63.9163 51 61.7543 51 59.5V8.5C51 6.24566 50.1045 4.08365 48.5104 2.48959C46.9163 0.895533 44.7543 0 42.5 0V0ZM27.625 46.75H10.625C10.0614 46.75 9.52091 46.5261 9.1224 46.1276C8.72388 45.7291 8.5 45.1886 8.5 44.625C8.5 44.0614 8.72388 43.5209 9.1224 43.1224C9.52091 42.7239 10.0614 42.5 10.625 42.5H27.625C28.1886 42.5 28.7291 42.7239 29.1276 43.1224C29.5261 43.5209 29.75 44.0614 29.75 44.625C29.75 45.1886 29.5261 45.7291 29.1276 46.1276C28.7291 46.5261 28.1886 46.75 27.625 46.75ZM40.375 34H10.625C10.0614 34 9.52091 33.7761 9.1224 33.3776C8.72388 32.9791 8.5 32.4386 8.5 31.875C8.5 31.3114 8.72388 30.7709 9.1224 30.3724C9.52091 29.9739 10.0614 29.75 10.625 29.75H40.375C40.9386 29.75 41.4791 29.9739 41.8776 30.3724C42.2761 30.7709 42.5 31.3114 42.5 31.875C42.5 32.4386 42.2761 32.9791 41.8776 33.3776C41.4791 33.7761 40.9386 34 40.375 34ZM40.375 21.25H10.625C10.0614 21.25 9.52091 21.0261 9.1224 20.6276C8.72388 20.2291 8.5 19.6886 8.5 19.125C8.5 18.5614 8.72388 18.0209 9.1224 17.6224C9.52091 17.2239 10.0614 17 10.625 17H40.375C40.9386 17 41.4791 17.2239 41.8776 17.6224C42.2761 18.0209 42.5 18.5614 42.5 19.125C42.5 19.6886 42.2761 20.2291 41.8776 20.6276C41.4791 21.0261 40.9386 21.25 40.375 21.25Z" fill="#A68F4B"/>
</svg>
