<svg width="68" height="68" viewBox="0 0 68 68" fill="none" xmlns="http://www.w3.org/2000/svg">
<path d="M46.75 12.7499C46.7541 14.5935 46.3552 16.4157 45.5813 18.089L52.5938 30.2015C49.409 33.6086 45.3467 36.0718 40.8531 37.3202L34 25.4999H33.881L24.956 41.1059C27.8815 42.0309 30.9317 42.5011 34 42.4999C38.4741 42.5098 42.8916 41.4994 46.9167 39.5456C50.9417 37.5918 54.4683 34.7461 57.2284 31.2247C57.9547 30.3654 58.9899 29.8263 60.1104 29.7238C61.2308 29.6213 62.3467 29.9636 63.2169 30.6767C64.0872 31.3899 64.642 32.4167 64.7616 33.5355C64.8812 34.6542 64.556 35.7751 63.8562 36.6562C60.2685 41.1269 55.7239 44.7362 50.557 47.2186C45.3901 49.7009 39.7323 50.993 34 50.9999C29.4342 51.0051 24.9044 50.1907 20.6263 48.5955L13.1017 61.5856C12.4766 62.6643 11.55 63.5369 10.4359 64.0963L3.07594 67.7747C2.752 67.9368 2.39201 68.0134 2.03015 67.9972C1.66828 67.981 1.31655 67.8726 1.00837 67.6823C0.700181 67.492 0.445766 67.226 0.269282 66.9097C0.0927977 66.5933 0.00010284 66.2372 0 65.8749L0 58.5182C0.00239815 57.3945 0.298338 56.291 0.8585 55.3169L8.82725 41.5575C7.1275 40.062 5.56047 38.4221 4.14375 36.6562C3.43736 35.7751 3.10715 34.6509 3.22482 33.5277C3.3425 32.4046 3.89857 31.3732 4.77224 30.6577C5.64591 29.9422 6.76662 29.6003 7.89093 29.7062C9.01524 29.8122 10.0523 30.3575 10.7769 31.2236C11.4954 32.2261 12.3053 33.1598 13.1962 34.0127L22.4188 18.089C21.6216 16.3578 21.2227 14.47 21.2514 12.5643C21.2802 10.6587 21.7357 8.78369 22.5846 7.07732C23.4335 5.37095 24.6542 3.87659 26.1568 2.70418C27.6594 1.53177 29.4057 0.71114 31.2673 0.302649C33.1288 -0.105842 35.0583 -0.0917969 36.9137 0.34375C38.7692 0.779298 40.5034 1.62527 41.9887 2.81942C43.4741 4.01358 44.6729 5.52555 45.4969 7.2441C46.3208 8.96265 46.749 10.8441 46.75 12.7499ZM34 16.9999C34.8406 16.9999 35.6623 16.7507 36.3612 16.2837C37.0601 15.8167 37.6048 15.1529 37.9265 14.3763C38.2482 13.5997 38.3323 12.7452 38.1683 11.9208C38.0043 11.0964 37.5996 10.3391 37.0052 9.74473C36.4108 9.15035 35.6536 8.74558 34.8291 8.58159C34.0047 8.41761 33.1502 8.50177 32.3736 8.82344C31.597 9.14511 30.9333 9.68985 30.4663 10.3888C29.9993 11.0877 29.75 11.9094 29.75 12.7499C29.75 13.8771 30.1978 14.9581 30.9948 15.7551C31.7918 16.5522 32.8728 16.9999 34 16.9999ZM49.4201 52.3153C53.7576 50.6593 57.785 48.2839 61.3328 45.289L67.1373 55.3169C67.7027 56.289 68.0004 57.3936 68 58.5182V65.8749C68.0004 66.2379 67.9077 66.5949 67.731 66.9119C67.5542 67.2289 67.2992 67.4953 66.9902 67.6858C66.6813 67.8763 66.3287 67.9845 65.9661 68C65.6034 68.0156 65.2429 67.938 64.9187 67.7747L57.5609 64.0952C56.4479 63.5327 55.5208 62.6609 54.8909 61.5846L49.4201 52.3153Z" fill="#A68F4B"/>
</svg>
