<svg width="51" height="68" viewBox="0 0 51 68" fill="none" xmlns="http://www.w3.org/2000/svg">
<path d="M31.9662 29.75H46.7892C47.6427 29.7369 48.4782 29.9964 49.1738 30.4908C49.8694 30.9852 50.3889 31.6887 50.6565 32.4987C51.0057 33.293 51.0909 34.1782 50.8995 35.0244C50.7081 35.8706 50.2503 36.6332 49.5932 37.2002L15.5662 66.9502C14.8409 67.5871 13.9202 67.9583 12.9557 68.003C11.9912 68.0476 11.0401 67.763 10.2589 67.196C9.47772 66.6289 8.91288 65.8131 8.65724 64.8827C8.40161 63.9523 8.4704 62.9627 8.85231 62.0766L19.0732 38.25H4.13426C3.27869 38.2266 2.45009 37.9459 1.75675 37.4444C1.0634 36.943 0.537585 36.2442 0.248017 35.4395C-0.0415518 34.6347 -0.0813988 33.7613 0.133684 32.9336C0.348767 32.1058 0.808774 31.3621 1.45358 30.7997L35.4805 1.04974C36.206 0.414465 37.1261 0.0444841 38.0898 0.00051918C39.0534 -0.0434458 40.0034 0.241216 40.7839 0.80779C41.5643 1.37436 42.1288 2.18919 42.3847 3.11856C42.6407 4.04792 42.5728 5.03661 42.1923 5.92237L31.9662 29.75Z" fill="#A68F4B"/>
</svg>
