<svg width="23" height="33" viewBox="0 0 23 33" fill="none" xmlns="http://www.w3.org/2000/svg">
<path d="M6.16677 32.4881C9.11077 32.4881 11.5005 30.0983 11.5005 27.1543V21.8205H6.16677C3.22277 21.8205 0.833008 24.2103 0.833008 27.1543C0.833008 30.0983 3.22277 32.4881 6.16677 32.4881Z" fill="#0ACF83"/>
<path d="M0.833008 16.488C0.833008 13.5441 3.22277 11.1543 6.16677 11.1543H11.5005V21.8205H6.16677C3.22277 21.8218 0.833008 19.432 0.833008 16.488Z" fill="#A259FF"/>
<path d="M0.833008 5.82183C0.833008 2.87783 3.22277 0.488068 6.16677 0.488068H11.5005V11.1543H6.16677C3.22277 11.1543 0.833008 8.76583 0.833008 5.82183Z" fill="#F24E1E"/>
<path d="M11.4992 0.488068H16.833C19.777 0.488068 22.1668 2.87783 22.1668 5.82183C22.1668 8.76583 19.777 11.1543 16.833 11.1543H11.4992V0.488068Z" fill="#FF7262"/>
<path d="M22.1668 16.4881C22.1668 19.4321 19.777 21.8218 16.833 21.8218C13.889 21.8218 11.4992 19.4321 11.4992 16.4881C11.4992 13.5441 13.889 11.1543 16.833 11.1543C19.777 11.1543 22.1668 13.5441 22.1668 16.4881Z" fill="#1ABCFE"/>
</svg>
