<svg width="33" height="33" viewBox="0 0 33 33" fill="none" xmlns="http://www.w3.org/2000/svg">
<path d="M27.0984 32.4881H5.90181C2.68813 32.4881 0.0898438 29.8898 0.0898438 26.6761V6.30003C0.0898438 3.08636 2.68813 0.488068 5.90181 0.488068H27.0984C30.3121 0.488068 32.9104 3.08636 32.9104 6.30003V26.6761C32.9104 29.8898 30.3121 32.4881 27.0984 32.4881Z" fill="#26C9FF"/>
<path d="M26.5787 31.1205H6.42147C3.68643 31.1205 1.45737 28.8915 1.45737 26.1428V6.83337C1.45737 4.08465 3.68643 1.85559 6.42147 1.85559H26.5651C29.3138 1.85559 31.5292 4.08465 31.5292 6.81969V26.1428C31.5428 28.8915 29.3138 31.1205 26.5787 31.1205Z" fill="#062026"/>
<path d="M8.02145 7.98208C8.02145 7.88636 8.21291 7.81798 8.32231 7.81798C9.19752 7.77695 10.4967 7.7496 11.8505 7.7496C15.6385 7.7496 17.1155 9.82824 17.1155 12.4949C17.1155 15.9684 14.5992 17.459 11.5086 17.459C10.989 17.459 10.8112 17.4317 10.442 17.4317V22.6829C10.442 22.7923 10.4009 22.847 10.2779 22.847H8.18556C8.07615 22.847 8.02145 22.806 8.02145 22.6829V7.98208ZM10.4556 15.2436C10.7702 15.271 11.0163 15.271 11.5633 15.271C13.1633 15.271 14.6676 14.7103 14.6676 12.5359C14.6676 10.7992 13.5873 9.92396 11.7685 9.92396C11.2215 9.92396 10.7018 9.95131 10.4556 9.96499V15.2436ZM22.2163 13.6163C21.136 13.6163 20.7668 14.1633 20.7668 14.6146C20.7668 15.1069 21.0129 15.4487 22.4625 16.2009C24.6095 17.2402 25.2796 18.2385 25.2796 19.7017C25.2796 21.8898 23.6112 23.0658 21.3548 23.0658C20.165 23.0658 19.1394 22.8197 18.5514 22.4778C18.4556 22.4368 18.442 22.3684 18.442 22.259V20.2487C18.442 20.112 18.5103 20.071 18.6061 20.1393C19.4676 20.7 20.4522 20.9462 21.3548 20.9462C22.4351 20.9462 22.8864 20.4949 22.8864 19.8795C22.8864 19.3872 22.5719 18.9496 21.1907 18.2385C19.2488 17.3086 18.442 16.365 18.442 14.7923C18.442 13.0282 19.8232 11.565 22.2163 11.565C23.3924 11.565 24.2129 11.7428 24.6642 11.9479C24.7736 12.0163 24.8009 12.1257 24.8009 12.2214V14.0949C24.8009 14.2043 24.7326 14.2727 24.5958 14.2317C23.9941 13.8487 23.1052 13.6163 22.2163 13.6163Z" fill="#D9F5FF"/>
</svg>
