<svg width="41" height="41" viewBox="0 0 41 41" fill="none" xmlns="http://www.w3.org/2000/svg">
<rect x="39.8994" y="1.16959" width="38" height="38" rx="19" transform="rotate(90 39.8994 1.16959)" stroke="black" stroke-width="2"/>
<path d="M18.6228 15.3584C18.6228 15.3584 18.6229 15.3585 18.6229 15.3585C18.7114 15.4471 18.7113 15.5905 18.6228 15.6791L18.6228 15.6791L15.2125 19.0895L14.359 19.943L15.5661 19.943L27.9873 19.943C28.1125 19.943 28.214 20.0446 28.214 20.1697C28.214 20.2949 28.1125 20.3964 27.9873 20.3964L15.5661 20.3964L14.359 20.3964L15.2125 21.25L18.6229 24.6604C18.7115 24.7489 18.7115 24.8925 18.6229 24.981C18.5344 25.0695 18.3908 25.0695 18.3023 24.981L13.6513 20.33C13.5627 20.2415 13.5627 20.098 13.6513 20.0094L13.2978 19.6558M18.6228 15.3584L18.9764 15.0049C18.8345 14.8631 18.6485 14.792 18.4625 14.792C18.2765 14.792 18.0905 14.8631 17.9486 15.0049L13.2978 19.6558M18.6228 15.3584C18.5784 15.3141 18.5212 15.292 18.4625 15.292C18.4038 15.292 18.3466 15.3141 18.302 15.3586M18.6228 15.3584L18.302 15.3586M13.2978 19.6558L13.6513 20.0094L18.302 15.3586M13.2978 19.6558L18.302 15.3586" fill="black" stroke="black"/>
</svg>
