<svg width="12" height="17" viewBox="0 0 12 17" fill="none" xmlns="http://www.w3.org/2000/svg">
<path d="M10.3211 8.28057C10.2493 9.32266 9.65511 10.0543 8.96903 10.3643C8.24157 10.693 7.50627 10.5117 7.13916 9.91307C6.5381 8.93288 6.95111 8.25069 7.3505 7.59094C7.80335 6.84285 8.31668 5.99491 7.82434 4.34597C7.43567 3.04419 6.67449 1.95129 5.56189 1.0976C5.21505 0.831505 4.88611 0.63138 4.61916 0.488068C4.99201 1.39563 5.47686 3.08447 4.9704 4.95035C4.64918 6.13388 3.80023 7.03076 2.97922 7.8981C1.89789 9.04054 0.779678 10.2218 0.779678 12.1093C0.779678 13.5735 1.28983 14.74 2.29591 15.5763C3.05778 16.2095 3.8352 16.4561 3.84295 16.458H5.69803L5.6592 16.4573C5.65205 16.4517 4.94531 15.8939 4.93314 15.2541C4.92747 14.9551 5.08439 14.6682 5.39956 14.4015C5.87295 14.0009 6.13314 13.5696 6.19503 13.083C6.23289 12.7853 6.19462 12.4707 6.0783 12.1311C6.86348 12.4603 7.67567 13.1793 7.9509 14.0719C8.19808 14.8734 7.96943 15.6977 7.2903 16.458H9.3205C10.6504 15.4162 11.399 14.1677 11.5458 12.7471C11.7329 10.9359 10.9048 9.23007 10.3211 8.28057Z" fill="black"/>
</svg>
