<svg width="33" height="33" viewBox="0 0 33 33" fill="none" xmlns="http://www.w3.org/2000/svg">
<path d="M31.6474 6.04821L27.2838 1.68089C26.1844 0.580504 24.2717 0.57839 23.168 1.683L3.61972 21.4242C3.53306 21.5116 3.47054 21.619 3.43644 21.7369L0.527397 31.9274C0.454988 32.1812 0.525965 32.4548 0.712783 32.6418C0.851261 32.7804 1.03665 32.8551 1.22701 32.8551C1.29376 32.8551 1.36126 32.8458 1.42658 32.8273L11.6084 29.9158C11.7263 29.8817 11.8335 29.8191 11.9209 29.7323L31.6474 10.1653C32.1972 9.61515 32.4997 8.88437 32.4997 8.10676C32.4997 7.32915 32.1972 6.59837 31.6474 6.04821Z" fill="url(#paint0_linear_1_221)"/>
<defs>
<linearGradient id="paint0_linear_1_221" x1="7.09132" y1="13.8767" x2="26.0045" y2="22.6924" gradientUnits="userSpaceOnUse">
<stop stop-color="white" stop-opacity="0.2"/>
<stop offset="1" stop-color="white" stop-opacity="0"/>
</linearGradient>
</defs>
</svg>
