<?xml version="1.0" encoding="iso-8859-1"?>
<!-- Generator: Adobe Illustrator 19.0.0, SVG Export Plug-In . SVG Version: 6.00 Build 0)  -->
<svg version="1.1" id="Layer_1" xmlns="http://www.w3.org/2000/svg" xmlns:xlink="http://www.w3.org/1999/xlink" x="0px" y="0px"
	 viewBox="0 0 503.467 503.467" style="enable-background:new 0 0 503.467 503.467;" xml:space="preserve">
<g transform="translate(1 1)">
	<path style="fill:#80D6FA;" d="M387.267,80.067L242.2,225.133v238.933c-127.147,0-238.933-103.253-238.933-230.4
		s103.253-230.4,230.4-230.4C297.667,3.267,345.453,38.253,387.267,80.067"/>
	<path style="fill:#FFD0A1;" d="M276.333,276.333H498.2c0,127.147-94.72,221.867-221.867,221.867V276.333z"/>
	<path style="fill:#E4F2DE;" d="M498.2,242.2H276.333L438.467,80.067C480.28,121.88,498.2,178.2,498.2,242.2"/>
</g>
<path style="fill:#51565F;" d="M277.333,503.467c-2.56,0-4.267-1.707-4.267-4.267V277.333c0-2.56,1.707-4.267,4.267-4.267h187.733
	c2.56,0,4.267,1.707,4.267,4.267s-1.707,4.267-4.267,4.267H281.6v213.333c122.027-1.707,213.333-94.72,213.333-217.6
	c0-2.56,1.707-4.267,4.267-4.267c2.56,0,4.267,1.707,4.267,4.267C503.467,406.187,406.187,503.467,277.333,503.467z M243.2,469.333
	C111.787,469.333,0,361.813,0,234.667C0,104.96,104.96,0,234.667,0c69.973,0,120.32,41.813,157.013,77.653
	c1.707,1.707,1.707,4.267,0,5.973L247.467,227.84v203.093c0,2.56-1.707,4.267-4.267,4.267s-4.267-1.707-4.267-4.267v-204.8
	c0-0.853,0.853-2.56,0.853-3.413L381.44,81.067C346.453,46.933,298.667,8.533,233.813,8.533C109.227,8.533,7.68,110.08,7.68,234.667
	C7.68,357.547,115.2,460.8,242.347,460.8c2.56,0,4.267,1.707,4.267,4.267C246.614,467.627,245.76,469.333,243.2,469.333z
	 M499.2,247.467H277.333c-1.707,0-3.413-0.853-4.267-2.56c-0.853-1.707,0-3.413,0.853-4.267l136.533-136.533
	c1.707-1.707,4.267-1.707,5.973,0c1.707,1.707,1.707,4.267,0,5.973L286.72,238.934h207.36C493.227,174.08,473.6,122.027,435.2,84.48
	c-1.707-1.707-1.707-4.267,0-5.973c1.707-1.707,4.267-1.707,5.973,0c40.107,40.107,60.587,96.427,60.587,165.547
	C503.467,245.76,501.76,247.467,499.2,247.467z"/>
<g>
</g>
<g>
</g>
<g>
</g>
<g>
</g>
<g>
</g>
<g>
</g>
<g>
</g>
<g>
</g>
<g>
</g>
<g>
</g>
<g>
</g>
<g>
</g>
<g>
</g>
<g>
</g>
<g>
</g>
</svg>
