<svg width="1243" height="964" viewBox="0 0 1243 964" fill="none" xmlns="http://www.w3.org/2000/svg">
<g opacity="0.3" filter="url(#filter0_d_147_134)">
<path fill-rule="evenodd" clip-rule="evenodd" d="M952.839 727.396C957.979 734.239 963.189 741.174 968.448 748.086C975.751 757.685 983.127 768.838 990.534 780.039C991.833 782.004 993.133 783.97 994.434 785.929C1003.18 799.098 1011.96 811.976 1020.82 822.313C1029.71 832.691 1038.47 840.262 1047.1 843.125C1051.37 844.541 1055.6 844.8 1059.82 843.687C1064.06 842.57 1068.43 840.039 1072.91 835.678C1073.63 834.98 1074.78 834.994 1075.48 835.71C1076.18 836.425 1076.17 837.571 1075.45 838.27C1070.63 842.96 1065.73 845.876 1060.75 847.187C1055.76 848.502 1050.81 848.171 1045.95 846.56C1036.33 843.37 1027.03 835.147 1018.05 824.663C1009.03 814.137 1000.14 801.084 991.404 787.926C990.094 785.954 988.789 783.98 987.487 782.012C980.075 770.805 972.776 759.768 965.552 750.273C960.254 743.309 955.018 736.34 949.863 729.477C934.202 708.632 919.277 688.765 905.563 672.978C896.452 662.49 887.949 653.89 880.193 648.035C872.385 642.14 865.627 639.254 859.946 639.658C858.945 639.729 858.076 638.978 858.005 637.981C857.933 636.984 858.687 636.118 859.687 636.047C866.723 635.546 874.385 639.108 882.387 645.149C890.443 651.231 899.141 660.053 908.31 670.609C922.116 686.502 937.155 706.52 952.839 727.396Z" fill="white"/>
<path fill-rule="evenodd" clip-rule="evenodd" d="M953.272 725.856C958.422 732.68 963.637 739.591 968.9 746.478C976.252 756.097 983.667 767.26 991.072 778.406L991.092 778.437C992.394 780.396 993.695 782.355 994.997 784.307C1003.76 797.444 1012.5 810.198 1021.29 820.41C1030.15 830.706 1038.66 837.93 1046.81 840.621C1050.79 841.936 1054.66 842.159 1058.51 841.15C1062.39 840.133 1066.5 837.801 1070.82 833.617C1072.26 832.224 1074.56 832.253 1075.97 833.68C1077.37 835.107 1077.34 837.392 1075.9 838.785C1070.9 843.625 1065.73 846.725 1060.37 848.13C1054.99 849.541 1049.67 849.174 1044.51 847.472C1034.38 844.128 1024.79 835.604 1015.75 825.097C1006.64 814.506 997.673 801.404 988.926 788.29C987.614 786.322 986.305 784.353 985.001 782.39C977.569 771.203 970.292 760.251 963.1 750.84C957.789 743.89 952.541 736.937 947.378 730.095C931.679 709.294 916.771 689.541 903.086 673.858C893.989 663.434 885.569 654.969 877.951 649.244C870.227 643.44 863.91 640.898 858.899 641.253C856.894 641.395 855.153 639.898 855.009 637.909C854.866 635.921 856.375 634.193 858.38 634.051C866.106 633.504 874.233 637.392 882.346 643.489C890.565 649.666 899.375 658.574 908.589 669.133C922.46 685.029 937.556 705.031 953.242 725.817L953.272 725.856ZM967.45 747.568C962.183 740.676 956.965 733.761 951.815 726.938C936.106 706.123 921.042 686.162 907.213 670.314C898.028 659.789 889.316 650.992 881.247 644.928C873.232 638.904 865.557 635.352 858.51 635.852C857.507 635.923 856.753 636.786 856.824 637.781C856.896 638.775 857.767 639.523 858.769 639.452C864.459 639.049 871.229 641.928 879.05 647.805C886.818 653.643 895.336 662.219 904.461 672.677C918.198 688.418 933.148 708.228 948.834 729.013C953.999 735.856 959.243 742.805 964.55 749.749C971.786 759.217 979.096 770.221 986.52 781.396C987.825 783.359 989.133 785.328 990.444 787.294C999.195 800.414 1008.1 813.429 1017.14 823.925C1026.13 834.379 1035.45 842.579 1045.08 845.759C1049.95 847.365 1054.91 847.696 1059.91 846.385C1064.89 845.077 1069.8 842.169 1074.63 837.493C1075.35 836.796 1075.36 835.654 1074.66 834.94C1073.96 834.227 1072.81 834.212 1072.09 834.909C1067.6 839.257 1063.22 841.781 1058.98 842.895C1054.74 844.005 1050.51 843.746 1046.23 842.334C1037.59 839.479 1028.81 831.93 1019.9 821.582C1011.04 811.275 1002.24 798.434 993.479 785.302C992.176 783.349 990.874 781.389 989.573 779.43C982.153 768.261 974.765 757.14 967.45 747.568Z" fill="black"/>
<path d="M577.5 253C564.521 253 554 263.969 554 277.5C554 295 577.5 323 577.5 323C577.5 323 601 295 601 277.5C601 263.969 590.479 253 577.5 253ZM577.5 286.25C572.864 286.25 569.107 282.333 569.107 277.5C569.107 272.667 572.864 268.75 577.5 268.75C582.136 268.75 585.893 272.667 585.893 277.5C585.893 282.333 582.136 286.25 577.5 286.25Z" fill="white"/>
<path fill-rule="evenodd" clip-rule="evenodd" d="M576.353 321.591C577.08 322.5 577.5 323 577.5 323C577.5 323 577.92 322.5 578.647 321.591C583.362 315.703 601 292.661 601 277.5C601 263.969 590.479 253 577.5 253C564.521 253 554 263.969 554 277.5C554 292.661 571.638 315.703 576.353 321.591ZM577.5 320.174C578.103 319.417 578.887 318.417 579.799 317.217C581.982 314.346 584.889 310.341 587.793 305.8C590.7 301.253 593.582 296.203 595.732 291.241C597.895 286.248 599.248 281.495 599.248 277.5C599.248 264.978 589.511 254.826 577.5 254.826C565.489 254.826 555.752 264.978 555.752 277.5C555.752 281.495 557.105 286.248 559.268 291.241C561.418 296.203 564.3 301.253 567.207 305.8C570.111 310.341 573.018 314.346 575.201 317.217C576.113 318.417 576.897 319.417 577.5 320.174ZM577.5 288.076C571.896 288.076 567.356 283.342 567.356 277.5C567.356 271.658 571.896 266.924 577.5 266.924C583.104 266.924 587.644 271.658 587.644 277.5C587.644 283.342 583.104 288.076 577.5 288.076ZM569.107 277.5C569.107 282.333 572.864 286.25 577.5 286.25C582.136 286.25 585.893 282.333 585.893 277.5C585.893 272.667 582.136 268.75 577.5 268.75C572.864 268.75 569.107 272.667 569.107 277.5Z" fill="black"/>
<path d="M809 515C786.909 515 769 532.707 769 554.55C769 582.8 809 628 809 628C809 628 849 582.8 849 554.55C849 532.707 831.091 515 809 515ZM809 568.675C801.109 568.675 794.714 562.353 794.714 554.55C794.714 546.747 801.109 540.425 809 540.425C816.891 540.425 823.286 546.747 823.286 554.55C823.286 562.353 816.891 568.675 809 568.675Z" fill="white"/>
<path fill-rule="evenodd" clip-rule="evenodd" d="M807.615 626.395C808.501 627.436 809 628 809 628C809 628 809.499 627.436 810.385 626.395C817.436 618.115 849 579.645 849 554.55C849 532.707 831.091 515 809 515C786.909 515 769 532.707 769 554.55C769 579.645 800.564 618.115 807.615 626.395ZM809 624.783C809.033 624.743 809.067 624.703 809.101 624.663C810.184 623.385 811.735 621.523 813.596 619.2C817.322 614.552 822.285 608.067 827.244 600.712C832.208 593.35 837.141 585.155 840.827 577.086C844.528 568.982 846.89 561.178 846.89 554.55C846.89 533.859 829.926 517.086 809 517.086C788.074 517.086 771.11 533.859 771.11 554.55C771.11 561.178 773.472 568.982 777.173 577.086C780.859 585.155 785.792 593.35 790.756 600.712C795.715 608.067 800.678 614.552 804.404 619.2C806.265 621.523 807.816 623.385 808.899 624.663C808.933 624.703 808.967 624.743 809 624.783ZM809 570.761C799.943 570.761 792.604 563.505 792.604 554.55C792.604 545.595 799.943 538.339 809 538.339C818.057 538.339 825.396 545.595 825.396 554.55C825.396 563.505 818.057 570.761 809 570.761ZM794.714 554.55C794.714 562.353 801.109 568.675 809 568.675C816.891 568.675 823.286 562.353 823.286 554.55C823.286 546.747 816.891 540.425 809 540.425C801.109 540.425 794.714 546.747 794.714 554.55Z" fill="black"/>
<path d="M1168.5 427C1154.97 427 1144 437.969 1144 451.5C1144 469 1168.5 497 1168.5 497C1168.5 497 1193 469 1193 451.5C1193 437.969 1182.03 427 1168.5 427ZM1168.5 460.25C1163.67 460.25 1159.75 456.333 1159.75 451.5C1159.75 446.667 1163.67 442.75 1168.5 442.75C1173.33 442.75 1177.25 446.667 1177.25 451.5C1177.25 456.333 1173.33 460.25 1168.5 460.25Z" fill="white"/>
<path fill-rule="evenodd" clip-rule="evenodd" d="M1167.3 495.591C1168.06 496.5 1168.5 497 1168.5 497C1168.5 497 1168.94 496.5 1169.7 495.591C1174.61 489.703 1193 466.661 1193 451.5C1193 437.969 1182.03 427 1168.5 427C1154.97 427 1144 437.969 1144 451.5C1144 466.661 1162.39 489.703 1167.3 495.591ZM1168.5 494.174C1169.13 493.417 1169.95 492.417 1170.9 491.217C1173.17 488.346 1176.2 484.341 1179.23 479.8C1182.26 475.253 1185.27 470.203 1187.51 465.241C1189.76 460.248 1191.17 455.495 1191.17 451.5C1191.17 438.978 1181.02 428.826 1168.5 428.826C1155.98 428.826 1145.83 438.978 1145.83 451.5C1145.83 455.495 1147.24 460.248 1149.49 465.241C1151.73 470.203 1154.74 475.253 1157.77 479.8C1160.8 484.341 1163.83 488.346 1166.1 491.217C1167.05 492.417 1167.87 493.417 1168.5 494.174ZM1168.5 462.076C1162.66 462.076 1157.92 457.342 1157.92 451.5C1157.92 445.658 1162.66 440.924 1168.5 440.924C1174.34 440.924 1179.08 445.658 1179.08 451.5C1179.08 457.342 1174.34 462.076 1168.5 462.076ZM1159.75 451.5C1159.75 456.333 1163.67 460.25 1168.5 460.25C1173.33 460.25 1177.25 456.333 1177.25 451.5C1177.25 446.667 1173.33 442.75 1168.5 442.75C1163.67 442.75 1159.75 446.667 1159.75 451.5Z" fill="black"/>
<path d="M1077 760C1063.75 760 1053 770.812 1053 784.15C1053 801.4 1077 829 1077 829C1077 829 1101 801.4 1101 784.15C1101 770.812 1090.25 760 1077 760ZM1077 792.775C1072.27 792.775 1068.43 788.914 1068.43 784.15C1068.43 779.386 1072.27 775.525 1077 775.525C1081.73 775.525 1085.57 779.386 1085.57 784.15C1085.57 788.914 1081.73 792.775 1077 792.775Z" fill="white"/>
<path fill-rule="evenodd" clip-rule="evenodd" d="M1075.83 827.612C1076.57 828.507 1077 829 1077 829C1077 829 1077.43 828.507 1078.17 827.612C1082.99 821.807 1101 799.094 1101 784.15C1101 770.812 1090.25 760 1077 760C1063.75 760 1053 770.812 1053 784.15C1053 799.094 1071.01 821.807 1075.83 827.612ZM1077 826.214C1077.62 825.469 1078.42 824.483 1079.35 823.3C1081.58 820.47 1084.55 816.521 1087.51 812.045C1090.48 807.564 1093.42 802.586 1095.62 797.694C1097.83 792.773 1099.21 788.088 1099.21 784.15C1099.21 771.806 1089.27 761.8 1077 761.8C1064.73 761.8 1054.79 771.806 1054.79 784.15C1054.79 788.088 1056.17 792.773 1058.38 797.694C1060.58 802.586 1063.52 807.564 1066.49 812.045C1069.45 816.521 1072.42 820.47 1074.65 823.3C1075.58 824.483 1076.38 825.469 1077 826.214ZM1077 794.575C1071.28 794.575 1066.64 789.909 1066.64 784.15C1066.64 778.391 1071.28 773.725 1077 773.725C1082.72 773.725 1087.36 778.391 1087.36 784.15C1087.36 789.909 1082.72 794.575 1077 794.575ZM1068.43 784.15C1068.43 788.914 1072.27 792.775 1077 792.775C1081.73 792.775 1085.57 788.914 1085.57 784.15C1085.57 779.386 1081.73 775.525 1077 775.525C1072.27 775.525 1068.43 779.386 1068.43 784.15Z" fill="black"/>
<path d="M629.5 778C615.969 778 605 788.969 605 802.5C605 820 629.5 848 629.5 848C629.5 848 654 820 654 802.5C654 788.969 643.031 778 629.5 778ZM629.5 811.25C624.667 811.25 620.75 807.333 620.75 802.5C620.75 797.667 624.667 793.75 629.5 793.75C634.333 793.75 638.25 797.667 638.25 802.5C638.25 807.333 634.333 811.25 629.5 811.25Z" fill="white"/>
<path fill-rule="evenodd" clip-rule="evenodd" d="M628.304 846.591C629.062 847.5 629.5 848 629.5 848C629.5 848 629.938 847.5 630.696 846.591C635.611 840.703 654 817.661 654 802.5C654 788.969 643.031 778 629.5 778C615.969 778 605 788.969 605 802.5C605 817.661 623.389 840.703 628.304 846.591ZM629.5 845.174C630.129 844.417 630.946 843.417 631.897 842.217C634.172 839.346 637.203 835.341 640.231 830.8C643.262 826.253 646.266 821.203 648.508 816.241C650.762 811.248 652.174 806.495 652.174 802.5C652.174 789.978 642.022 779.826 629.5 779.826C616.978 779.826 606.826 789.978 606.826 802.5C606.826 806.495 608.238 811.248 610.492 816.241C612.734 821.203 615.738 826.253 618.769 830.8C621.797 835.341 624.828 839.346 627.103 842.217C628.054 843.417 628.871 844.417 629.5 845.174ZM629.5 813.076C623.658 813.076 618.924 808.342 618.924 802.5C618.924 796.658 623.658 791.924 629.5 791.924C635.342 791.924 640.076 796.658 640.076 802.5C640.076 808.342 635.342 813.076 629.5 813.076ZM620.75 802.5C620.75 807.333 624.667 811.25 629.5 811.25C634.333 811.25 638.25 807.333 638.25 802.5C638.25 797.667 634.333 793.75 629.5 793.75C624.667 793.75 620.75 797.667 620.75 802.5Z" fill="black"/>
<path d="M74.5 716C60.969 716 50 726.969 50 740.5C50 758 74.5 786 74.5 786C74.5 786 99 758 99 740.5C99 726.969 88.031 716 74.5 716ZM74.5 749.25C69.6665 749.25 65.75 745.333 65.75 740.5C65.75 735.667 69.6665 731.75 74.5 731.75C79.3335 731.75 83.25 735.667 83.25 740.5C83.25 745.333 79.3335 749.25 74.5 749.25Z" fill="white"/>
<path fill-rule="evenodd" clip-rule="evenodd" d="M73.3041 784.591C74.0624 785.5 74.5 786 74.5 786C74.5 786 74.9376 785.5 75.6959 784.591C80.6113 778.703 99 755.661 99 740.5C99 726.969 88.031 716 74.5 716C60.969 716 50 726.969 50 740.5C50 755.661 68.3887 778.703 73.3041 784.591ZM74.5 783.174C75.1286 782.417 75.9462 781.417 76.8969 780.217C79.1724 777.346 82.2033 773.341 85.2306 768.8C88.2615 764.253 91.2663 759.203 93.5076 754.241C95.7624 749.248 97.1739 744.495 97.1739 740.5C97.1739 727.978 87.0225 717.826 74.5 717.826C61.9775 717.826 51.8261 727.978 51.8261 740.5C51.8261 744.495 53.2376 749.248 55.4924 754.241C57.7337 759.203 60.7385 764.253 63.7694 768.8C66.7967 773.341 69.8276 777.346 72.1031 780.217C73.0538 781.417 73.8714 782.417 74.5 783.174ZM74.5 751.076C68.658 751.076 63.9239 746.342 63.9239 740.5C63.9239 734.658 68.658 729.924 74.5 729.924C80.342 729.924 85.0761 734.658 85.0761 740.5C85.0761 746.342 80.342 751.076 74.5 751.076ZM65.75 740.5C65.75 745.333 69.6665 749.25 74.5 749.25C79.3335 749.25 83.25 745.333 83.25 740.5C83.25 735.667 79.3335 731.75 74.5 731.75C69.6665 731.75 65.75 735.667 65.75 740.5Z" fill="black"/>
<path d="M1113.5 50C1099.97 50 1089 60.969 1089 74.5C1089 92 1113.5 120 1113.5 120C1113.5 120 1138 92 1138 74.5C1138 60.969 1127.03 50 1113.5 50ZM1113.5 83.25C1108.67 83.25 1104.75 79.3335 1104.75 74.5C1104.75 69.6665 1108.67 65.75 1113.5 65.75C1118.33 65.75 1122.25 69.6665 1122.25 74.5C1122.25 79.3335 1118.33 83.25 1113.5 83.25Z" fill="white"/>
<path fill-rule="evenodd" clip-rule="evenodd" d="M1112.3 118.591C1113.06 119.5 1113.5 120 1113.5 120C1113.5 120 1113.94 119.5 1114.7 118.591C1119.61 112.703 1138 89.6611 1138 74.5C1138 60.969 1127.03 50 1113.5 50C1099.97 50 1089 60.969 1089 74.5C1089 89.6611 1107.39 112.703 1112.3 118.591ZM1113.5 117.174C1114.13 116.417 1114.95 115.417 1115.9 114.217C1118.17 111.346 1121.2 107.341 1124.23 102.8C1127.26 98.2532 1130.27 93.2035 1132.51 88.2406C1134.76 83.2478 1136.17 78.4949 1136.17 74.5C1136.17 61.9775 1126.02 51.8261 1113.5 51.8261C1100.98 51.8261 1090.83 61.9775 1090.83 74.5C1090.83 78.4949 1092.24 83.2478 1094.49 88.2406C1096.73 93.2035 1099.74 98.2532 1102.77 102.8C1105.8 107.341 1108.83 111.346 1111.1 114.217C1112.05 115.417 1112.87 116.417 1113.5 117.174ZM1113.5 85.0761C1107.66 85.0761 1102.92 80.342 1102.92 74.5C1102.92 68.658 1107.66 63.9239 1113.5 63.9239C1119.34 63.9239 1124.08 68.658 1124.08 74.5C1124.08 80.342 1119.34 85.0761 1113.5 85.0761ZM1104.75 74.5C1104.75 79.3335 1108.67 83.25 1113.5 83.25C1118.33 83.25 1122.25 79.3335 1122.25 74.5C1122.25 69.6665 1118.33 65.75 1113.5 65.75C1108.67 65.75 1104.75 69.6665 1104.75 74.5Z" fill="black"/>
<path fill-rule="evenodd" clip-rule="evenodd" d="M392.622 666.364C373.957 679.471 354.479 693.149 331.619 700.225L331.428 700.285L331.228 700.301C228.415 708.577 169.908 739.369 134.757 764.417C125.956 770.688 118.606 776.609 112.368 781.752C111.114 782.786 109.902 783.791 108.73 784.763C104.098 788.604 100.091 791.927 96.607 794.449C92.3 797.567 88.4292 799.747 84.8469 799.979C80.9587 800.231 77.8863 798.202 75.2969 794.266C74.7485 793.433 74.9814 792.314 75.817 791.767C76.6527 791.22 77.7746 791.452 78.323 792.286C80.4843 795.571 82.4735 796.515 84.6121 796.376C87.0565 796.218 90.1773 794.643 94.4809 791.527C97.8594 789.081 101.744 785.86 106.362 782.031C107.546 781.049 108.778 780.028 110.062 778.969C116.326 773.805 123.751 767.822 132.653 761.479C168.286 736.087 227.361 705.074 330.736 696.718C352.924 689.807 371.83 676.538 390.47 663.457C393.522 661.315 396.566 659.178 399.617 657.076C421.223 642.18 443.127 629 469.53 629H469.615C521.155 629 569.374 629 626.671 648.959C666.357 662.783 693.849 672.345 716.393 672.619C727.581 672.755 737.502 670.595 747.056 665.512C756.635 660.416 765.937 652.332 775.798 640.484C776.436 639.717 777.577 639.611 778.346 640.248C779.115 640.885 779.221 642.023 778.583 642.79C768.536 654.861 758.885 663.31 748.759 668.697C738.609 674.098 728.075 676.372 716.349 676.229C693.172 675.948 665.159 666.19 625.998 652.548L625.478 652.367C568.792 632.621 521.115 632.61 469.53 632.61C444.354 632.61 423.276 645.154 401.674 660.046C398.671 662.116 395.657 664.232 392.622 666.364Z" fill="white"/>
<path fill-rule="evenodd" clip-rule="evenodd" d="M393.634 668.811C375.082 681.898 355.452 695.744 332.373 702.921L331.837 701.193C354.645 694.101 374.079 680.392 392.701 667.257L392.703 667.255C395.731 665.119 398.737 662.999 401.732 660.924C423.284 646 444.314 633.428 469.432 633.428C520.899 633.428 568.467 633.439 625.024 653.229L625.543 653.41C664.614 667.082 692.563 676.862 715.687 677.144C727.385 677.287 737.895 675.008 748.023 669.595C758.125 664.196 767.754 655.728 777.778 643.63C778.415 642.861 778.309 641.721 777.542 641.082C776.775 640.444 775.636 640.55 774.999 641.319C765.161 653.193 755.88 661.295 746.323 666.402C736.791 671.497 726.893 673.662 715.731 673.526C693.238 673.251 665.809 663.667 626.214 649.812C569.048 629.809 520.939 629.809 469.517 629.809H469.432C443.09 629.809 421.237 643.019 399.679 657.947C396.636 660.055 393.598 662.196 390.554 664.343C371.957 677.454 353.094 690.752 330.957 697.678C227.818 706.052 168.878 737.135 133.327 762.584C124.445 768.941 117.037 774.937 110.788 780.113C109.507 781.174 108.278 782.197 107.097 783.181C102.489 787.019 98.6129 790.247 95.2421 792.699C90.9484 795.821 87.8347 797.4 85.3959 797.559C83.2623 797.698 81.2776 796.751 79.1212 793.459C78.5741 792.623 77.4547 792.391 76.621 792.939C75.7873 793.487 75.5549 794.609 76.1021 795.444C78.6855 799.389 81.7509 801.422 85.6301 801.169C89.2042 800.937 93.0662 798.752 97.3633 795.627C100.84 793.099 104.838 789.769 109.459 785.919C110.628 784.945 111.838 783.938 113.088 782.902C119.312 777.747 126.646 771.813 135.426 765.528C170.496 740.424 228.869 709.564 331.447 701.269L331.593 703.072C229.357 711.339 171.294 742.077 136.475 767C127.746 773.249 120.45 779.152 114.239 784.297C112.99 785.331 111.783 786.336 110.613 787.311L110.573 787.344C105.984 791.167 101.949 794.528 98.4239 797.092C94.1238 800.219 89.8883 802.705 85.7472 802.975C80.9918 803.285 77.3868 800.703 74.5925 796.437C73.4982 794.766 73.9629 792.523 75.6303 791.426C75.6303 791.426 75.6303 791.426 75.6303 791.426M331.647 701.253L331.447 701.269L331.593 703.072L331.991 703.04L332.373 702.921L331.837 701.193L331.647 701.253ZM75.6303 791.426C77.2978 790.33 79.5366 790.795 80.6308 792.466C81.6223 793.98 82.4809 794.807 83.2071 795.251C83.8933 795.67 84.5473 795.801 85.2788 795.753C87.1491 795.631 89.8879 794.357 94.1816 791.235C97.4938 788.826 101.318 785.641 105.942 781.79L105.946 781.787C107.126 780.804 108.355 779.78 109.637 778.718C115.9 773.531 123.345 767.505 132.277 761.112C168.057 735.499 227.253 704.317 330.61 695.891C352.35 689.047 370.933 675.963 389.515 662.863C392.558 660.717 395.602 658.572 398.653 656.459C420.213 641.529 442.478 628 469.432 628H469.601C520.986 628 569.354 628 626.81 648.104C666.531 662.003 693.627 671.447 715.753 671.716C726.646 671.849 736.239 669.741 745.474 664.806C754.757 659.844 763.865 651.926 773.61 640.163C774.884 638.625 777.161 638.414 778.695 639.69C780.23 640.967 780.441 643.248 779.167 644.786C769.051 656.996 759.248 665.646 748.873 671.192C738.448 676.763 727.632 679.099 715.665 678.953C692.246 678.667 664.066 668.807 625.299 655.241L624.428 654.937C568.192 635.259 520.906 635.237 469.432 635.237C444.926 635.237 424.308 647.49 402.759 662.413C399.77 664.482 396.77 666.599 393.74 668.736L393.634 668.811" fill="black"/>
<path fill-rule="evenodd" clip-rule="evenodd" d="M1102.46 129.519C1103.17 130.22 1103.18 131.364 1102.48 132.075C1083.34 151.564 1050.71 191.607 1022.4 229.798C1008.25 248.884 995.209 267.473 985.483 282.765C980.619 290.413 976.6 297.213 973.691 302.825C970.75 308.498 969.046 312.769 968.644 315.427C967.452 323.31 963.048 331.591 957.008 339.787C950.948 348.01 943.123 356.303 934.886 364.219C926.644 372.139 917.946 379.724 910.127 386.516L909.217 387.306C901.748 393.794 895.182 399.497 890.6 404.09C874.982 419.744 866.357 434.146 861.882 447.063C857.409 459.975 857.048 471.502 858.098 481.467C858.623 486.458 859.503 491.061 860.404 495.27C860.688 496.597 860.977 497.896 861.258 499.16C861.859 501.863 862.424 504.403 862.828 506.703C863.419 510.076 863.721 513.208 863.229 515.911C862.718 518.72 861.349 521.064 858.732 522.721C857.89 523.254 856.777 523.001 856.245 522.158C855.713 521.314 855.965 520.197 856.807 519.664C858.472 518.61 859.329 517.198 859.681 515.263C860.052 513.222 859.853 510.62 859.276 507.329C858.887 505.11 858.351 502.703 857.761 500.05C857.476 498.769 857.178 497.431 856.878 496.029C855.965 491.766 855.056 487.022 854.511 481.847C853.419 471.479 853.791 459.398 858.475 445.877C863.157 432.362 872.113 417.508 888.05 401.534C892.726 396.847 899.38 391.067 906.787 384.634L907.765 383.785C915.589 376.988 924.223 369.459 932.39 361.61C940.561 353.757 948.221 345.626 954.107 337.639C960.013 329.626 964.016 321.912 965.078 314.885C965.578 311.578 967.546 306.839 970.491 301.158C973.468 295.415 977.549 288.516 982.442 280.822C992.232 265.431 1005.33 246.766 1019.51 227.642C1047.85 189.413 1080.59 149.21 1099.91 129.539C1100.61 128.828 1101.75 128.819 1102.46 129.519Z" fill="white"/>
<path fill-rule="evenodd" clip-rule="evenodd" d="M1104.92 128.04C1106.34 129.442 1106.36 131.733 1104.96 133.157C1085.8 152.573 1053.05 192.574 1024.6 230.783C1010.39 249.869 997.299 268.439 987.551 283.696C982.674 291.328 978.664 298.085 975.773 303.636C972.817 309.313 971.237 313.352 970.882 315.687C969.619 324.007 964.989 332.58 958.848 340.875C952.667 349.225 944.716 357.606 936.4 365.562C928.076 373.525 919.296 381.145 911.437 387.942L910.523 388.732L909.335 387.365L910.25 386.575C918.111 379.776 926.858 372.184 935.145 364.256C943.428 356.332 951.296 348.031 957.389 339.8C963.463 331.596 967.891 323.307 969.089 315.416C969.493 312.756 971.207 308.481 974.164 302.802C977.089 297.185 981.131 290.378 986.022 282.723C995.802 267.416 1008.92 248.809 1023.15 229.705C1051.61 191.476 1084.42 151.395 1103.67 131.887C1104.37 131.175 1104.36 130.03 1103.65 129.329C1102.93 128.628 1101.78 128.637 1101.08 129.349C1081.65 149.038 1048.73 189.281 1020.23 227.547C1005.98 246.689 992.808 265.372 982.964 280.778C978.044 288.479 973.94 295.385 970.947 301.134C967.985 306.82 966.007 311.564 965.504 314.874C964.436 321.908 960.411 329.63 954.473 337.651C948.554 345.645 940.852 353.784 932.636 361.644C924.423 369.501 915.742 377.037 907.875 383.84L906.891 384.691C899.444 391.13 892.752 396.916 888.051 401.607C872.026 417.596 863.02 432.465 858.313 445.993C853.603 459.527 853.229 471.62 854.327 481.997C854.875 487.178 855.789 491.927 856.707 496.193C857.009 497.597 857.308 498.936 857.595 500.218C858.188 502.874 858.727 505.284 859.118 507.505C859.699 510.799 859.899 513.403 859.526 515.446C859.172 517.383 858.31 518.796 856.635 519.852C855.788 520.385 855.536 521.503 856.07 522.347C856.605 523.192 857.725 523.444 858.572 522.911C861.203 521.253 862.579 518.907 863.093 516.095C863.587 513.389 863.285 510.255 862.689 506.878C862.284 504.576 861.716 502.033 861.111 499.327C860.829 498.063 860.538 496.762 860.253 495.434C859.346 491.221 858.462 486.614 857.933 481.618C856.878 471.643 857.241 460.104 861.738 447.18C866.238 434.25 874.911 419.835 890.615 404.165C895.222 399.569 901.825 393.859 909.335 387.365L910.523 388.732C902.992 395.244 896.447 400.904 891.897 405.444C876.353 420.954 867.847 435.143 863.451 447.774C859.06 460.393 858.702 471.655 859.736 481.428C860.255 486.332 861.125 490.868 862.025 495.055C862.309 496.375 862.598 497.668 862.881 498.934L862.887 498.96C863.487 501.646 864.062 504.222 864.475 506.565C865.078 509.983 865.432 513.382 864.877 516.419C864.283 519.668 862.65 522.481 859.54 524.44C857.846 525.508 855.607 525.003 854.537 523.313C853.468 521.624 853.974 519.389 855.667 518.322C856.865 517.567 857.468 516.62 857.742 515.121C858.054 513.411 857.906 511.072 857.332 507.818C856.949 505.645 856.421 503.278 855.825 500.612C855.539 499.331 855.238 497.984 854.934 496.573C854.011 492.28 853.082 487.46 852.524 482.187C851.405 471.608 851.784 459.239 856.6 445.4C861.412 431.573 870.583 416.477 886.769 400.328C891.516 395.591 898.246 389.772 905.656 383.365L906.687 382.473C914.557 375.668 923.206 368.159 931.381 360.338C939.564 352.51 947.184 344.452 953.014 336.576C958.885 328.646 962.708 321.208 963.711 314.603C964.263 310.969 966.374 305.99 969.338 300.3C972.366 294.485 976.5 287.53 981.435 279.806C991.311 264.349 1004.51 245.629 1018.78 226.468C1047.29 188.183 1080.27 147.86 1099.79 128.08C1101.19 126.656 1103.49 126.638 1104.92 128.04Z" fill="black"/>
<path fill-rule="evenodd" clip-rule="evenodd" d="M584.806 329C585.803 329 586.611 329.808 586.611 330.805C586.611 332.586 587.326 334.009 588.739 335.278C590.212 336.601 592.425 337.728 595.3 338.734C599.478 340.196 604.621 341.269 610.153 342.423C612.292 342.869 614.489 343.327 616.71 343.825C624.519 345.574 632.561 347.801 638.522 351.771C641.531 353.775 644.069 356.26 645.772 359.404C647.482 362.561 648.293 366.277 648.002 370.643C647.49 378.315 650.377 389.038 655.847 401.77C661.288 414.436 669.178 428.852 678.411 443.818C696.875 473.746 720.614 505.724 740.59 530.049C741.223 530.82 741.111 531.957 740.34 532.59C739.569 533.223 738.431 533.111 737.799 532.34C717.747 507.922 693.906 475.812 675.338 445.713C666.055 430.666 658.066 416.085 652.528 403.195C647.019 390.37 643.826 378.978 644.398 370.403C644.649 366.644 643.948 363.619 642.596 361.123C641.238 358.616 639.165 356.538 636.52 354.776C631.173 351.215 623.732 349.097 615.921 347.348C613.85 346.885 611.746 346.446 609.659 346.01C604.032 344.837 598.525 343.688 594.107 342.142C591.057 341.075 588.321 339.756 586.326 337.965C584.272 336.12 583 333.764 583 330.805C583 329.808 583.808 329 584.806 329Z" fill="white"/>
<path fill-rule="evenodd" clip-rule="evenodd" d="M584.62 327C586.619 327 588.24 328.627 588.24 330.635C588.24 331.835 588.678 332.799 589.772 333.786C590.987 334.881 592.943 335.92 595.737 336.902C599.79 338.326 604.817 339.382 610.398 340.551L610.404 340.552C612.544 341.001 614.757 341.464 616.997 341.968C624.824 343.728 633.186 346.025 639.469 350.228C642.668 352.368 645.445 355.074 647.325 358.56C649.218 362.07 650.086 366.159 649.774 370.86C649.291 378.128 652.032 388.586 657.495 401.357C662.901 413.995 670.761 428.424 679.991 443.45C698.447 473.492 722.192 505.617 742.178 530.059C743.446 531.61 743.222 533.901 741.677 535.174C740.132 536.448 737.85 536.223 736.582 534.672C716.444 510.044 692.495 477.651 673.829 447.266C664.499 432.078 656.441 417.315 650.842 404.226C645.3 391.269 641.946 379.464 642.55 370.376C642.781 366.899 642.133 364.201 640.958 362.021C639.769 359.817 637.924 357.93 635.455 356.278C630.404 352.899 623.246 350.823 615.414 349.062C613.354 348.598 611.258 348.159 609.164 347.721L609.078 347.703C603.502 346.535 597.887 345.359 593.346 343.763C590.2 342.658 587.196 341.233 584.935 339.194C582.556 337.049 581 334.207 581 330.635C581 328.627 582.621 327 584.62 327ZM586.43 330.635C586.43 329.631 585.62 328.817 584.62 328.817C583.62 328.817 582.81 329.631 582.81 330.635C582.81 333.613 584.085 335.985 586.144 337.842C588.144 339.645 590.886 340.973 593.944 342.048C598.372 343.604 603.893 344.76 609.533 345.942L609.533 345.942L609.533 345.942C611.626 346.38 613.734 346.822 615.81 347.288C623.64 349.049 631.099 351.181 636.459 354.766C639.11 356.539 641.188 358.631 642.55 361.156C643.904 363.668 644.607 366.714 644.356 370.497C643.783 379.13 646.983 390.598 652.505 403.509C658.056 416.485 666.064 431.164 675.37 446.312C693.983 476.612 717.881 508.937 737.981 533.518C738.615 534.294 739.756 534.407 740.528 533.77C741.301 533.133 741.413 531.988 740.779 531.212C720.755 506.724 696.959 474.532 678.451 444.404C669.196 429.338 661.286 414.825 655.832 402.074C650.349 389.257 647.455 378.462 647.968 370.739C648.26 366.344 647.447 362.603 645.733 359.425C644.026 356.26 641.482 353.758 638.466 351.741C632.49 347.744 624.429 345.502 616.601 343.742C614.374 343.241 612.172 342.779 610.028 342.33C604.483 341.169 599.327 340.089 595.139 338.617C592.257 337.604 590.039 336.469 588.563 335.138C587.146 333.86 586.43 332.427 586.43 330.635Z" fill="black"/>
<path fill-rule="evenodd" clip-rule="evenodd" d="M808.47 652.529C809.177 653.235 809.177 654.38 808.47 655.085C800.205 663.334 794.71 675.503 791.067 690.728C787.429 705.939 785.681 724.02 784.777 743.921C784.056 759.792 783.874 776.753 783.686 794.282C783.639 798.73 783.591 803.215 783.533 807.728C783.25 830.002 782.741 852.929 780.924 875.36C779.441 893.68 772.309 904.607 761.197 909.653C750.278 914.612 735.992 913.652 720.666 909.445C689.951 901.015 653.611 879.127 627.783 861.339C626.959 860.772 626.753 859.647 627.321 858.825C627.889 858.004 629.016 857.797 629.84 858.364C655.624 876.122 691.539 897.702 721.627 905.96C736.702 910.098 749.954 910.787 759.697 906.363C769.247 902.026 775.9 892.536 777.314 875.069C779.12 852.767 779.629 829.944 779.912 807.682C779.969 803.189 780.017 798.717 780.064 794.276C780.252 776.74 780.435 759.697 781.159 743.757C782.066 723.782 783.826 705.432 787.545 689.889C791.259 674.36 796.969 661.451 805.909 652.529C806.616 651.824 807.762 651.824 808.47 652.529Z" fill="white"/>
<path fill-rule="evenodd" clip-rule="evenodd" d="M810.937 655.18C802.994 663.103 797.595 674.919 793.981 690.015C790.375 705.081 788.63 723.054 787.726 742.946C787.005 758.804 786.823 775.757 786.635 793.319C786.587 797.773 786.539 802.266 786.481 806.788C786.198 829.1 785.687 852.112 783.861 874.641C782.341 893.414 774.954 905.076 763.037 910.485C751.506 915.719 736.674 914.623 721.191 910.375C690.099 901.847 653.471 879.773 627.568 861.944C625.919 860.808 625.504 858.554 626.643 856.908C627.781 855.263 630.041 854.849 631.691 855.985C657.505 873.753 693.281 895.211 723.115 903.394C738.096 907.504 750.857 908.059 760.03 903.895C768.818 899.907 775.244 891.122 776.626 874.058C778.431 851.789 778.94 828.984 779.224 806.696C779.281 802.198 779.329 797.721 779.376 793.274L779.377 793.254C779.565 775.706 779.748 758.613 780.474 742.619C781.385 722.577 783.155 704.067 786.921 688.334C790.68 672.631 796.509 659.332 805.804 650.06C807.222 648.647 809.52 648.647 810.937 650.06C812.354 651.474 812.354 653.766 810.937 655.18ZM809.654 653.9C810.363 653.193 810.363 652.047 809.654 651.34C808.945 650.633 807.796 650.633 807.088 651.34C798.13 660.275 792.409 673.203 788.686 688.754C784.96 704.32 783.196 722.697 782.287 742.701C781.562 758.664 781.379 775.731 781.191 793.292V793.293C781.143 797.74 781.095 802.219 781.038 806.719C780.755 829.013 780.245 851.87 778.435 874.204C777.018 891.696 770.351 901.199 760.782 905.543C751.019 909.974 737.74 909.283 722.634 905.14C692.486 896.87 656.497 875.258 630.66 857.475C629.835 856.907 628.705 857.113 628.136 857.936C627.567 858.759 627.774 859.886 628.599 860.454C654.48 878.268 690.894 900.188 721.672 908.63C737.029 912.843 751.344 913.804 762.285 908.838C773.419 903.784 780.566 892.842 782.053 874.495C783.873 852.031 784.383 829.071 784.667 806.765C784.724 802.248 784.773 797.758 784.82 793.306L784.82 793.299V793.299C785.008 775.745 785.191 758.759 785.913 742.864C786.818 722.935 788.57 704.827 792.216 689.595C795.866 674.347 801.372 662.16 809.654 653.9Z" fill="black"/>
<path fill-rule="evenodd" clip-rule="evenodd" d="M1165.94 509.164C1166.85 509.582 1167.25 510.666 1166.84 511.586C1159.65 527.526 1142.37 535.799 1120 540.308C1097.55 544.831 1069.34 545.686 1039.47 546.257C1036.67 546.31 1033.85 546.361 1031.03 546.412C1003.62 546.909 975.072 547.426 948.205 550.446C918.558 553.778 891.154 560.142 869.726 572.751C868.862 573.259 867.752 572.965 867.247 572.093C866.743 571.22 867.035 570.101 867.9 569.592C889.976 556.601 917.973 550.164 947.804 546.811C974.848 543.771 1003.56 543.252 1030.95 542.756C1033.78 542.705 1036.6 542.654 1039.4 542.6C1069.34 542.028 1097.21 541.169 1119.29 536.721C1141.44 532.258 1157.12 524.303 1163.54 510.072C1163.95 509.153 1165.03 508.746 1165.94 509.164Z" fill="white"/>
<path fill-rule="evenodd" clip-rule="evenodd" d="M1162.06 510.092L1162.06 510.092C1162.89 508.298 1165.05 507.505 1166.87 508.321C1168.7 509.136 1169.5 511.251 1168.67 513.045C1161.1 529.429 1142.99 537.654 1120.48 542.074C1097.82 546.523 1069.41 547.355 1039.53 547.912C1036.73 547.964 1033.92 548.013 1031.1 548.063L1031.08 548.063C1003.62 548.548 975.122 549.052 948.322 551.987C918.729 555.228 891.589 561.399 870.459 573.513C868.728 574.506 866.505 573.931 865.495 572.229L866.882 571.435L865.495 572.229C864.485 570.528 865.07 568.343 866.801 567.35H866.801C889.229 554.492 917.558 548.177 947.518 544.896C974.679 541.922 1003.5 541.413 1030.89 540.931L1030.93 540.93C1033.77 540.88 1036.59 540.83 1039.39 540.778C1069.4 540.219 1097.14 539.379 1119.06 535.077C1141.12 530.745 1156.03 523.14 1162.06 510.092ZM867.716 568.891C866.85 569.388 866.558 570.48 867.063 571.331C867.568 572.182 868.679 572.469 869.545 571.973C890.999 559.673 918.436 553.465 948.121 550.215C975.02 547.269 1003.6 546.764 1031.04 546.28L1031.05 546.28C1033.88 546.23 1036.69 546.18 1039.49 546.128C1069.41 545.571 1097.65 544.737 1120.13 540.325C1142.53 535.927 1159.83 527.857 1167.02 512.306C1167.44 511.41 1167.03 510.352 1166.12 509.945C1165.21 509.537 1164.13 509.933 1163.72 510.83C1157.3 524.712 1141.59 532.472 1119.41 536.826C1097.31 541.165 1069.4 542.003 1039.43 542.561C1036.62 542.613 1033.8 542.663 1030.96 542.713C1003.55 543.197 974.796 543.704 947.719 546.669C917.851 549.94 889.819 556.219 867.716 568.891Z" fill="black"/>
</g>
<defs>
<filter id="filter0_d_147_134" x="0" y="0" width="1243" height="964" filterUnits="userSpaceOnUse" color-interpolation-filters="sRGB">
<feFlood flood-opacity="0" result="BackgroundImageFix"/>
<feColorMatrix in="SourceAlpha" type="matrix" values="0 0 0 0 0 0 0 0 0 0 0 0 0 0 0 0 0 0 127 0" result="hardAlpha"/>
<feOffset/>
<feGaussianBlur stdDeviation="25"/>
<feComposite in2="hardAlpha" operator="out"/>
<feColorMatrix type="matrix" values="0 0 0 0 1 0 0 0 0 1 0 0 0 0 1 0 0 0 1 0"/>
<feBlend mode="normal" in2="BackgroundImageFix" result="effect1_dropShadow_147_134"/>
<feBlend mode="normal" in="SourceGraphic" in2="effect1_dropShadow_147_134" result="shape"/>
</filter>
</defs>
</svg>
