<svg width="21" height="25" viewBox="0 0 21 25" fill="none" xmlns="http://www.w3.org/2000/svg">
<path d="M3.98958 3.125C2.41678 3.125 1.125 4.41678 1.125 5.98958V19.0104C1.125 20.5832 2.41678 21.875 3.98958 21.875H13.3646C14.9374 21.875 16.2292 20.5832 16.2292 19.0104C16.2306 18.9069 16.2115 18.8041 16.1729 18.708C16.1343 18.612 16.077 18.5245 16.0043 18.4508C15.9316 18.3771 15.845 18.3185 15.7495 18.2786C15.654 18.2386 15.5515 18.218 15.4479 18.218C15.3444 18.218 15.2419 18.2386 15.1464 18.2786C15.0509 18.3185 14.9642 18.3771 14.8915 18.4508C14.8188 18.5245 14.7615 18.612 14.7229 18.708C14.6843 18.8041 14.6652 18.9069 14.6667 19.0104C14.6667 19.7387 14.0928 20.3125 13.3646 20.3125H3.98958C3.26134 20.3125 2.6875 19.7387 2.6875 19.0104V5.98958C2.6875 5.26134 3.26134 4.6875 3.98958 4.6875H13.3646C14.0928 4.6875 14.6667 5.26134 14.6667 5.98958C14.6652 6.09311 14.6843 6.19589 14.7229 6.29196C14.7615 6.38803 14.8188 6.47547 14.8915 6.54919C14.9642 6.62292 15.0509 6.68146 15.1464 6.72142C15.2419 6.76138 15.3444 6.78196 15.4479 6.78196C15.5515 6.78196 15.654 6.76138 15.7495 6.72142C15.845 6.68146 15.9316 6.62292 16.0043 6.54919C16.077 6.47547 16.1343 6.38803 16.1729 6.29196C16.2115 6.19589 16.2306 6.09311 16.2292 5.98958C16.2292 4.41678 14.9374 3.125 13.3646 3.125H3.98958ZM15.4398 8.06478C15.2843 8.06482 15.1324 8.11124 15.0034 8.19811C14.8745 8.28498 14.7744 8.40835 14.7159 8.55243C14.6575 8.69651 14.6434 8.85475 14.6754 9.0069C14.7074 9.15905 14.784 9.2982 14.8955 9.40653L17.2078 11.7188H6.07292C5.96939 11.7173 5.86661 11.7364 5.77054 11.775C5.67447 11.8136 5.58703 11.8709 5.51331 11.9436C5.43958 12.0163 5.38104 12.1029 5.34108 12.1984C5.30112 12.294 5.28054 12.3965 5.28054 12.5C5.28054 12.6035 5.30112 12.706 5.34108 12.8016C5.38104 12.8971 5.43958 12.9837 5.51331 13.0564C5.58703 13.1291 5.67447 13.1864 5.77054 13.225C5.86661 13.2636 5.96939 13.2827 6.07292 13.2812H17.2078L14.8955 15.5935C14.8206 15.6655 14.7607 15.7517 14.7195 15.8471C14.6782 15.9425 14.6565 16.0452 14.6554 16.1491C14.6543 16.2531 14.674 16.3562 14.7133 16.4524C14.7526 16.5486 14.8107 16.636 14.8842 16.7095C14.9577 16.783 15.0451 16.8411 15.1414 16.8804C15.2376 16.9197 15.3407 16.9394 15.4446 16.9384C15.5486 16.9373 15.6512 16.9155 15.7467 16.8743C15.8421 16.833 15.9283 16.7732 16.0003 16.6982L19.6461 13.0524C19.7926 12.9058 19.8748 12.7072 19.8748 12.5C19.8748 12.2928 19.7926 12.0941 19.6461 11.9476L16.0003 8.3018C15.9275 8.22681 15.8403 8.16719 15.7441 8.12647C15.6478 8.08576 15.5443 8.06478 15.4398 8.06478Z" fill="white"/>
</svg>
