<svg width="25" height="25" viewBox="0 0 25 25" fill="none" xmlns="http://www.w3.org/2000/svg">
<path fill-rule="evenodd" clip-rule="evenodd" d="M12.5 13.1414L21.5542 8.24709V7.55208C21.5542 6.42597 20.6574 5.52917 19.5312 5.52917H5.46874C4.34263 5.52917 3.44583 6.42597 3.44583 7.55208V8.24709L12.5 13.1414ZM12.2237 14.3138L3.44583 9.5685V17.4479C3.44583 18.574 4.34263 19.4708 5.46874 19.4708H19.5312C20.6574 19.4708 21.5542 18.574 21.5542 17.4479V9.5685L12.7762 14.3138C12.6913 14.3596 12.5964 14.3836 12.5 14.3836C12.4036 14.3836 12.3086 14.3596 12.2237 14.3138ZM2.28333 7.55208C2.28333 5.80215 3.71881 4.36666 5.46874 4.36666H19.5312C21.2812 4.36666 22.7167 5.80215 22.7167 7.55208V17.4479C22.7167 19.1978 21.2812 20.6333 19.5312 20.6333H5.46874C3.71881 20.6333 2.28333 19.1978 2.28333 17.4479V7.55208Z" fill="#B6B6B6"/>
</svg>
