<svg width="23" height="23" viewBox="0 0 23 23" fill="none" xmlns="http://www.w3.org/2000/svg">
<path d="M6.22171 2.15625C5.84548 2.15625 5.47488 2.29102 5.16604 2.53809L5.12112 2.56055L5.09866 2.58301L2.85256 4.89648L2.87503 4.91895C2.18154 5.55908 1.96816 6.51648 2.26858 7.34473C2.27139 7.35034 2.26577 7.36157 2.26858 7.36719C2.87783 9.11072 4.43606 12.477 7.47952 15.5205C10.5342 18.5752 13.9455 20.0717 15.6328 20.7314H15.6553C16.5285 21.0234 17.4746 20.8157 18.1485 20.2373L20.417 17.9687C21.0122 17.3735 21.0122 16.3403 20.417 15.7451L17.4971 12.8252L17.4746 12.7803C16.8794 12.1851 15.8238 12.1851 15.2285 12.7803L13.791 14.2178C13.2716 13.9679 12.0335 13.3278 10.8487 12.1963C9.67227 11.0732 9.07144 9.78174 8.84964 9.27637L10.2871 7.83887C10.8908 7.23523 10.902 6.2301 10.2647 5.6377L10.2871 5.61523L10.2198 5.54785L7.34475 2.58301L7.32229 2.56055L7.27737 2.53809C6.96853 2.29102 6.59793 2.15625 6.22171 2.15625ZM6.22171 3.59375C6.27505 3.59375 6.3284 3.61902 6.37893 3.66113L9.25393 6.60352L9.32131 6.6709C9.3157 6.66528 9.36343 6.74109 9.27639 6.82812L7.47952 8.625L7.1426 8.93945L7.29983 9.38867C7.29983 9.38867 8.12527 11.5983 9.86038 13.252L10.0176 13.3867C11.6881 14.9113 13.6563 15.7451 13.6563 15.7451L14.1055 15.9473L16.2393 13.8135C16.3628 13.6899 16.3404 13.6899 16.4639 13.8135L19.4063 16.7559C19.5298 16.8794 19.5298 16.8345 19.4063 16.958L17.2051 19.1592C16.8738 19.4427 16.5229 19.5017 16.1045 19.3613C14.4761 18.7212 11.3119 17.3314 8.49026 14.5098C5.64614 11.6656 4.16091 8.4397 3.61624 6.87305C3.50674 6.58105 3.58535 6.14868 3.84085 5.92969L3.88577 5.88477L6.06448 3.66113C6.11502 3.61902 6.16836 3.59375 6.22171 3.59375Z" fill="#B6B6B6"/>
</svg>
