<svg width="21" height="22" viewBox="0 0 21 22" fill="none" xmlns="http://www.w3.org/2000/svg">
<path fill-rule="evenodd" clip-rule="evenodd" d="M16.5114 3.93349L16.5115 3.93343L18.737 6.16781L16.5114 3.93349ZM17.091 6.65657L17.6706 7.23844L17.6706 7.23841L17.091 6.65657ZM5.80103 9.47282L5.80109 9.47276L8.60614 12.2891L5.80103 9.47282ZM15.2704 6.58194L16.2348 5.58437L15.6568 5.00407L16.5115 4.14598L18.5253 6.16781L17.6706 7.02589L17.0926 6.4456L16.0989 7.41391L16.1874 7.52049C17.3457 8.91477 18.0538 10.7112 18.0538 12.6615C18.0538 17.0945 14.4575 20.7042 10.0435 20.7042C5.62942 20.7042 2.03314 17.0945 2.03314 12.6615C2.03314 8.22844 5.62942 4.61875 10.0435 4.61875C11.9855 4.61875 13.7746 5.32949 15.1633 6.49228L15.2704 6.58194ZM8.70977 12.6615C8.70977 12.5447 8.723 12.4328 8.75105 12.3278L8.77334 12.2444L6.01274 9.47282L6.86743 8.61473L9.62762 11.3859L9.71156 11.3633C9.81598 11.3351 9.92729 11.3219 10.0435 11.3219C10.7802 11.3219 11.3772 11.9204 11.3772 12.6615C11.3772 13.4025 10.7802 14.001 10.0435 14.001C9.30678 14.001 8.70977 13.4025 8.70977 12.6615ZM12.119 2.38437V3.57396H7.96792V2.38437H12.119ZM16.8701 12.6615C16.8701 8.86976 13.8216 5.80833 10.0435 5.80833C6.26532 5.80833 3.21684 8.86976 3.21684 12.6615C3.21684 16.4532 6.26532 19.5146 10.0435 19.5146C13.8216 19.5146 16.8701 16.4532 16.8701 12.6615Z" fill="#B6B6B6"/>
</svg>
