<?xml version="1.0" encoding="iso-8859-1"?>
<!-- Generator: Adobe Illustrator 16.0.0, SVG Export Plug-In . SVG Version: 6.00 Build 0)  -->
<!DOCTYPE svg PUBLIC "-//W3C//DTD SVG 1.1//EN" "http://www.w3.org/Graphics/SVG/1.1/DTD/svg11.dtd">
<svg version="1.1" id="Capa_1" xmlns="http://www.w3.org/2000/svg" xmlns:xlink="http://www.w3.org/1999/xlink" x="0px" y="0px"
	 width="588.418px" height="588.418px" viewBox="0 0 588.418 588.418" style="enable-background:new 0 0 588.418 588.418;"
	 xml:space="preserve">
<g>
	<path d="M588.342,376.188c1.199-17.4-11.9-27.2-26.6-25.7c26.299-156.4-99.101-253.1-246.301-258.6
		c-127.7-4.601-294.8,77.1-282.8,222.8c-1.8,1.5-1.8,4.6,0.3,6.1l0,0c0,1.2,0.3,2.101,0.6,3.4c-0.6,2.1-0.3,4.6,0.9,6.4
		c0.3,1.8,0.6,3.699,0.9,5.5c-5.8,2.399-11.3,5.8-16.2,9.8c-24.5,20.5-23.6,47.7-2.8,65.8c-18.4,9.5-21.4,31.8-8.3,52.3
		c18.7,29.101,52.6,23,69.5-2.399c20.2,46.5,94.6,45.6,119.3,4.6c15.9,20.8,45.6,29.4,59.1,6.4c16.8,19.3,47.099,17.1,55.399-5.2
		c22.301,19.3,53.601,30.3,75.301,2.8c16.5-20.8,2.399-48.3-16.2-64c29.7-12.9,30-55.7,6.7-81.4c-1.5-1.8-3.4-3.399-4.9-4.6
		c0.3-0.6,0.6-1.5,0.6-2.4c0-28.2-10.699-56-30.3-76.2c49,9.5,108,23.601,139.8,62.101c0,1.5,0.301,3.1,1.2,4.6
		c3.7,6.101,8,11.9,12.5,17.4c1.5,3.7,3.101,7.3,4.301,11c-22.9-0.3-46.501,15.9-28.501,36.4
		c-15.6,12.899-23.899,32.1-13.199,51.699c10.1,18.7,34,18.101,48.7,6.101c4.6,13.5,19.9,16.5,32.4,10.7
		c13.5-6.101,17.1-20.2,14.4-33C572.742,408.888,587.143,396.088,588.342,376.188z M355.441,328.388c32.1,8.6,33.7,67-4,67
		c-6.7,0-10.7,10.7-3.7,13.8c16.5,7.7,28.5,21.4,30,40.1c1.8,25.4-29.4,24.5-44.1,17.4c-7.301-3.4-13.801-8.9-20.2-14.1
		c0-0.9,0-1.801,0-3.101c-0.601-5.2-6.101-7-9.5-4.6c-4.9-2.101-10.1,3.399-6.101,8.3c0.601,0.6,1.2,1.2,1.5,1.8
		c-9.699,24.601-22.499,25.2-38.399,1.3c-2.4-5.8-10.4-6.699-12.5,0c-21.7,19.9-36.7,16.801-45-8.899c-2.1-6.7-12.2-7.3-14.4,0
		c-12.5,47.7-85.7,45.6-106.8,5.8c-0.3-0.3-0.3-0.6-0.6-0.9c-0.3-4.899-6.1-8.899-9.8-4.3c-14.1,17.4-31.2,33-50.2,12.2
		c-13.5-14.7-12.2-37.6,10.4-39.5c6.4-0.6,9.8-9.2,3.4-12.9c-26.9-14.699-26.9-38.6-2.1-55.399c9.8-6.7,21.7-9.2,33.4-8.601
		c11.7,0.601,18.4,8,27.8,12.2v0.3c1.5,4.301,8.9,5.5,9.8,0c2.4-15,4.3-28.199,22.6-26.899c17.7,1.2,27.2,18.399,26.3,34.3
		c-0.3,2.8,2.4,4.6,4.9,4.6c1.5,4.9,9.5,6.101,11.3,0c7-25.1,26.9-38.6,52.3-39.199c21.7-0.301,38.2,13.199,50.2,30
		c0,0.6-0.3,1.199-0.3,1.8c-0.3,7,10.1,8,11.9,1.5C293.342,332.987,326.041,320.787,355.441,328.388z M549.143,398.188
		c-3.4-0.9-7.602,2.4-6.102,6.1c4.301,10.101,3.4,20.2-5.799,27.2c-10.1,7.7-18.4,0.3-25.1-7.3c-0.9-1.2-2.102-1.2-3.102-0.9
		c-1.199-0.899-2.799-0.899-4.299-0.3c-13.201,6.4-26.9,10.7-36.4-3.399c-10.4-15.301,2.1-32.7,15-41c2.8-1.801,4-6.101,1.199-8.601
		c-23.3-20.8,19-26.6,33.4-22.3c3.4,0.9,5.201-4,2.4-5.5c-0.301-0.3-0.6-0.3-0.9-0.3c0.301-0.3,0.6-0.9,0.9-1.5
		c1.5-3.7,3.4-7.3,5.5-10.101c3.4-1.5,6.699-3.1,10.1-4.6c1.201,0,2.801,0.3,4.301,0.9c10.699,3.699,12.9,16.8,10.4,26.3
		c-0.301,1.2,0,2.1,0.299,3.1c-0.299,1.8,1.201,4.3,3.701,4c2.1,1.8,5.199,1.8,6.398-1.2c11.602-1.199,19.602,4,18.701,18.4
		C577.941,392.388,564.441,401.888,549.143,398.188z"/>
</g>
<g>
</g>
<g>
</g>
<g>
</g>
<g>
</g>
<g>
</g>
<g>
</g>
<g>
</g>
<g>
</g>
<g>
</g>
<g>
</g>
<g>
</g>
<g>
</g>
<g>
</g>
<g>
</g>
<g>
</g>
</svg>
