<?xml version="1.0" encoding="iso-8859-1"?>
<!-- Generator: Adobe Illustrator 19.0.0, SVG Export Plug-In . SVG Version: 6.00 Build 0)  -->
<svg version="1.1" id="Layer_1" xmlns="http://www.w3.org/2000/svg" xmlns:xlink="http://www.w3.org/1999/xlink" x="0px" y="0px"
	 viewBox="0 0 512 512" style="enable-background:new 0 0 512 512;" xml:space="preserve">
<path style="fill:#DDBB8E;" d="M44.545,343.342c21.041-6.093,42.352-1.188,35.334,25.896c0,0-32.073,27.955-65.395,23.195
	C14.483,392.433,38.892,372.796,44.545,343.342z"/>
<path style="fill:#B3B3B3;" d="M433.013,126.246c-16.399,30.99-19.184,66.693-8.949,98.742
	c-45.045-19.874-115.938,84.865-100.229,86.674c-29.098-1.523-191.604,19.636-243.956,57.577
	c-13.008-6.902-24.909-15.638-35.334-25.896c-23.802-23.409-39.88-54.72-43.7-90.102c-2.94-27.217,1.44-47.366,18.744-77.832
	l34.239,37.738c0,0,0-44.759,39.499-84.258l21.065,55.292c0,0,21.945-76.356,64.074-94.791l12.294,73.726
	c0,0,23.695-60.564,71.096-81.628l10.532,60.564c0,0,27.205-43.89,74.607-54.423l7.022,59.695c0,0,20.398-22.433,61.194-22.433
	C420.767,124.889,426.706,125.306,433.013,126.246z"/>
<path style="fill:#999999;" d="M63.418,271.354c-0.273-27.374,6.052-46.999,26.243-75.634l30.396,40.896
	c0,0,4.364-44.546,47.526-80.006l15.574,57.081c0,0,29.285-73.853,73.011-88.092l5.047,74.573c0,0,29.487-57.966,78.716-74.308
	l4.577,61.301c0,0,31.355-41.028,79.557-46.89l0.134,6.893c2.291-7.143,5.227-14.147,8.814-20.927
	c-6.307-0.94-12.246-1.357-17.804-1.357c-40.796,0-61.194,22.433-61.194,22.433l-7.022-59.695
	c-47.401,10.532-74.607,54.423-74.607,54.423l-10.532-60.564c-47.401,21.065-71.096,81.628-71.096,81.628l-12.294-73.726
	c-42.129,18.434-64.074,94.791-64.074,94.791l-21.065-55.292c-39.499,39.499-39.499,84.258-39.499,84.258l-34.239-37.738
	C2.285,205.873-2.095,226.022,0.845,253.239c3.82,35.381,19.898,66.693,43.7,90.102c10.425,10.259,22.326,18.994,35.334,25.896
	c0.847-8.013,2.616-15.414,5.13-22.286C71.533,324.787,63.692,298.93,63.418,271.354z"/>
<path style="fill:#F9DCB2;" d="M512,313.209c-0.226,0.309-6.046,7.914-16.994,18.125c-22.457,20.946-66.478,52.899-127.946,55.494
	v24.647c0,10.83-9.021,19.541-19.958,19.018c-10.247-0.476-18.125-9.295-18.125-19.553v-23.992H151.07
	c-1.892,0-3.784-0.048-5.677-0.119l-38.083-6.307c-9.556-2.88-18.744-6.664-27.432-11.282
	c7.271-68.811,80.426-93.922,143.56-102.681c41.296-5.724,78.308-4.463,89.816-3.856c1.202,0.155,2.428,0.226,3.677,0.226
	c0,0-1.285-0.095-3.677-0.226c-15.709-1.809-27.919-15.174-27.919-31.383c0-17.447,14.15-31.597,31.597-31.597
	c17.459,0,31.597,14.15,31.597,31.597c0,0,30.49-26.206,75.535-6.331c5.26,16.507,13.96,32.037,26.027,45.461
	c10.342,11.52,23.314,22.469,39.57,31.835C496.505,306.235,503.943,309.9,512,313.209z"/>
<path style="fill:#DDBB8E;" d="M181.024,334.868c-14.281-52.078,42.439-68.299,42.439-68.299l-0.024-0.012
	c-63.134,8.759-136.289,33.87-143.56,102.681c8.688,4.618,17.875,8.402,27.432,11.282v30.419c0,10.259,7.878,19.077,18.125,19.553
	c10.937,0.524,19.958-8.188,19.958-19.018v-24.647c1.892,0.071,3.784,0.119,5.677,0.119h30.133v23.992
	c0,10.259,7.878,19.077,18.125,19.553c10.937,0.524,19.958-8.2,19.958-19.018v-24.528h35.81v23.992
	c0,10.259,7.878,19.077,18.113,19.553c10.937,0.524,19.97-8.188,19.97-19.018v-24.528
	C293.178,386.947,195.305,386.947,181.024,334.868z"/>
<circle style="fill:#666666;" cx="395.311" cy="280.565" r="8.926"/>
<g>
	<path style="fill:#DDBB8E;" d="M315.9,213.877c-6.582,0-12.414,3.159-16.108,8.026c0.602-0.054,1.21-0.093,1.827-0.093
		c11.174,0,20.232,9.058,20.232,20.232c0,4.59-1.547,8.81-4.124,12.206c10.316-0.925,18.405-9.583,18.405-20.14
		C336.132,222.934,327.074,213.877,315.9,213.877z"/>
	<path style="fill:#DDBB8E;" d="M512,313.209c-0.226,0.309-6.046,7.914-16.994,18.125c-4.844-4.51-7.866-10.961-7.866-18.125
		c0-3.915,0.904-7.628,2.523-10.925C496.505,306.235,503.943,309.9,512,313.209z"/>
</g>
<g>
</g>
<g>
</g>
<g>
</g>
<g>
</g>
<g>
</g>
<g>
</g>
<g>
</g>
<g>
</g>
<g>
</g>
<g>
</g>
<g>
</g>
<g>
</g>
<g>
</g>
<g>
</g>
<g>
</g>
</svg>
