<?xml version="1.0" encoding="iso-8859-1"?>
<!-- Generator: Adobe Illustrator 19.0.0, SVG Export Plug-In . SVG Version: 6.00 Build 0)  -->
<svg version="1.1" id="Layer_1" xmlns="http://www.w3.org/2000/svg" xmlns:xlink="http://www.w3.org/1999/xlink" x="0px" y="0px"
	 viewBox="0 0 512 512" style="enable-background:new 0 0 512 512;" xml:space="preserve">
<path style="fill:#F8F8F8;" d="M437.101,512H74.899c-24.081,0-43.604-19.523-43.604-43.604V109.733
	c0-24.081,19.523-43.604,43.604-43.604h362.202c24.081,0,43.604,19.523,43.604,43.604v358.663
	C480.705,492.477,461.182,512,437.101,512z"/>
<path style="fill:#E1E1E4;" d="M437.101,66.128h-42.464c24.083,0,43.604,19.523,43.604,43.604v358.663
	c0,24.083-19.521,43.604-43.604,43.604h42.464c24.083,0,43.604-19.521,43.604-43.604V109.733
	C480.705,85.65,461.184,66.128,437.101,66.128z"/>
<path style="fill:#956EC4;" d="M480.705,202.644H31.295v-93.014c0-24.025,19.475-43.5,43.5-43.5h362.41
	c24.025,0,43.5,19.475,43.5,43.5V202.644z"/>
<path style="fill:#6D2C92;" d="M394.746,66.128h42.464c24.021,0,43.496,19.476,43.496,43.501v93.014h-42.464v-93.014
	C438.241,85.604,418.766,66.128,394.746,66.128z"/>
<g>
	<path style="fill:#FFD92D;" d="M142.321,123.853L142.321,123.853c-14.169,0-25.655-11.487-25.655-25.655V25.655
		C116.665,11.487,128.152,0,142.321,0l0,0c14.169,0,25.655,11.487,25.655,25.655v72.542
		C167.976,112.366,156.489,123.853,142.321,123.853z"/>
	<path style="fill:#FFD92D;" d="M365.256,123.853L365.256,123.853c-14.169,0-25.655-11.487-25.655-25.655V25.655
		C339.601,11.487,351.087,0,365.256,0l0,0c14.169,0,25.655,11.487,25.655,25.655v72.542
		C390.911,112.366,379.426,123.853,365.256,123.853z"/>
</g>
<g>
	<path style="fill:#956EC4;" d="M208.041,394.584c-7.136,0-14.075-2.649-19.372-7.957c-4.478-4.478-11.836-4.478-16.313,0
		c-4.499,4.489-4.499,11.836,0,16.325c9.796,9.786,22.852,14.895,35.685,14.895c13.055,0,26.11-5.109,35.907-14.895
		c9.996-9.996,14.895-23.051,14.895-35.907c0-12.844-4.898-25.899-14.895-35.696c-4.078-4.277-8.977-7.547-14.274-9.996
		l25.711-26.509c0.798-0.819,1.418-1.839,2.04-2.859c0.798-1.629,1.418-3.469,1.418-5.508c0-6.328-5.098-11.426-11.636-11.426
		h-60.155c-6.339,0-11.437,5.098-11.437,11.426c0,6.527,5.098,11.625,11.437,11.625h33.025l-20.79,21.211
		c-4.3,4.698-4.3,11.836,0.4,16.325c0,0.199,0,0.199,0.199,0.199c2.038,2.449,5.098,3.879,8.378,3.68
		c7.136,0.199,14.075,2.648,19.372,8.156c5.496,5.297,8.156,12.234,8.156,19.372c0,7.149-2.66,14.075-8.156,19.582
		C222.115,391.937,215.199,394.584,208.041,394.584z"/>
	<path style="fill:#956EC4;" d="M333.502,285.851c-0.222-5.996-5.14-10.792-11.19-10.792c-1.46,0-2.851,0.287-4.131,0.796
		c-0.053,0.007-0.107,0.018-0.107,0.018c-0.119,0.034-0.175,0.077-0.233,0.119c-0.497,0.217-0.971,0.474-1.429,0.758
		c-0.076,0.031-0.144,0.07-0.199,0.121c-0.056,0.037-0.115,0.066-0.171,0.104l-24.95,14.812c-5.297,3.058-7.136,10.196-3.657,15.294
		c2.038,3.668,5.697,5.708,9.574,5.708c1.839,0,3.879-0.4,5.718-1.629l8.156-4.688v100.361c0,6.317,4.899,11.216,11.216,11.216
		c6.118,0,11.415-4.899,11.415-11.216V286.479v-0.041c0.001-0.057,0.008-0.111,0.008-0.167c0-0.057-0.008-0.111-0.008-0.167
		c0-0.079,0-0.158,0-0.236L333.502,285.851z"/>
</g>
<g>
</g>
<g>
</g>
<g>
</g>
<g>
</g>
<g>
</g>
<g>
</g>
<g>
</g>
<g>
</g>
<g>
</g>
<g>
</g>
<g>
</g>
<g>
</g>
<g>
</g>
<g>
</g>
<g>
</g>
</svg>
