<svg width="58" height="14" viewBox="0 0 58 14" fill="none" xmlns="http://www.w3.org/2000/svg">
<path d="M9.548 0.399999H11.888V13H9.548V0.399999ZM3.032 13H0.692V0.399999H3.032V13ZM9.728 7.6H2.834V5.602H9.728V7.6ZM19.3683 13.126C18.3843 13.126 17.5083 12.916 16.7403 12.496C15.9723 12.064 15.3663 11.476 14.9223 10.732C14.4783 9.988 14.2563 9.142 14.2563 8.194C14.2563 7.234 14.4783 6.388 14.9223 5.656C15.3663 4.912 15.9723 4.33 16.7403 3.91C17.5083 3.49 18.3843 3.28 19.3683 3.28C20.3643 3.28 21.2463 3.49 22.0143 3.91C22.7943 4.33 23.4003 4.906 23.8323 5.638C24.2763 6.37 24.4983 7.222 24.4983 8.194C24.4983 9.142 24.2763 9.988 23.8323 10.732C23.4003 11.476 22.7943 12.064 22.0143 12.496C21.2463 12.916 20.3643 13.126 19.3683 13.126ZM19.3683 11.2C19.9203 11.2 20.4123 11.08 20.8443 10.84C21.2763 10.6 21.6123 10.252 21.8523 9.796C22.1043 9.34 22.2303 8.806 22.2303 8.194C22.2303 7.57 22.1043 7.036 21.8523 6.592C21.6123 6.136 21.2763 5.788 20.8443 5.548C20.4123 5.308 19.9263 5.188 19.3863 5.188C18.8343 5.188 18.3423 5.308 17.9103 5.548C17.4903 5.788 17.1543 6.136 16.9023 6.592C16.6503 7.036 16.5243 7.57 16.5243 8.194C16.5243 8.806 16.6503 9.34 16.9023 9.796C17.1543 10.252 17.4903 10.6 17.9103 10.84C18.3423 11.08 18.8283 11.2 19.3683 11.2ZM30.7178 13.126C29.9018 13.126 29.1818 12.976 28.5578 12.676C27.9338 12.364 27.4478 11.896 27.0998 11.272C26.7518 10.636 26.5778 9.838 26.5778 8.878V3.388H28.8278V8.572C28.8278 9.436 29.0198 10.084 29.4038 10.516C29.7998 10.936 30.3578 11.146 31.0778 11.146C31.6058 11.146 32.0618 11.038 32.4458 10.822C32.8418 10.606 33.1478 10.282 33.3638 9.85C33.5918 9.418 33.7058 8.884 33.7058 8.248V3.388H35.9558V13H33.8138V10.408L34.1918 11.2C33.8678 11.824 33.3938 12.304 32.7698 12.64C32.1458 12.964 31.4618 13.126 30.7178 13.126ZM41.8718 13.126C41.0678 13.126 40.2938 13.024 39.5498 12.82C38.8178 12.604 38.2358 12.346 37.8038 12.046L38.6678 10.336C39.0998 10.612 39.6158 10.84 40.2158 11.02C40.8158 11.2 41.4158 11.29 42.0158 11.29C42.7238 11.29 43.2338 11.194 43.5458 11.002C43.8698 10.81 44.0318 10.552 44.0318 10.228C44.0318 9.964 43.9238 9.766 43.7078 9.634C43.4918 9.49 43.2098 9.382 42.8618 9.31C42.5138 9.238 42.1238 9.172 41.6918 9.112C41.2718 9.052 40.8458 8.974 40.4138 8.878C39.9938 8.77 39.6098 8.62 39.2618 8.428C38.9138 8.224 38.6318 7.954 38.4158 7.618C38.1998 7.282 38.0918 6.838 38.0918 6.286C38.0918 5.674 38.2658 5.146 38.6138 4.702C38.9618 4.246 39.4478 3.898 40.0718 3.658C40.7078 3.406 41.4578 3.28 42.3218 3.28C42.9698 3.28 43.6238 3.352 44.2838 3.496C44.9438 3.64 45.4898 3.844 45.9218 4.108L45.0578 5.818C44.6018 5.542 44.1398 5.356 43.6718 5.26C43.2158 5.152 42.7598 5.098 42.3038 5.098C41.6198 5.098 41.1098 5.2 40.7738 5.404C40.4498 5.608 40.2878 5.866 40.2878 6.178C40.2878 6.466 40.3958 6.682 40.6118 6.826C40.8278 6.97 41.1098 7.084 41.4578 7.168C41.8058 7.252 42.1898 7.324 42.6098 7.384C43.0418 7.432 43.4678 7.51 43.8878 7.618C44.3078 7.726 44.6918 7.876 45.0398 8.068C45.3998 8.248 45.6878 8.506 45.9038 8.842C46.1198 9.178 46.2278 9.616 46.2278 10.156C46.2278 10.756 46.0478 11.278 45.6878 11.722C45.3398 12.166 44.8418 12.514 44.1938 12.766C43.5458 13.006 42.7718 13.126 41.8718 13.126ZM52.6835 13.126C51.6155 13.126 50.6795 12.916 49.8755 12.496C49.0835 12.064 48.4655 11.476 48.0215 10.732C47.5895 9.988 47.3735 9.142 47.3735 8.194C47.3735 7.234 47.5835 6.388 48.0035 5.656C48.4355 4.912 49.0235 4.33 49.7675 3.91C50.5235 3.49 51.3815 3.28 52.3415 3.28C53.2775 3.28 54.1115 3.484 54.8435 3.892C55.5755 4.3 56.1515 4.876 56.5715 5.62C56.9915 6.364 57.2015 7.24 57.2015 8.248C57.2015 8.344 57.1955 8.452 57.1835 8.572C57.1835 8.692 57.1775 8.806 57.1655 8.914H49.1555V7.42H55.9775L55.0955 7.888C55.1075 7.336 54.9935 6.85 54.7535 6.43C54.5135 6.01 54.1835 5.68 53.7635 5.44C53.3555 5.2 52.8815 5.08 52.3415 5.08C51.7895 5.08 51.3035 5.2 50.8835 5.44C50.4755 5.68 50.1515 6.016 49.9115 6.448C49.6835 6.868 49.5695 7.366 49.5695 7.942V8.302C49.5695 8.878 49.7015 9.388 49.9655 9.832C50.2295 10.276 50.6015 10.618 51.0815 10.858C51.5615 11.098 52.1135 11.218 52.7375 11.218C53.2775 11.218 53.7635 11.134 54.1955 10.966C54.6275 10.798 55.0115 10.534 55.3475 10.174L56.5535 11.56C56.1215 12.064 55.5755 12.454 54.9155 12.73C54.2675 12.994 53.5235 13.126 52.6835 13.126Z" fill="white"/>
</svg>
