<svg width="73" height="19" viewBox="0 0 73 19" fill="none" xmlns="http://www.w3.org/2000/svg">
<path d="M8.45597 0.770508H11.2382V13.9999H8.45597V8.56165H2.78945V13.9999H0.00720215V0.770508H2.78945V6.17212H8.45597V0.770508Z" fill="white"/>
<path d="M18.7503 14.183C17.7363 14.183 16.8367 13.9907 16.0515 13.6062C15.2663 13.2217 14.648 12.6571 14.1967 11.9125C13.7515 11.1678 13.5289 10.292 13.5289 9.28491C13.5289 7.77734 14.0112 6.58716 14.9757 5.71436C15.9402 4.84155 17.1984 4.40515 18.7503 4.40515C20.3084 4.40515 21.5697 4.84155 22.5342 5.71436C23.4987 6.58716 23.9809 7.77734 23.9809 9.28491C23.9809 10.7986 23.4987 11.9949 22.5342 12.8738C21.5697 13.7466 20.3084 14.183 18.7503 14.183ZM18.7225 12.0864C19.5015 12.0864 20.1291 11.8301 20.6051 11.3174C21.0874 10.8047 21.3285 10.1272 21.3285 9.28491C21.3285 8.44263 21.0874 7.76514 20.6051 7.25244C20.1291 6.73975 19.5015 6.4834 18.7225 6.4834C17.9744 6.4834 17.3623 6.7428 16.8862 7.2616C16.4163 7.77429 16.1814 8.44873 16.1814 9.28491C16.1814 10.1211 16.4163 10.7986 16.8862 11.3174C17.3623 11.8301 17.9744 12.0864 18.7225 12.0864Z" fill="white"/>
<path d="M32.2906 4.58826H34.9616V13.9999H32.4297L32.3648 12.8646C31.66 13.7435 30.6491 14.183 29.3321 14.183C28.1883 14.183 27.3104 13.9022 26.6983 13.3407C26.0862 12.7731 25.7801 11.9674 25.7801 10.9237V4.58826H28.4604V10.3561C28.4604 10.942 28.618 11.3723 28.9334 11.647C29.2549 11.9216 29.6691 12.059 30.1761 12.059C30.7944 12.059 31.2983 11.882 31.6878 11.528C32.0835 11.1678 32.2844 10.585 32.2906 9.7793V4.58826Z" fill="white"/>
<path d="M44.6902 4.58826L40.4982 11.9674H44.5603V13.9999H36.7051L40.8785 6.62073H37.0297V4.58826H44.6902Z" fill="white"/>
<path d="M47.8898 3.17834C47.4632 3.17834 47.0984 3.03186 46.7954 2.73889C46.4925 2.43982 46.341 2.07971 46.341 1.65857C46.341 1.24353 46.4925 0.889526 46.7954 0.596558C47.1045 0.297485 47.4693 0.147949 47.8898 0.147949C48.304 0.147949 48.6626 0.297485 48.9656 0.596558C49.2685 0.889526 49.42 1.24353 49.42 1.65857C49.42 2.07971 49.2685 2.43982 48.9656 2.73889C48.6626 3.03186 48.304 3.17834 47.8898 3.17834ZM46.5265 13.9999V4.58826H49.216V13.9999H46.5265Z" fill="white"/>
<path d="M57.6091 4.40515C58.7529 4.40515 59.6309 4.68896 60.243 5.25659C60.8551 5.81812 61.1611 6.62073 61.1611 7.66443V13.9999H58.4809V8.23206C58.4809 7.64001 58.3201 7.20667 57.9986 6.93201C57.6833 6.65735 57.2752 6.52002 56.7744 6.52002C56.4838 6.52002 56.218 6.55969 55.9768 6.63904C55.7357 6.71838 55.5131 6.84351 55.3091 7.0144C55.1051 7.1792 54.9443 7.41418 54.8268 7.71936C54.7156 8.02454 54.6568 8.3877 54.6506 8.80884V13.9999H51.9797V4.58826H54.6506V5.63196C55.3555 4.81409 56.3416 4.40515 57.6091 4.40515Z" fill="white"/>
<path d="M70.324 4.58826H72.8651V13.2949C72.8651 14.1921 72.7446 14.9734 72.5034 15.6387C72.2685 16.304 71.9253 16.838 71.474 17.2408C71.0226 17.6498 70.494 17.9519 69.8881 18.1472C69.2822 18.3425 68.5897 18.4402 67.8107 18.4402C65.2943 18.4402 63.6559 17.4667 62.8954 15.5197L65.1119 14.5858C65.3839 15.2023 65.7271 15.657 66.1413 15.95C66.5556 16.2429 67.078 16.3894 67.7087 16.3894C69.3595 16.3894 70.1849 15.422 70.1849 13.4872V12.3885C69.9005 12.7731 69.4986 13.0844 68.9792 13.3224C68.4661 13.5543 67.9034 13.6703 67.2913 13.6703C66.704 13.6703 66.1444 13.5604 65.6127 13.3407C65.0872 13.1149 64.6266 12.8036 64.2309 12.4069C63.8352 12.004 63.5198 11.5096 63.2849 10.9237C63.0561 10.3378 62.9417 9.703 62.9417 9.01941C62.9417 8.32971 63.0561 7.69495 63.2849 7.11511C63.5198 6.52917 63.8352 6.04089 64.2309 5.65027C64.6327 5.25964 65.0965 4.95447 65.622 4.73474C66.1537 4.51501 66.7163 4.40515 67.3099 4.40515C67.9653 4.40515 68.5526 4.53638 69.072 4.79883C69.5975 5.05518 69.9932 5.40002 70.2591 5.83337L70.324 4.58826ZM66.2248 10.8138C66.7009 11.296 67.2852 11.5371 67.9776 11.5371C68.6701 11.5371 69.2544 11.293 69.7304 10.8047C70.2065 10.3164 70.4446 9.72131 70.4446 9.01941C70.4446 8.3114 70.2065 7.71326 69.7304 7.22498C69.2606 6.73669 68.6763 6.49255 67.9776 6.49255C67.2728 6.49255 66.6854 6.73364 66.2155 7.21582C65.7518 7.69189 65.52 8.29309 65.52 9.01941C65.52 9.73352 65.7549 10.3317 66.2248 10.8138Z" fill="white"/>
</svg>
