<svg width="33" height="33" viewBox="0 0 33 33" fill="none" xmlns="http://www.w3.org/2000/svg">
<path d="M32.5 16.4881C32.5 12.7076 31.1812 9.22982 28.9806 6.48875L20.9363 20.4219H32.0101C32.3296 19.1629 32.5 17.8451 32.5 16.4881Z" fill="black"/>
<path d="M22.125 14.6131L27.6568 5.03163C24.7724 2.22194 20.8352 0.488068 16.5 0.488068C15.6761 0.488068 14.8666 0.550755 14.0758 0.671505L22.125 14.6131Z" fill="black"/>
<path d="M10.875 18.3631L5.3432 27.9444C8.22758 30.7542 12.1648 32.4881 16.5 32.4881C17.324 32.4881 18.1334 32.4254 18.9242 32.3047L10.875 18.3631Z" fill="black"/>
<path d="M15.3113 22.2969L20.8483 31.8873C25.6842 30.5199 29.5965 26.9306 31.4082 22.2969L15.3113 22.2969Z" fill="black"/>
<path d="M17.6887 10.6792L12.1517 1.08875C7.3158 2.45619 3.40349 6.0455 1.59174 10.6792H17.6887Z" fill="black"/>
<path d="M10.0631 16.0193L12.0638 12.5542H0.989938C0.670438 13.8132 0.5 15.1311 0.5 16.4881C0.5 20.2686 1.81881 23.7463 4.01938 26.4874L10.0631 16.0193Z" fill="black"/>
</svg>
