<svg width="33" height="33" viewBox="0 0 33 33" fill="none" xmlns="http://www.w3.org/2000/svg">
<path d="M31.6474 6.04821L27.2838 1.68089C26.1844 0.580504 24.2717 0.57839 23.168 1.683L3.61972 21.4242C3.53306 21.5116 3.47054 21.619 3.43644 21.7369L0.527397 31.9274C0.454988 32.1812 0.525965 32.4548 0.712783 32.6418C0.851261 32.7804 1.03665 32.8551 1.22701 32.8551C1.29376 32.8551 1.36126 32.8458 1.42658 32.8273L11.6084 29.9158C11.7263 29.8817 11.8335 29.8191 11.9209 29.7323L31.6474 10.1653C32.1972 9.61515 32.4997 8.88437 32.4997 8.10676C32.4997 7.32915 32.1972 6.59837 31.6474 6.04821Z" fill="black"/>
<path d="M8.69446 23.6276L7.69137 21.6207C7.56776 21.3742 7.31637 21.2187 7.04078 21.2187H5.8761L19.9944 6.97339L22.6715 9.65048L8.69446 23.6276Z" fill="#FFCA28"/>
<path d="M11.7298 25.6591L9.7229 24.656L23.6999 10.679L26.377 13.3561L12.1318 27.4744V26.3097C12.1318 26.0341 11.9762 25.7827 11.7298 25.6591Z" fill="#FFCA28"/>
<path d="M24.1942 2.73574C24.744 2.18599 25.7013 2.18599 26.251 2.73574L30.6147 7.09938C30.8895 7.37422 31.0408 7.73926 31.0408 8.12776C31.0408 8.51626 30.8895 8.88131 30.6168 9.15404L27.41 12.3322L21.0182 5.94035L24.1942 2.73574Z" fill="#D32F2F"/>
<path d="M8.17441 25.5091C8.10411 25.4739 7.88429 25.2541 7.84911 25.1838L6.59559 22.6767H4.68438L3.06567 28.3431L5.09429 30.27L10.6816 28.6739V26.7627L8.17441 25.5091Z" fill="#F2F2F2"/>
<path d="M5.09419 30.27L3.06565 28.3431L3.23324 27.7562L2.28592 31.0723L5.60201 30.1249L5.09419 30.27Z" fill="black"/>
<path opacity="0.1" d="M10.6815 26.7627L8.17438 25.5092C8.10408 25.474 8.06672 25.4015 8.01176 25.3466L2.28592 31.0724L10.6815 28.674V26.7627Z" fill="black"/>
<path opacity="0.1" d="M28.4372 4.92105L24.2184 9.1398L27.4144 12.3358L30.6212 9.1576C30.8939 8.88487 31.0452 8.51983 31.0452 8.13133C31.0452 7.74283 30.8939 7.37778 30.6191 7.10294L28.4372 4.92105Z" fill="black"/>
<path opacity="0.1" d="M11.7341 25.6625L9.72723 24.6594L23.7042 10.6824L26.3813 13.3595L12.1361 27.4778V26.3131C12.1361 26.0375 11.9805 25.7861 11.7341 25.6625Z" fill="black"/>
<path d="M31.6474 6.04821L27.2838 1.68089C26.1844 0.580504 24.2717 0.57839 23.168 1.683L3.61972 21.4242C3.53306 21.5116 3.47054 21.619 3.43644 21.7369L0.527397 31.9274C0.454988 32.1812 0.525965 32.4548 0.712783 32.6418C0.851261 32.7804 1.03665 32.8551 1.22701 32.8551C1.29376 32.8551 1.36126 32.8458 1.42658 32.8273L11.6084 29.9158C11.7263 29.8817 11.8335 29.8191 11.9209 29.7323L31.6474 10.1653C32.1972 9.61515 32.4997 8.88437 32.4997 8.10676C32.4997 7.32915 32.1972 6.59837 31.6474 6.04821Z" fill="url(#paint0_linear_1_210)"/>
<defs>
<linearGradient id="paint0_linear_1_210" x1="7.09132" y1="13.8767" x2="26.0045" y2="22.6924" gradientUnits="userSpaceOnUse">
<stop stop-color="white" stop-opacity="0.2"/>
<stop offset="1" stop-color="white" stop-opacity="0"/>
</linearGradient>
</defs>
</svg>
