<?xml version="1.0" ?><!DOCTYPE svg  PUBLIC '-//W3C//DTD SVG 1.1//EN'  'http://www.w3.org/Graphics/SVG/1.1/DTD/svg11.dtd'><svg width="16666.66px" height="16666.66px" viewBox="0 0 16666.66 16666.66" style="shape-rendering:geometricPrecision; text-rendering:geometricPrecision; image-rendering:optimizeQuality; fill-rule:evenodd; clip-rule:evenodd" version="1.1" xml:space="preserve" xmlns="http://www.w3.org/2000/svg" xmlns:xlink="http://www.w3.org/1999/xlink" xmlns:xodm="http://www.corel.com/coreldraw/odm/2003"><defs><style type="text/css">
   <![CDATA[
    .fil0 {fill:none}
    .fil2 {fill:black;fill-rule:nonzero}
    .fil3 {fill:#ACD4F7;fill-rule:nonzero}
    .fil4 {fill:#DEDEDE;fill-rule:nonzero}
    .fil1 {fill:white;fill-rule:nonzero}
   ]]>
  </style></defs><g id="Layer_x0020_1"><rect class="fil0" height="16666.66" width="16666.66" x="-0" y="-0"/><g id="_1315271410912"><polygon class="fil1" points="1404,15044.35 11862,15044.35 11862,11686.86 1404,11686.86 "/><path class="fil2" d="M1497.6 14950.74l10270.77 0 0 -3170.43 -10270.77 0 0 3170.43zm10364.37 187.2l-10457.97 0c-51.76,0 -93.6,-41.96 -93.6,-93.6l0 -3357.64c0,-51.64 41.85,-93.6 93.6,-93.6l10457.97 0c51.67,0 93.6,41.96 93.6,93.6l0 3357.64c0,51.64 -41.94,93.6 -93.6,93.6z"/><polygon class="fil1" points="1404,6185.56 11862,6185.56 11862,2827.98 1404,2827.98 "/><path class="fil2" d="M1497.6 6091.96l10270.77 0 0 -3170.31 -10270.77 0 0 3170.31zm10364.37 187.2l-10457.97 0c-51.63,0 -93.6,-41.96 -93.6,-93.6l0 -3357.55c0,-51.63 41.97,-93.6 93.6,-93.6l10457.97 0c51.67,0 93.6,41.97 93.6,93.6l0 3357.55c0,51.64 -41.94,93.6 -93.6,93.6z"/><polygon class="fil1" points="1404,10614.95 11862,10614.95 11862,7257.41 1404,7257.41 "/><path class="fil2" d="M1497.6 10521.35l10270.77 0 0 -3170.31 -10270.77 0 0 3170.31zm10364.37 187.2l-10457.97 0c-51.63,0 -93.6,-41.96 -93.6,-93.6l0 -3357.51c0,-51.67 41.97,-93.63 93.6,-93.63l10457.97 0c51.67,0 93.6,41.97 93.6,93.63l0 3357.51c0,51.64 -41.94,93.6 -93.6,93.6z"/><path class="fil1" d="M2713.98 8936.14c0,-228.75 185.47,-414.24 414.33,-414.24 228.75,0 414.25,185.5 414.25,414.24 0,228.84 -185.5,414.34 -414.25,414.34 -228.87,0 -414.33,-185.5 -414.33,-414.34z"/><path class="fil2" d="M3128.32 8615.49c-176.78,0 -320.73,143.87 -320.73,320.64 0,176.9 143.96,320.73 320.73,320.73 176.78,0 320.65,-143.83 320.65,-320.73 0,-176.78 -143.87,-320.64 -320.65,-320.64zm0 828.61c-280.07,0 -507.97,-227.89 -507.97,-507.97 0,-279.96 227.89,-507.85 507.97,-507.85 279.96,0 507.85,227.89 507.85,507.85 0,280.08 -227.89,507.97 -507.85,507.97z"/><path class="fil1" d="M2713.98 13365.53c0,-228.75 185.47,-414.24 414.33,-414.24 228.75,0 414.25,185.5 414.25,414.24 0,228.87 -185.5,414.34 -414.25,414.34 -228.87,0 -414.33,-185.47 -414.33,-414.34z"/><path class="fil2" d="M3128.32 13044.89c-176.78,0 -320.73,143.87 -320.73,320.64 0,176.78 143.96,320.64 320.73,320.64 176.78,0 320.65,-143.87 320.65,-320.64 0,-176.78 -143.87,-320.64 -320.65,-320.64zm0 828.61c-280.07,0 -507.97,-227.89 -507.97,-507.97 0,-279.96 227.89,-507.85 507.97,-507.85 279.96,0 507.85,227.89 507.85,507.85 0,280.08 -227.89,507.97 -507.85,507.97z"/><path class="fil1" d="M2713.98 13365.53c0,-228.75 185.47,-414.24 414.33,-414.24 228.75,0 414.25,185.5 414.25,414.24 0,228.87 -185.5,414.34 -414.25,414.34 -228.87,0 -414.33,-185.47 -414.33,-414.34z"/><path class="fil2" d="M3128.32 13044.89c-176.78,0 -320.73,143.87 -320.73,320.64 0,176.78 143.96,320.64 320.73,320.64 176.78,0 320.65,-143.87 320.65,-320.64 0,-176.78 -143.87,-320.64 -320.65,-320.64zm0 828.61c-280.07,0 -507.97,-227.89 -507.97,-507.97 0,-279.96 227.89,-507.85 507.97,-507.85 279.96,0 507.85,227.89 507.85,507.85 0,280.08 -227.89,507.97 -507.85,507.97z"/><path class="fil1" d="M4839.2 13365.53c0,-228.75 185.41,-414.24 414.24,-414.24 228.87,0 414.37,185.5 414.37,414.24 0,228.87 -185.5,414.34 -414.37,414.34 -228.84,0 -414.24,-185.47 -414.24,-414.34z"/><path class="fil2" d="M5253.44 13044.89c-176.78,0 -320.73,143.87 -320.73,320.64 0,176.78 143.96,320.64 320.73,320.64 176.9,0 320.73,-143.87 320.73,-320.64 0,-176.78 -143.83,-320.64 -320.73,-320.64zm0 828.61c-280.08,0 -507.97,-227.89 -507.97,-507.97 0,-279.96 227.89,-507.85 507.97,-507.85 280.08,0 507.97,227.89 507.97,507.85 0,280.08 -227.89,507.97 -507.97,507.97z"/><path class="fil1" d="M2713.98 4506.74c0,-228.75 185.47,-414.24 414.33,-414.24 228.75,0 414.25,185.5 414.25,414.24 0,228.84 -185.5,414.34 -414.25,414.34 -228.87,0 -414.33,-185.5 -414.33,-414.34z"/><path class="fil2" d="M3128.32 4186.1c-176.78,0 -320.73,143.96 -320.73,320.64 0,176.9 143.96,320.73 320.73,320.73 176.78,0 320.65,-143.83 320.65,-320.73 0,-176.68 -143.87,-320.64 -320.65,-320.64zm0 828.61c-280.07,0 -507.97,-227.89 -507.97,-507.97 0,-279.96 227.89,-507.85 507.97,-507.85 279.96,0 507.85,227.89 507.85,507.85 0,280.08 -227.89,507.97 -507.85,507.97z"/><path class="fil1" d="M4839.2 4506.74c0,-228.75 185.41,-414.24 414.24,-414.24 228.87,0 414.37,185.5 414.37,414.24 0,228.84 -185.5,414.34 -414.37,414.34 -228.84,0 -414.24,-185.5 -414.24,-414.34z"/><path class="fil2" d="M5253.44 4186.1c-176.78,0 -320.73,143.96 -320.73,320.64 0,176.9 143.96,320.73 320.73,320.73 176.9,0 320.73,-143.83 320.73,-320.73 0,-176.68 -143.83,-320.64 -320.73,-320.64zm0 828.61c-280.08,0 -507.97,-227.89 -507.97,-507.97 0,-279.96 227.89,-507.85 507.97,-507.85 280.08,0 507.97,227.89 507.97,507.85 0,280.08 -227.89,507.97 -507.97,507.97z"/><path class="fil1" d="M7988.09 3568.51c1118.36,-1850.01 3526.88,-2494.92 5379.46,-1440.62 1852.48,1054.43 2447.71,3408.85 1329.26,5258.86 -1118.48,1850.01 -3526.88,2494.92 -5379.49,1440.59 -1852.57,-1054.31 -2447.68,-3408.85 -1329.23,-5258.83z"/><path class="fil2" d="M8068.16 3616.92c-533.13,881.87 -686.58,1905.43 -432.21,2882.06 249.18,956.74 862.8,1754.67 1727.77,2247.03 587.24,334.31 1232.94,493.02 1874.2,493.02 1330.63,0.09 2642.76,-683.34 3378.71,-1900.7 533.16,-881.83 686.7,-1905.4 432.33,-2881.94 -249.18,-956.74 -862.8,-1754.89 -1727.77,-2247.15 -1805.79,-1027.96 -4162.34,-396.16 -5253.03,1407.68zm3168.78 5808.98c-672.67,0 -1349.79,-166.56 -1965.97,-517.21 -909.19,-517.43 -1554.23,-1356.56 -1816.22,-2362.47 -267.27,-1026.04 -106.29,-2100.69 453.19,-3026.23 1142.67,-1889.94 3612.43,-2550.99 5505.88,-1473.44 909.31,517.55 1554.23,1356.56 1816.34,2362.59 267.15,1025.94 106.2,2100.6 -453.32,3026.14 -770.69,1274.91 -2145.67,1990.62 -3539.9,1990.62z"/><path class="fil1" d="M14507.74 3126.27c-508.92,304.2 -1017.83,608.47 -1524.19,916.94 -763.19,464.93 -1503.66,1027.22 -2247.36,1523.12 428.13,424.49 1901.22,1825.06 2454.48,2383.48 176.14,177.75 352.15,355.59 528.07,533.56 381,-295.14 715.4,-662.15 978.06,-1096.61 840.75,-1390.57 713.02,-3066.27 -189.07,-4260.49z"/><path class="fil2" d="M10883.6 5580.11c188.4,184.65 489.79,474.82 831.3,803.63 569.18,547.99 1214.22,1169.14 1542.28,1500.22 156.55,157.96 312.89,315.88 469.24,473.96 355.47,-287.3 654.7,-629.87 890.22,-1019.6 783.41,-1295.56 728.42,-2890.75 -133.74,-4088.11 -477.5,285.48 -969.22,579.65 -1450.71,872.93 -472.56,287.95 -944.36,618.9 -1400.57,938.99 -245.09,171.96 -497.63,349.16 -748,517.97zm2835.06 2996.86c-24.22,0 -48.31,-9.37 -66.52,-27.88 -175.89,-177.84 -351.81,-355.68 -527.95,-533.44 -326.56,-329.46 -970.74,-949.76 -1539.07,-1497.1 -396.8,-381.95 -739.49,-711.95 -914.86,-885.71 -19.92,-19.92 -29.92,-47.58 -27.24,-75.55 2.68,-27.97 17.87,-53.37 41.2,-68.87 279.65,-186.44 564.45,-386.37 839.9,-579.61 458.68,-321.71 932.95,-654.4 1410.7,-945.55 506.66,-308.68 1024.3,-618.13 1524.83,-917.37 41.11,-24.52 94.06,-14.09 122.79,23.88 956.07,1265.89 1032.47,2979.44 194.4,4365.5 -261.65,432.85 -598.34,810.41 -1000.84,1122.02 -16.9,13.24 -37.12,19.67 -57.34,19.67z"/><path class="fil3" d="M10736.19 5566.33c592.76,-337.63 1193.24,-661.69 1802.56,-968.45 580.37,-292.25 1167.31,-571.14 1760.25,-836.57 160.12,-71.76 320.85,-143.96 482.47,-214.96 -321.28,-572.3 -797.5,-1067.58 -1413.93,-1418.44 -587.03,-334.09 -1229.93,-496.99 -1869.78,-505.59 -126.2,608.04 -239.72,1218.21 -359.93,1827.29 -139.23,704.75 -271.14,1410.61 -401.65,2116.73z"/><path class="fil2" d="M11573.62 1717.74c-76.61,372.28 -149.78,750.38 -220.57,1116.74 -40.9,211.12 -81.77,422.33 -123.4,633.2 -129.01,653.97 -251.13,1304.5 -364.87,1918.12 554.21,-312.26 1102.32,-605.02 1631.91,-871.53 578.42,-291.27 1171.82,-573.27 1764.03,-838.49l76.37 -34.22c103.39,-46.27 206.91,-92.63 310.97,-138.68 -321.07,-535.42 -777.92,-981.3 -1326.89,-1293.64 -529.9,-301.58 -1132.54,-470.82 -1747.56,-491.5zm-837.43 3942.22c-19.15,0 -38.09,-5.83 -54.32,-17.32 -29.61,-21.11 -44.35,-57.59 -37.79,-93.3 124.07,-671.3 258.67,-1392.28 401.89,-2117.8 41.63,-210.78 82.41,-421.78 123.19,-632.68 75.85,-392.07 154.3,-797.47 236.92,-1195.58 9.03,-43.46 47.33,-74.57 91.68,-74.57l1.19 0c673.22,9.03 1335.37,188.09 1914.86,517.85 608.68,346.48 1109.85,849.14 1449.22,1453.94 13.02,23.03 15.5,50.48 7.2,75.43 -8.39,25.07 -26.99,45.41 -51.09,56.06 -135.69,59.6 -270.83,120.2 -405.43,180.44l-76.4 34.22c-589.62,264.04 -1180.52,544.87 -1756.38,834.83 -582.42,293.19 -1187.54,618.26 -1798.47,966.2 -14.43,8.2 -30.35,12.29 -46.27,12.29z"/><path class="fil2" d="M11309.47 5800.78l-16.04 -4.39c-14.73,-8.94 -19.58,-28.09 -10.65,-42.82l224.57 -374.23c8.94,-14.73 28.18,-19.58 42.7,-10.77 14.85,8.85 19.7,28.09 10.77,42.82l-224.54 374.35c-5.82,9.67 -16.26,15.04 -26.81,15.04z"/><path class="fil2" d="M11623.34 6121.85l-15.61 -4.09c-14.94,-8.6 -20.13,-27.76 -11.5,-42.61l600.26 -1041.74c8.6,-14.94 27.66,-20.01 42.61,-11.41 14.94,8.63 20.13,27.66 11.53,42.61l-600.3 1041.74c-5.8,9.91 -16.26,15.5 -26.99,15.5z"/><path class="fil2" d="M11998.39 6447.43l-14.52 -3.54c-15.28,-8.08 -21.07,-26.9 -13.11,-42.06 287.15,-545.42 568.54,-1104.48 836.45,-1661.71 7.53,-15.61 26.14,-22.17 41.63,-14.55 15.62,7.44 22.05,26.05 14.64,41.54 -268.24,557.9 -550.03,1117.72 -837.43,1663.75 -5.7,10.56 -16.47,16.56 -27.66,16.56z"/><path class="fil2" d="M12340.87 6828.34l-13.54 -3.02c-15.49,-7.54 -22.05,-26.14 -14.64,-41.63l1108.23 -2312.78c7.44,-15.58 26.26,-22.05 41.63,-14.64 15.5,7.44 22.08,26.05 14.64,41.66l-1108.23 2312.66c-5.37,11.19 -16.47,17.75 -28.09,17.75z"/><path class="fil2" d="M12734.8 7183.51l-12.81 -2.8c-15.71,-6.98 -22.72,-25.5 -15.62,-41.2l1331.06 -2957.36c7.11,-15.83 25.83,-22.72 41.33,-15.71 15.7,7.07 22.69,25.59 15.61,41.3l-1331.09 2957.39c-5.15,11.5 -16.56,18.39 -28.48,18.39z"/><path class="fil2" d="M13136.02 7585.37l-12.17 -2.47c-15.83,-6.68 -23.33,-24.95 -16.56,-40.9l1530.11 -3634.66c6.68,-15.7 24.98,-23.24 40.9,-16.59 15.8,6.68 23.33,24.98 16.69,40.9l-1530.22 3634.57c-5.06,11.96 -16.59,19.16 -28.73,19.16z"/><path class="fil2" d="M13527.34 7867.83l-12.26 -2.59c-15.83,-6.77 -23.12,-25.19 -16.35,-40.99l1347.63 -3146c6.89,-15.92 25.19,-23.12 40.99,-16.35 15.83,6.77 23.15,25.17 16.38,40.99l-1347.66 3146c-5.06,11.83 -16.56,18.94 -28.73,18.94z"/><path class="fil2" d="M14222.85 7511.01l-12.6 -2.69c-15.83,-6.98 -22.91,-25.5 -15.92,-41.2 254.25,-570.37 509.89,-1152.33 759.84,-1729.91 6.77,-15.95 25.19,-23.24 40.99,-16.38 15.83,6.89 23.03,25.28 16.26,41.11 -250.07,577.79 -505.71,1159.99 -759.96,1730.58 -5.28,11.62 -16.68,18.48 -28.61,18.48z"/><path class="fil4" d="M11042.41 9794.42c-561.53,0 -1120.61,-113.52 -1629.65,-356.14 -684.62,-330.65 -1321.58,-823.34 -1717.22,-1481.15 -50.66,-86.83 -111.05,-168.72 -149.54,-262.11l-9.82 -22.27c-39.59,-71.76 -72.28,-145.79 -49.38,-229.39 9.06,-35.11 27.11,-66.52 51.21,-92.32l225.64 0c336.35,647.17 853.56,1185.58 1507.32,1557.65 616.18,350.65 1293.3,517.21 1965.97,517.21 177.87,0 355.41,-11.62 531.43,-34.65l0 364.99c-37.55,8.69 -77.56,10.74 -115.87,13.67 -136,11.19 -272.45,17.2 -408.88,19.67 -67.04,3.23 -134.04,4.85 -201.2,4.85z"/><path class="fil2" d="M11768.36 9756.24l0 -364.99c28.94,-3.75 57.89,-7.84 86.71,-12.26 89.21,78.02 113,230.15 16.38,320.98 -28.64,31.3 -64.57,47.33 -103.09,56.27zm-4004.72 -2405.2l-225.64 0c43.7,-46.91 106.87,-75.85 171.1,-75.85 5.49,0 10.95,0.21 16.44,0.64 12.5,25.28 25.07,50.35 38.09,75.21z"/><path class="fil4" d="M11238.34 9239.03c-0.09,0 -0.3,0 -0.43,0 -641.26,0 -1286.96,-158.72 -1874.2,-493.02 -656.56,-373.68 -1168.17,-923.37 -1485.7,-1584.97 0.34,-0.21 0.64,-0.43 0.85,-0.67 -1.07,-1.37 -2.13,-2.78 -3.2,-4.18 -99.64,-208.62 -180.13,-428.46 -239.73,-657.2 -28.3,-108.67 -51.54,-217.77 -69.72,-327.29 9.15,-1.52 18.51,-2.38 27.85,-2.38 27.33,0 54.69,6.98 79.3,22.17 36.39,21.29 63.8,56.7 75,97.35 38.95,107.08 30.56,86.19 49.63,130.33 144.26,298.47 253.36,393.35 458.77,649.12l8.6 5.7c129.13,130.81 50.78,76.28 174.3,198.4 147.83,152.04 311.61,287.49 468.38,430.04 207,196.81 891.96,595.23 1158.68,717.68 116.2,45.72 237.38,77.35 359.04,104.68 148.72,34.13 300.33,51.67 450.3,79.08l-2.9 -0.21c236.4,31.75 232.19,46.06 523.34,64.44 18.51,0.34 36.26,0.43 53.25,0.43 227.59,0 323.66,-19.58 457.4,-43.04 560.25,-138.38 744.55,-250.8 1136.41,-427.48 62.62,-30.1 120.96,-58.95 175.41,-86.62 119.41,120.63 238.84,241.25 358.18,361.85 -681.42,498.3 -1506.46,765.78 -2338.83,765.78z"/><path class="fil2" d="M11236.94 9425.9c-672.67,0 -1349.79,-166.56 -1965.97,-517.21 -653.76,-372.07 -1170.97,-910.47 -1507.32,-1557.65 -13.02,-24.86 -25.59,-49.93 -38.09,-75.21 14.21,1.19 28.52,3.75 42.39,7.84 15.19,3.45 28.85,8.63 41.54,14.76 1.62,-55.2 27.88,-104.58 68.53,-137.4 317.53,661.6 829.13,1211.29 1485.7,1584.97 587.24,334.31 1232.94,493.02 1874.2,493.02 0.12,0 0.33,0 0.43,0 832.37,0 1657.41,-267.48 2338.83,-765.78 24.95,25.29 50.02,50.57 74.97,75.85 6.37,6.46 13.45,11.86 20.98,16.04 -161.16,119.98 -336.87,219.93 -517.52,307.53 -377.04,174.39 -775.33,312.65 -1180.55,404.33 -233.17,35.93 -471.37,22.6 -706.8,28.4 -220.02,-5.58 -437.49,-44.01 -656.99,-57.34 -188.91,-15.16 -381.73,-18.94 -570.89,-41.11 345.28,104.8 703.9,150.12 1101.77,150.12 182.81,0 374.02,-9.58 575.98,-27.33 2.26,0 4.39,-0.12 6.65,-0.12 51.12,0 95.68,19.15 130.3,49.38 -28.82,4.42 -57.76,8.51 -86.71,12.26 -176.02,23.03 -353.55,34.65 -531.43,34.65zm-3194.5 -1745.95c26.47,46.05 53.34,91.89 78.87,138.37 127.7,189.59 132.86,190.99 316.95,396.07l26.69 24.95c-84.88,-105.65 -164.73,-219.5 -232.29,-337.2 -64.99,-72.74 -127.73,-147.41 -190.22,-222.19zm-166.77 -523.77c-60.6,-79.3 -118.8,-160.55 -173.24,-244.79 -86.5,-133.96 -168.51,-271.91 -227.13,-420.59 -22.81,-64.44 -61.46,-131.79 -41.42,-201.97 16.56,-62.83 71.65,-106.63 132.34,-117.15 18.18,109.52 41.42,218.62 69.72,327.29 59.6,228.75 140.09,448.59 239.73,657.2z"/><path class="fil4" d="M13726.41 8357.92c-111.48,-112.67 -222.95,-225.33 -334.43,-337.87 212.31,-117.57 358.52,-222.61 487.84,-352.79 86.95,-83.17 64.66,-57.34 193.03,-188.3 99.52,-105.1 193.33,-214.96 233.59,-263.82 -37.33,84.15 -74.78,168.3 -112.12,251.99 -6.98,15.7 0.09,34.22 15.92,41.2l12.6 2.69c11.93,0 23.33,-6.86 28.61,-18.48 71.56,-160.64 143.23,-322.14 214.87,-484.3 18.18,-27.63 40.02,-61.21 70.27,-106.29 60.45,-96.2 113.06,-197.03 157.07,-301.82 37.45,-91.65 64.02,-216.27 184.86,-216.27 1.19,0 2.26,0 3.44,0 62.74,3.44 105.13,30.89 128.25,70.06 -91.35,304.3 -222.5,601.45 -393.6,884.43 -53.77,89 -110.8,175.49 -171.17,259.43 -97.26,114.04 -192.18,214.02 -229.93,256.71 -77.59,93.09 -178.3,193.03 -296.64,292.89 6.44,9.03 12.14,18.72 16.9,28.82 -67.46,62.83 -137.31,123.43 -209.38,181.74z"/><path class="fil2" d="M13673.12 8565.14c-7.54,-4.18 -14.61,-9.58 -20.98,-16.04 -24.95,-25.28 -50.02,-50.57 -74.97,-75.85 -119.35,-120.59 -238.78,-241.22 -358.18,-361.85 62.4,-31.63 119.74,-61.97 172.99,-91.35 111.48,112.54 222.95,225.21 334.43,337.87 72.07,-58.31 141.91,-118.92 209.38,-181.74 21.07,44.86 24.31,98.57 1.71,142.58 -20.86,60.24 -82.62,92.51 -126.33,135.33 -44.53,38.86 -90.67,75.89 -138.04,111.05zm772.34 -967.39c60.36,-83.94 117.39,-170.43 171.17,-259.43 171.1,-282.98 302.25,-580.13 393.6,-884.43 31.32,52.83 27.97,127.19 -7.11,192.82 -50.23,133.53 -106.93,264.89 -177.2,389.17 -82.41,137.28 -165.28,274.59 -255.43,406.71 -38.95,51.97 -82.2,105.01 -125.02,155.15z"/><path class="fil2" d="M14222.85 7511.01l-12.6 -2.69c-15.83,-6.98 -22.91,-25.5 -15.92,-41.2 37.33,-83.69 74.79,-167.84 112.12,-251.99 13.54,-16.56 21.07,-26.05 20.56,-26.05 -0.12,0 -0.55,0.33 -1.19,0.98 72.41,-80.91 95.56,-113.52 140.51,-181.84 -71.64,162.17 -143.31,323.66 -214.87,484.3 -5.28,11.62 -16.68,18.48 -28.61,18.48z"/><polygon class="fil4" points="10876.28,8603.99 10876.07,8603.87 "/></g></g></svg>