<?xml version="1.0" ?><!DOCTYPE svg  PUBLIC '-//W3C//DTD SVG 1.1//EN'  'http://www.w3.org/Graphics/SVG/1.1/DTD/svg11.dtd'><svg width="16666.66px" height="16666.66px" viewBox="0 0 16666.66 16666.66" style="shape-rendering:geometricPrecision; text-rendering:geometricPrecision; image-rendering:optimizeQuality; fill-rule:evenodd; clip-rule:evenodd" version="1.1" xml:space="preserve" xmlns="http://www.w3.org/2000/svg" xmlns:xlink="http://www.w3.org/1999/xlink" xmlns:xodm="http://www.corel.com/coreldraw/odm/2003"><defs><style type="text/css">
   <![CDATA[
    .fil0 {fill:none}
    .fil2 {fill:black;fill-rule:nonzero}
    .fil5 {fill:#96B9D7;fill-rule:nonzero}
    .fil1 {fill:#ACD4F7;fill-rule:nonzero}
    .fil4 {fill:#DEDEDE;fill-rule:nonzero}
    .fil3 {fill:white;fill-rule:nonzero}
   ]]>
  </style></defs><g id="Layer_x0020_1"><rect class="fil0" height="16666.66" width="16666.66" x="-0" y="-0"/><g id="_1316253512688"><polygon class="fil1" points="8362.45,5439.56 6238.32,2280.46 4114.17,5439.56 5309.96,5439.56 5309.96,11698.32 7166.69,11698.32 7166.69,5439.56 "/><path class="fil2" d="M5386.73 11621.55l1703.19 0 0 -6181.99c0,-42.35 34.32,-76.77 76.77,-76.77l1051.67 0 -1980.04 -2944.75 -1980.03 2944.75 1051.67 0c42.43,0 76.77,34.42 76.77,76.77l0 6181.99zm1779.96 153.57l-1856.74 0c-42.38,0 -76.7,-34.42 -76.7,-76.8l0 -6181.96 -1119.09 0c-28.32,0 -54.43,-15.63 -67.77,-40.7 -13.33,-25.06 -11.73,-55.33 4.05,-78.9l2124.15 -3159.18c28.49,-42.37 98.91,-42.37 127.43,0l2124.13 3159.18c15.88,23.56 17.38,53.83 4.07,78.9 -13.33,25.07 -39.37,40.7 -67.79,40.7l-1118.98 0 0 6181.96c0,42.38 -34.42,76.8 -76.77,76.8z"/><polygon class="fil3" points="4236.4,7573.14 3007.97,5917.18 1779.57,7573.14 2471.07,7573.14 2471.07,10854.15 3544.87,10854.15 3544.87,7573.14 "/><path class="fil2" d="M2547.86 10777.38l920.24 0 0 -3204.24c0,-42.35 34.35,-76.77 76.77,-76.77l539.03 0 -1075.94 -1450.44 -1075.83 1450.44 538.93 0c42.45,0 76.8,34.42 76.8,76.77l0 3204.24zm997.01 153.55l-1073.81 0c-42.35,0 -76.77,-34.42 -76.77,-76.77l0 -3204.21 -614.73 0c-29.04,0 -55.51,-16.33 -68.57,-42.2 -13.06,-25.94 -10.33,-57.01 6.96,-80.3l1228.42 -1656.07c28.94,-39.1 94.33,-39.1 123.28,0l1228.43 1656.07c17.28,23.29 19.94,54.36 6.88,80.3 -13.06,25.87 -39.52,42.2 -68.57,42.2l-614.73 0 0 3204.21c0,42.35 -34.42,76.77 -76.8,76.77z"/><path class="fil3" d="M2959.61 14196.37c2087.43,23.21 4174.78,46.43 6262.11,69.64 572.83,6.35 1152.53,11.98 1709.55,-121.7 557.04,-133.78 1097.92,-423.59 1419.04,-897.92 321.05,-474.34 374.35,-1151.03 33.02,-1610.99 -274.82,-370.38 -761.52,-547.48 -1221.72,-517.57 -460.21,29.99 -637.24,142.69 -997.83,430.29 82.17,-262.26 138.28,-404.17 116.15,-718.52 -22.17,-314.24 -178.61,-607.24 -384.94,-845.42 -540.43,-624.01 -1454.79,-895.72 -2248.3,-668.31 -793.63,227.51 -1425.05,942.4 -1552.83,1758 -209.95,-808.97 -1227.37,-1264.35 -2001.3,-948.58 -773.85,315.67 -1189.23,1272.88 -967.29,2078.7 -182.14,-348.94 -624.46,-513.44 -1010.62,-437.37 -386.19,76.07 -710.24,355.54 -915.59,691.35 -112.59,184.16 -196.27,397.64 -171.46,612.07 40.93,353.89 358.37,608.75 675.96,770.15 503.63,256.11 1071.78,354.14 1256.04,356.17z"/><path class="fil2" d="M2960.52 14119.6l6262.11 69.64c560.37,6.35 1139.55,12.71 1690.74,-119.67 605.92,-145.44 1093.67,-453.08 1373.34,-866.26 321.93,-475.46 336.66,-1115.63 35.02,-1522.11 -245.33,-330.68 -687.62,-517.14 -1155.08,-486.77 -436.22,28.42 -599.47,130.15 -954.93,413.8 -26.39,20.99 -63.46,22.31 -91.26,3.25 -27.89,-19.06 -39.98,-54.08 -29.92,-86.3l20.04 -63.37c69.81,-220.36 111.99,-353.26 92.76,-626.83 -23.91,-339.59 -212.43,-622.76 -366.32,-800.49 -517.49,-597.37 -1409.41,-862.8 -2169.15,-644.74 -759.81,217.71 -1375.79,915.13 -1498.19,1696.04 -5.56,35.92 -35.65,63.01 -72.02,64.79 -36.62,1.57 -68.99,-22.16 -78.1,-57.39 -89.48,-344.78 -346.71,-645.8 -705.63,-825.73 -383.96,-192.47 -829.7,-219.11 -1192.23,-71.12 -716.21,292.18 -1138.57,1202.21 -922.29,1987.27 10.33,37.77 -9.43,77.47 -45.98,91.78 -36.45,14.56 -78,-1.07 -96.11,-35.92 -156.72,-299.96 -555.59,-470.99 -927.84,-397.47 -335.08,65.99 -650.37,305.16 -864.91,656.03 -126.03,206.15 -180.04,395.61 -160.7,563.19 39.45,340.83 366.85,574.5 634.49,710.59 475.04,241.44 1030.41,345.66 1222.17,347.79zm6624.98 225.84c-122.15,0 -243.83,-1.33 -364.55,-2.75l-6262.13 -69.54c-183.54,-2.03 -763.17,-96.61 -1290.02,-364.45 -301.26,-153.12 -670.24,-421.31 -717.44,-829.81 -23.49,-202.52 37.85,-424.91 182.21,-660.98 236.87,-387.51 589.06,-652.32 966.24,-726.65 328.28,-64.76 665.48,28.52 895.65,228.57 -74.67,-782.58 362.17,-1577.62 1068.16,-1865.67 403.02,-164.48 896.07,-136.06 1319.03,76 310.22,155.57 552.36,394.12 691.97,674.91 210.73,-738.63 807.37,-1349.85 1550.88,-1562.96 828.2,-237.39 1763.45,40.68 2327.55,691.87 169.18,195.37 376.56,508.49 403.4,890.24 15.78,223.54 -6.35,364.72 -48.28,515.72 262.61,-191.59 458.88,-273.39 848.5,-298.71 518.39,-33.82 1012.22,176.41 1288.34,548.46 339.23,457.13 326.17,1171.94 -31.15,1699.74 -301.18,444.94 -821.4,775 -1464.65,929.44 -448.93,107.84 -909.86,126.56 -1363.71,126.56z"/><path class="fil4" d="M6304.94 14313.85c-11.56,0 -22.42,-1.33 -32.65,-3.88l142.79 1.57c-35.65,0.8 -71.22,1.5 -106.87,2.3 -1.07,0 -2.2,0 -3.28,0z"/><path class="fil4" d="M9584.8 14191.87c-121.28,0 -242.17,-1.33 -362.17,-2.63l-3048.64 -33.89c0.35,-3.18 0.8,-6.35 1.4,-9.53 -87.88,1.4 -175.68,3.8 -263.59,6.6l-2457.98 -27.34c-77.22,-5.93 -154.44,-12.35 -231.84,-16.51 -185.21,-3.63 -371.18,-1.68 -554.64,-31.67 -104.49,-20.56 -209.15,-44.13 -314.34,-69.02 -196.69,-55.78 -412.9,-133.53 -614.65,-236.07 -78.1,-39.7 -161.4,-87.8 -241,-144.37 8.03,-50.76 36.09,-98.06 86.13,-125.4 27.79,-17.74 57.46,-24.09 87.8,-24.09 40.6,0 82.35,11.28 121.98,21.33 118.87,27.54 239.5,46.33 358.54,72.9 352.19,72.47 525.87,118.52 654.45,126.55 269.24,13.41 538.93,12.18 807.92,34.77 415.56,4.85 831.21,0.35 1246.76,15.89 124.43,8.3 248.78,11.2 373.2,11.2 283.37,0 566.82,-15.26 850.44,-17.83 130.88,-1.23 261.76,-1.75 392.72,-1.75 514.76,0 1029.61,8.48 1544.35,18.01 343.04,4.68 686.39,-6.35 1028.63,23.36 56.48,3.91 113.04,5.48 169.53,5.48 178.68,0 357.5,-15.19 536.28,-15.78 507.78,-12.28 1144.75,3 1509.67,-74.92 146.49,-33.72 297.38,-55.26 438.59,-108.12l7.93 -3.7c35.75,-24.96 74.5,-36.62 110.67,-36.62 40.78,0 78.2,14.73 104.31,41.75 -270.31,218.76 -616.78,383.79 -1013.89,479.09 -433.22,104.04 -883.54,122.3 -1328.56,122.3z"/><path class="fil4" d="M11787.82 13876.93c38.75,-24.09 76.52,-48.98 113.22,-74.75 -30.44,27.44 -68.92,52.23 -113.22,74.75z"/><path class="fil2" d="M6415.08 14311.54l-142.79 -1.57c-69.54,-17.31 -106.17,-89.33 -98.31,-154.62l3048.64 33.89c120,1.3 240.9,2.63 362.17,2.63 445.02,0 895.35,-18.26 1328.56,-122.3 397.12,-95.31 743.58,-260.33 1013.89,-479.09 29.47,30.52 44.48,76.77 33.17,135.11 -12.96,27.52 -33.17,53.03 -59.39,76.59 -36.7,25.77 -74.47,50.66 -113.22,74.75 -162.72,82.32 -404.87,133.16 -622.86,164.4 -23.21,44.02 -68.92,77.12 -120.2,87.9 -78,30.17 -158.22,53.91 -240.12,70.59 -289.28,57.89 -586.51,53.56 -880.02,70.69 -194.24,14.81 -388.39,19.94 -582.61,19.94 -309.84,0 -619.78,-13.06 -929.69,-20.66 -665.76,11.93 -1331.52,27.54 -1997.25,41.75zm-1183.33 -140.76c-468.06,-16.24 -936.32,-30.8 -1404.73,-30.8 -20.31,0 -40.7,0 -60.99,0.1 -1.33,0 -2.65,0 -4.06,0 -102.99,0 -205.63,-7.08 -308.16,-15.01l2457.98 27.34c-226.61,7.15 -453.25,16.86 -680.04,18.36zm-2878.76 -162.9c-239.24,-56.56 -480.59,-120.02 -725.67,-170.23 -97.58,-23.49 -144.01,-122.15 -129.98,-210.2 79.6,56.56 162.9,104.67 241,144.37 201.75,102.54 417.96,180.28 614.65,236.07z"/><path class="fil3" d="M12189.79 11748.98c536.1,527.47 1072.13,1054.85 1608.16,1582.12 283.17,278.62 567,557.74 875.51,799.36 166.35,130.36 351.49,253.53 553.94,253.63 202.52,0.07 417.58,-170.58 416,-399.42 -1.25,-178.43 -124.43,-321.85 -239.87,-443.62 -853.52,-900.22 -1745.64,-1753.78 -2672.06,-2556.64 -169.81,248.78 -339.58,497.63 -541.68,764.57z"/><path class="fil2" d="M12291.55 11741.5l1560.31 1534.89c277.09,272.69 563.74,554.64 868.91,793.71 157.25,123.1 327.48,237.12 506.71,237.22l0.17 0c87.73,0 179.94,-40.15 246.85,-107.49 59.91,-60.29 92.66,-136.54 92.13,-214.63 -0.98,-149.22 -108.64,-275.14 -218.78,-391.29 -828.56,-873.91 -1703.54,-1713 -2601.57,-2494.95 -141.89,207.65 -288.48,420.16 -454.73,642.54zm2936.1 2719.37l-0.25 0c-225.74,-0.1 -422.36,-129.81 -601.24,-269.94 -312.04,-244.37 -601.77,-529.43 -882.04,-805.02l-1608.16 -1582.12c-27.54,-27.09 -30.62,-70.32 -7.41,-101.04 200.32,-264.74 372.06,-516.27 537.96,-759.39 12.35,-18.09 32.64,-31.15 54.36,-33.97 21.64,-3 44.3,2.65 60.89,17.04 924.67,801.29 1825.52,1663.22 2677.46,2561.77 125.58,132.38 259.63,290.85 260.96,496.03 0.8,119.32 -47.76,234.31 -136.71,323.87 -95.13,95.69 -228.11,152.77 -355.82,152.77z"/><path class="fil3" d="M10097.86 11799.28c-1402.26,0 -2539.08,-1136.72 -2539.08,-2539.08 0,-1402.26 1136.82,-2539.08 2539.08,-2539.08 1402.28,0 2539.08,1136.82 2539.08,2539.08 0,1402.36 -1136.8,2539.08 -2539.08,2539.08zm0 0c-1402.26,0 -2539.08,-1136.72 -2539.08,-2539.08 0,-1402.26 1136.82,-2539.08 2539.08,-2539.08 1402.28,0 2539.08,1136.82 2539.08,2539.08 0,1402.36 -1136.8,2539.08 -2539.08,2539.08zm0 -5882.2c-1846.33,0 -3343.12,1496.79 -3343.12,3343.12 0,1846.33 1496.79,3343.12 3343.12,3343.12 1846.33,0 3343.12,-1496.79 3343.12,-3343.12 0,-1846.33 -1496.79,-3343.12 -3343.12,-3343.12z"/><path class="fil2" d="M7635.55 9260.2c0,1357.7 1104.6,2462.31 2462.31,2462.31 1357.81,0 2462.31,-1104.6 2462.31,-2462.31 0,-1357.7 -1104.5,-2462.31 -2462.31,-2462.31 -1357.7,0 -2462.31,1104.6 -2462.31,2462.31zm2462.31 2615.85c-1442.41,0 -2615.85,-1173.42 -2615.85,-2615.85 0,-1442.43 1173.44,-2615.85 2615.85,-2615.85 1442.43,0 2615.88,1173.42 2615.88,2615.85 0,1442.43 -1173.44,2615.85 -2615.88,2615.85zm0 -5882.2c-1801.05,0 -3266.35,1465.37 -3266.35,3266.35 0,1801.05 1465.3,3266.35 3266.35,3266.35 1801.08,0 3266.35,-1465.3 3266.35,-3266.35 0,-1800.98 -1465.27,-3266.35 -3266.35,-3266.35zm0 6686.24c-1885.68,0 -3419.89,-1534.19 -3419.89,-3419.89 0,-1885.7 1534.21,-3419.89 3419.89,-3419.89 1885.7,0 3419.89,1534.19 3419.89,3419.89 0,1885.7 -1534.19,3419.89 -3419.89,3419.89z"/><path class="fil2" d="M12620.88 11844.91l-7.06 -1.05c-13.58,-3.8 -21.44,-18.01 -17.56,-31.59l58.86 -205.88c3.87,-13.61 18.19,-21.64 31.59,-17.58 13.58,3.9 21.44,18.11 17.66,31.69l-58.86 205.8c-3.28,11.28 -13.51,18.61 -24.64,18.61z"/><path class="fil2" d="M12902.13 12205.41l-3.35 -0.28c-13.94,-1.85 -23.81,-14.63 -21.96,-28.67 31.32,-240.3 69.27,-483.35 112.69,-722.31 2.48,-13.93 15.89,-22.87 29.74,-20.56 13.93,2.48 23.11,15.81 20.64,29.74 -43.23,238.09 -81.1,480.24 -112.42,719.76 -1.67,12.88 -12.63,22.31 -25.34,22.31z"/><path class="fil2" d="M13267.3 12555.22c-14.11,0 -25.59,-11.46 -25.59,-25.59 0,-120.45 18.54,-322.37 34.87,-500.53 9.96,-108.64 18.54,-202.45 21.52,-261.49 0.72,-14.03 12.28,-26.22 26.84,-24.19 14.11,0.7 24.97,12.63 24.27,26.84 -3,59.98 -11.66,154.24 -21.61,263.41 -16.24,177.11 -34.7,377.88 -34.7,495.96 0,14.13 -11.38,25.59 -25.59,25.59z"/><path class="fil2" d="M13641.21 12899.93c-13.83,0 -25.31,-11.13 -25.59,-25.06l-19.24 -853.8c-0.35,-14.13 10.86,-25.87 24.99,-26.22l0.52 0c13.94,0 25.32,11.11 25.67,24.96l19.26 853.9c0.25,14.11 -10.96,25.87 -25.07,26.22l-0.55 0z"/><path class="fil2" d="M13997.02 13277.54c-13.66,0 -25.04,-10.85 -25.59,-24.61l-33.44 -894.15c-0.52,-14.11 10.51,-26.02 24.64,-26.56 14.73,-0.78 26.02,10.5 26.54,24.64l33.47 894.22c0.52,14.03 -10.51,25.94 -24.64,26.46l-0.98 0z"/><path class="fil2" d="M14359.12 13595.86c-13.51,0 -24.79,-10.5 -25.59,-24.19l-45.18 -835.26c-0.72,-14.13 10.06,-26.14 24.17,-26.92 13.41,-1.6 26.22,9.96 27.02,24.17l45.18 835.18c0.7,14.21 -10.06,26.22 -24.19,27.02l-1.4 0z"/><path class="fil2" d="M14717.66 13890.16c-13.23,0 -24.44,-10.23 -25.49,-23.67l-62.74 -813.2c-1.07,-14.11 9.43,-26.39 23.54,-27.44 14.39,-2.3 26.39,9.43 27.54,23.56l62.66 813.2c1.15,14.04 -9.46,26.39 -23.49,27.37l-2.03 0.18z"/><path class="fil2" d="M15057.07 14154.47c-12.96,0 -24.09,-9.81 -25.42,-22.96l-73.32 -713.21c-1.5,-14.04 8.73,-26.57 22.84,-27.97 14.04,-1.88 26.57,8.73 28.07,22.84l73.35 713.14c1.4,14.03 -8.83,26.57 -22.87,28.07l-2.65 0.1z"/><path class="fil2" d="M15389.43 14116.52c-12.36,0 -23.22,-8.93 -25.24,-21.46l-51.53 -318.65c-2.23,-13.96 7.23,-27.09 21.26,-29.32 13.86,-2.38 27.09,7.26 29.3,21.09l51.46 318.67c2.28,13.96 -7.15,27.09 -21.19,29.39l-4.05 0.28z"/><path class="fil4" d="M10097.86 11722.51c-1357.7,0 -2462.31,-1104.6 -2462.31,-2462.31 0,-116.92 8.2,-232.02 24.02,-344.68 24.86,85.57 52.5,170.3 82.43,254.15 -0.18,133.86 14.81,188.92 63.16,346.46 32.92,114.62 64.17,229.52 105.74,341.43 41.2,108.89 109.69,348.04 309.74,621.61l0.1 0.17c185.84,224.96 459.41,465.86 582.18,552.02 289.1,194.74 422.71,270.56 699.53,334.98 179.41,44.48 336.85,60.63 478.84,60.63 170.76,0 319.09,-23.39 456.15,-48.98 528.6,-97.36 842.69,-207.75 1260.62,-510.16 13.96,-8.65 28.42,-14.13 42.9,-16.96 81.9,-62.46 162.37,-128.4 246.3,-203.32 96.89,-92.13 268.54,-285.13 281.6,-309.39 49.33,-58.16 83.13,-130.78 127.08,-193.54 -356.09,922.11 -1251.89,1577.89 -2298.08,1577.89zm-2047.53 -836.06c-4.33,-4.68 -8.66,-9.35 -13.06,-14.21 -185.34,-208.28 -289.3,-417.6 -359.97,-620.2 94.33,229.52 220.61,442.92 373.03,634.41zm4127.9 -42c106.96,-140.24 200.15,-291.5 277.44,-451.75 -6.25,17.39 -12.53,34.77 -18.79,52.23 -36.9,85.43 -76.17,170.06 -116.85,254.08 -38.92,44.48 -86.93,93.7 -141.81,145.44z"/><path class="fil2" d="M10013.86 11805.04c-95.48,0 -190.97,-7.68 -285.22,-24.89l-2.56 -0.53c-153.22,-18.01 -307.46,-36.02 -455.8,-79.07 -271.54,-88.26 -516.52,-240.12 -746.86,-406.22 -96.88,-79.85 -250.28,-165.8 -473.09,-407.88 -152.42,-191.49 -278.7,-404.9 -373.03,-634.41 -38.05,-108.91 -66.46,-215.96 -92.65,-319.82 -43.78,-343.98 -50.13,-690.45 -5.41,-1035.96 3.63,-0.25 7.26,-0.43 10.86,-0.43 23.49,0 46.78,5.48 68.14,15.19 0.43,1.5 0.87,3 1.33,4.5 -15.81,112.67 -24.02,227.76 -24.02,344.68 0,1357.7 1104.6,2462.31 2462.31,2462.31 1046.19,0 1941.99,-655.78 2298.08,-1577.89 19.59,-27.87 41.2,-53.83 66.99,-75.7 19.48,-11.66 41.12,-17.04 62.64,-17.04 16.78,0 33.44,3.25 49.08,9.35 -39.2,110.57 -79.07,220.96 -118.97,331.45 -77.3,160.25 -170.48,311.52 -277.44,451.75 -165.83,156.27 -393.31,335.16 -615.53,473.44 -45.73,34.42 -79.6,57.98 -177.31,118.25 -240.65,127.25 -503.89,207.83 -767.5,272.62 -126.98,34.15 -253.53,72.62 -385.18,83.57 -72.72,8.2 -145.79,12.71 -218.86,12.71z"/><path class="fil4" d="M10086.58 12987.03c-427.31,0 -969.34,-169.35 -1210.34,-282.57 -241.28,-87.2 -477.42,-192.22 -705.53,-309.31 -158.15,-95.13 -293.01,-222.74 -431.64,-343.28 -182.48,-160.35 -323.52,-361.75 -476.89,-548.84 -48.88,-76.42 -180.74,-185.84 -272.24,-432.41 -25.17,-86.56 32.2,-157.42 103.06,-178.68 580.23,1064.45 1709.55,1788.17 3004.87,1788.17 814.9,0 1564.11,-286.45 2152.22,-764.07l176.48 173.68c-1.57,17.21 -6.25,34.32 -14.38,50.48 -18.19,56.39 -74.47,86.06 -118.35,121.07 -155.39,112.69 -312.67,223.81 -486.5,306.59 -202.45,97.94 -407.45,196.52 -623.76,259.78 -344.79,74.95 -696.35,127.88 -1047.84,158.6 -16.26,0.53 -32.57,0.8 -49.16,0.8z"/><path class="fil4" d="M12577.73 12022.99l-210.11 -206.75c196.97,-175.11 373.56,-372.5 525.95,-588.36 83.13,73.15 166.07,146.84 248.78,220.96 -2.83,5.93 -6,11.76 -9.53,17.48 -35.57,58.59 -77.75,113.04 -122.5,165.1 9.53,-56.21 19.41,-112.24 29.57,-168.1 2.48,-13.94 -6.7,-27.27 -20.64,-29.74 -1.43,-0.25 -2.93,-0.35 -4.33,-0.35 -12.19,0 -23.22,8.48 -25.42,20.91 -15.19,83.4 -29.67,167.33 -43.43,251.33 -98.56,127 -220.01,235.8 -361.3,313.47 -2.28,1.4 -4.68,2.72 -7.05,4.05zm101.83 -435.24c-10.93,0 -21.26,7.41 -24.44,18.63l-58.86 205.88c-3.88,13.58 3.98,27.79 17.56,31.59l7.06 1.05c11.13,0 21.36,-7.33 24.64,-18.61l58.86 -205.8c3.78,-13.58 -4.07,-27.79 -17.66,-31.69 -2.38,-0.7 -4.76,-1.05 -7.16,-1.05z"/><path class="fil2" d="M12426.56 12089.71l-176.48 -173.68c39.87,-32.3 79.15,-65.64 117.55,-99.79l210.11 206.75c-34.77,18.89 -70.07,27.27 -104.14,27.27 -16.76,0 -33.27,-2.03 -49.33,-5.83 2.83,14.94 3.72,30.2 2.3,45.28zm715.79 -640.87c-82.7,-74.12 -165.65,-147.81 -248.78,-220.96 17.74,-25.24 35.22,-50.66 52.33,-76.35 1.68,-0.07 3.35,-0.07 5.03,-0.07 18.09,0 37.15,2.65 57.19,8.45 122.4,32.32 188.14,176.68 134.23,288.93z"/><path class="fil2" d="M10097.86 12680.1c-1295.32,0 -2424.63,-723.72 -3004.87,-1788.17 14.13,-4.25 28.87,-6.53 43.5,-6.53 40.6,0 81.12,17.28 109.79,57.54 54.11,97.68 64.34,139.61 110.22,198.54 215.78,277.55 446.97,564.27 796.89,826.71 166.8,138.66 540.35,296.88 834.74,398.27 126.38,46.95 249.22,103.96 379.73,139.09 168.55,44.75 340.11,80.05 512.74,105.71 83.83,8.2 146.74,11.93 200.75,11.93 131.33,0 210.31,-21.54 410.38,-50.93 250.53,-46.85 506.81,-77.3 748.78,-160.07 304.36,-115.7 421.83,-146.76 726.02,-333.93 113.12,-74.22 45.88,-27.47 145.61,-107.24 36.1,-43.4 90.46,-68.99 145.17,-68.99 1.22,0 2.37,0 3.6,0 -26.82,-66.47 -22.59,-145.09 33.37,-214.01 22.86,-39.62 66.02,-57.54 102.29,-82.7l2.28 -1.85c183.21,-165.72 214.53,-154.8 325.65,-284.43l8.56 -10.15c51.88,-80.3 119.15,-154.77 212.85,-157.35 -17.11,25.69 -34.59,51.11 -52.33,76.35 -152.39,215.85 -328.98,413.25 -525.95,588.36 -38.4,34.15 -77.67,67.49 -117.55,99.79 -588.11,477.62 -1337.32,764.07 -2152.22,764.07z"/><path class="fil2" d="M12620.88 11844.91l-7.06 -1.05c-13.58,-3.8 -21.44,-18.01 -17.56,-31.59l58.86 -205.88c3.18,-11.23 13.51,-18.63 24.44,-18.63 2.4,0 4.78,0.35 7.16,1.05 13.58,3.9 21.44,18.11 17.66,31.69l-58.86 205.8c-3.28,11.28 -13.51,18.61 -24.64,18.61z"/><path class="fil2" d="M12946.08 11705.47c13.76,-84 28.24,-167.93 43.43,-251.33 2.2,-12.43 13.23,-20.91 25.42,-20.91 1.4,0 2.9,0.1 4.33,0.35 13.93,2.48 23.11,15.81 20.64,29.74 -10.16,55.86 -20.04,111.89 -29.57,168.1 -17.74,20.74 -35.9,41.05 -54.26,61.09 -3.28,4.4 -6.63,8.73 -9.98,12.96z"/><path class="fil2" d="M9192.53 10591.87c-42.37,0 -76.8,-34.42 -76.8,-76.77l0 -1685.36c0,-42.45 34.42,-76.8 76.8,-76.8 42.45,0 76.77,34.35 76.77,76.8l0 1685.36c0,42.35 -34.32,76.77 -76.77,76.77z"/><path class="fil2" d="M10881.59 10591.87c-42.35,0 -76.77,-34.42 -76.77,-76.77l0 -1685.36c0,-42.45 34.42,-76.8 76.77,-76.8 42.45,0 76.78,34.35 76.78,76.8l0 1685.36c0,42.35 -34.32,76.77 -76.78,76.77z"/><path class="fil2" d="M10037.05 10591.87c-42.35,0 -76.77,-34.42 -76.77,-76.77l0 -2712.76c0,-42.35 34.42,-76.78 76.77,-76.78 42.45,0 76.8,34.42 76.8,76.78l0 2712.76c0,42.35 -34.35,76.77 -76.8,76.77z"/><path class="fil5" d="M6074.62 10805.07c-139.01,-279.57 -379.66,-517.22 -687.89,-672.79l0 -203.15c6.7,-1.5 13.68,-2.57 20.99,-3.28 7.08,-0.45 14.13,-0.7 21.19,-0.7 93.01,0 184.61,40.95 269.34,76.6 108.02,42.63 210.38,104.84 297.03,183.56 81.82,-147.29 195.74,-277.55 316.92,-394.39 99.54,-75.2 218.06,-248.07 347.17,-248.07 10.06,0 20.29,1.07 30.52,3.37 6,72.97 14.48,145.59 25.07,217.33 -300.74,281.8 -526.65,643.07 -640.32,1041.51z"/><path class="fil2" d="M5386.73 10132.29c-1.33,-0.72 -2.65,-1.43 -4.08,-2.13 -35.82,-17.91 -72.17,-34.59 -108.97,-49.95 0.35,-67.34 39,-134.41 113.05,-151.07l0 203.15z"/><path class="fil2" d="M6076.55 10931.1c-57.71,0 -115.07,-30.37 -135.81,-90.18 -22.76,-50.48 -8.65,-106.61 2.38,-161.07 -34.15,-26.92 -58.94,-65.64 -64.41,-111.02 -46.23,-117.72 -254.06,-294.03 -491.9,-336.58 -76.6,-19.31 -113.39,-85.85 -113.12,-152.04 36.8,15.36 73.15,32.04 108.97,49.95 1.43,0.7 2.75,1.4 4.08,2.13 308.24,155.57 548.89,393.22 687.89,672.79 113.67,-398.44 339.58,-759.71 640.32,-1041.51 4.95,33.27 10.33,66.29 16.24,99.29 -29.72,25.34 -61.49,49.15 -85.85,78.27 -85.08,80.67 -166.63,165.13 -238.62,257.61 -42.45,56.48 -57.63,62.84 -127.78,195.47 -4.85,9.6 -9.18,19.41 -13.61,29.22 -21.96,49.76 -28.59,106.06 -45.45,157.52l5.48 8.28c20.14,34.34 25.69,76.97 15.09,115.34 -27.44,121.07 4.78,55.61 -34.67,154.17 -26.46,48.46 -78.02,72.37 -129.2,72.37z"/><path class="fil2" d="M6731.18 9862.85c-5.91,-33 -11.28,-66.02 -16.24,-99.29 -10.58,-71.74 -19.06,-144.36 -25.07,-217.33 26.84,5.91 54.01,19.94 81.65,44.56 45.8,45.45 64.42,122.4 34.22,181.01 -15.43,36.97 -43.85,64.77 -74.57,91.06z"/></g></g></svg>