<?xml version="1.0" ?><!DOCTYPE svg  PUBLIC '-//W3C//DTD SVG 1.1//EN'  'http://www.w3.org/Graphics/SVG/1.1/DTD/svg11.dtd'><svg width="16666.66px" height="16666.66px" viewBox="0 0 16666.66 16666.66" style="shape-rendering:geometricPrecision; text-rendering:geometricPrecision; image-rendering:optimizeQuality; fill-rule:evenodd; clip-rule:evenodd" version="1.1" xml:space="preserve" xmlns="http://www.w3.org/2000/svg" xmlns:xlink="http://www.w3.org/1999/xlink" xmlns:xodm="http://www.corel.com/coreldraw/odm/2003"><defs><style type="text/css">
   <![CDATA[
    .fil0 {fill:none}
    .fil2 {fill:black;fill-rule:nonzero}
    .fil3 {fill:#ACD4F7;fill-rule:nonzero}
    .fil4 {fill:#DEDEDE;fill-rule:nonzero}
    .fil1 {fill:white;fill-rule:nonzero}
   ]]>
  </style></defs><g id="Layer_x0020_1"><rect class="fil0" height="16666.66" width="16666.66" x="-0" y="-0"/><g id="_1315271582096"><polygon class="fil1" points="1030.5,14341.67 12678.32,14341.67 12678.32,4954.86 1030.5,4954.86 "/><path class="fil2" d="M1111.89 14260.31l11485.02 0 0 -9224.06 -11485.02 0 0 9224.06zm11566.41 162.74l-11647.79 0c-44.95,0 -81.39,-36.46 -81.39,-81.39l0 -9386.8c0,-44.89 36.44,-81.38 81.39,-81.38l11647.79 0c44.89,0 81.39,36.49 81.39,81.38l0 9386.8c0,44.92 -36.49,81.39 -81.39,81.39z"/><polygon class="fil3" points="1030.5,5552.29 12678.32,5552.29 12678.32,3978.65 1030.5,3978.65 "/><path class="fil2" d="M1111.89 5470.88l11485.02 0 0 -1410.71 -11485.02 0 0 1410.71zm11566.41 162.69l-11647.79 0c-44.95,0 -81.39,-36.38 -81.39,-81.28l0 -1573.61c0,-44.92 36.44,-81.38 81.39,-81.38l11647.79 0c44.89,0 81.39,36.46 81.39,81.38l0 1573.61c0,44.89 -36.49,81.28 -81.39,81.28z"/><polygon class="fil1" points="4854.71,13018.6 6333.28,13018.6 6333.28,7959.77 4854.71,7959.77 "/><path class="fil2" d="M4936.09 12937.22l1315.78 0 0 -4896.04 -1315.78 0 0 4896.04zm1397.16 162.77l-1478.55 0c-44.92,0 -81.38,-36.46 -81.38,-81.38l0 -5058.81c0,-44.89 36.46,-81.39 81.38,-81.39l1478.55 0c45,0 81.38,36.49 81.38,81.39l0 5058.81c0,44.92 -36.38,81.38 -81.38,81.38z"/><polygon class="fil3" points="7256.99,13018.6 8735.5,13018.6 8735.5,9711.42 7256.99,9711.42 "/><path class="fil2" d="M7338.37 12937.22l1315.67 0 0 -3144.31 -1315.67 0 0 3144.31zm1397.16 162.77l-1478.54 0c-44.92,0 -81.41,-36.46 -81.41,-81.38l0 -3307.1c0,-44.98 36.49,-81.44 81.41,-81.44l1478.54 0c44.89,0 81.39,36.46 81.39,81.44l0 3307.1c0,44.92 -36.49,81.38 -81.39,81.38z"/><polygon class="fil1" points="2452.25,13018.6 3930.82,13018.6 3930.82,9156.74 2452.25,9156.74 "/><path class="fil2" d="M2533.63 12937.22l1315.78 0 0 -3699.17 -1315.78 0 0 3699.17zm1397.08 162.77l-1478.46 0c-44.9,0 -81.39,-36.46 -81.39,-81.38l0 -3861.94c0,-44.9 36.49,-81.39 81.39,-81.39l1478.46 0c45,0 81.49,36.49 81.49,81.39l0 3861.94c0,44.92 -36.49,81.38 -81.49,81.38z"/><path class="fil2" d="M2916.53 12853.21l-13.84 -3.82c-95.15,-56.62 -186.82,-118.09 -272.5,-182.74 -11.99,-9.04 -14.32,-26.09 -5.33,-37.95 9.07,-12.07 26.09,-14.32 37.97,-5.46 84.09,63.56 174.2,123.97 267.54,179.53 12.91,7.69 17.13,24.34 9.46,37.15 -5.06,8.51 -14.03,13.29 -23.31,13.29z"/><path class="fil2" d="M3404.22 12845.36l-15.25 -4.67 -747.57 -510.34c-12.36,-8.41 -15.54,-25.35 -7.11,-37.71 8.51,-12.41 25.46,-15.43 37.79,-7.08l747.46 510.21c12.36,8.52 15.54,25.35 7.11,37.79 -5.22,7.66 -13.74,11.8 -22.43,11.8z"/><path class="fil2" d="M3712.18 12621.95l-14.32 -4.11 -1054.94 -657.17c-12.73,-7.98 -16.65,-24.72 -8.72,-37.37 7.95,-12.7 24.71,-16.44 37.44,-8.7l1054.94 657.12c12.73,7.93 16.57,24.72 8.7,37.42 -5.14,8.22 -14.11,12.81 -23.09,12.81z"/><path class="fil2" d="M3725.75 12227.94l-12.91 -3.31c-365.68,-196.98 -725.67,-409.15 -1069.85,-630.42 -12.62,-8.11 -16.28,-24.9 -8.22,-37.5 8.14,-12.65 24.98,-16.31 37.5,-8.14 343.07,220.6 701.83,431.93 1066.3,628.26 13.18,7.13 18.14,23.57 11.03,36.78 -4.96,9.15 -14.22,14.32 -23.84,14.32z"/><path class="fil2" d="M3711.62 11820.22l-13.39 -3.56c-355.4,-200.58 -709.94,-410.9 -1053.65,-624.82 -12.73,-7.96 -16.65,-24.69 -8.7,-37.42 7.95,-12.7 24.69,-16.47 37.42,-8.7 343.04,213.68 696.95,423.52 1051.68,623.68 13.02,7.4 17.61,23.97 10.29,37.07 -5.04,8.8 -14.21,13.74 -23.65,13.74z"/><path class="fil2" d="M3705.63 11410.28l-13.47 -3.61 -1062.82 -610c-12.99,-7.48 -17.5,-24.1 -10,-36.99 7.48,-13.13 24.13,-17.53 37.04,-10.02l1062.82 609.94c12.99,7.48 17.47,24.02 10,37.04 -5.04,8.7 -14.13,13.63 -23.57,13.63z"/><path class="fil2" d="M3710.11 11030.49l-12.89 -3.29c-360.83,-195.25 -718.93,-401.91 -1064.41,-614.32 -12.83,-7.85 -16.76,-24.64 -8.91,-37.37 7.88,-12.81 24.72,-16.84 37.23,-8.85 344.66,211.85 701.91,418.08 1061.89,612.86 13.2,7.08 18.06,23.55 10.95,36.76 -4.85,9.07 -14.21,14.21 -23.87,14.21z"/><path class="fil2" d="M3678.02 10585.72l-13.74 -3.79 -1009.41 -592.84c-12.99,-7.61 -17.31,-24.24 -9.73,-37.07 7.59,-13.07 24.32,-17.21 37.15,-9.7l1009.49 592.92c12.91,7.56 17.21,24.16 9.63,37.05 -5.04,8.7 -14.11,13.44 -23.39,13.44z"/><path class="fil2" d="M3673.64 10187.87l-13.47 -3.53c-336.14,-192.73 -673.11,-393.39 -1001.56,-596.5 -12.73,-7.85 -16.65,-24.61 -8.78,-37.31 7.85,-12.83 24.58,-16.68 37.31,-8.81 328,202.7 664.39,403.21 1000.05,595.52 12.99,7.4 17.5,23.94 10.02,37.07 -4.96,8.7 -14.13,13.55 -23.57,13.55z"/><path class="fil2" d="M3710.11 9820.12l-14.29 -4.11 -679.66 -421.56c-12.7,-7.93 -16.55,-24.66 -8.7,-37.31 7.96,-12.81 24.72,-16.55 37.34,-8.8l679.63 421.56c12.73,7.93 16.65,24.71 8.7,37.42 -5.04,8.22 -13.92,12.81 -23.02,12.81z"/><path class="fil2" d="M3709.18 9467.19l-14.77 -4.43 -174.3 -113.76c-12.52,-8.11 -15.99,-24.95 -7.85,-37.5 8.25,-12.65 25.17,-15.99 37.6,-7.96l174.2 113.87c12.54,8.09 16.1,24.95 7.85,37.5 -5.15,7.96 -13.84,12.28 -22.72,12.28z"/><path class="fil1" d="M11975.09 8507.23c568.2,558.98 1136.52,1118.03 1704.74,1677.11 300.21,295.23 601.06,591.22 928.11,847.36 176.35,138.16 372.61,268.65 587.22,268.84 214.61,0.11 442.69,-180.93 441,-423.39 -1.22,-189.15 -131.9,-341.16 -254.26,-470.27 -904.82,-954.33 -1850.43,-1859.13 -2832.61,-2710.26 -179.98,263.72 -359.98,527.44 -574.2,810.61z"/><path class="fil2" d="M12082.94 8499.12l1653.96 1627.18c293.66,288.92 597.32,587.61 921.19,841.29 166.72,130.6 347.17,251.5 537.18,251.58l0.08 0c93.08,0 190.93,-42.59 261.76,-113.95 63.62,-63.99 98.33,-144.71 97.67,-227.5 -1.04,-158.29 -115.17,-291.7 -231.9,-414.87 -878.36,-926.33 -1805.81,-1815.83 -2757.96,-2644.79 -149.78,219.28 -305.36,444.92 -481.97,681.07zm3112.4 2882.84l-0.19 0c-239.3,-0.21 -447.81,-137.63 -637.44,-286.18 -331.08,-259.4 -638.11,-561.39 -934.95,-853.43l-1704.74 -1677.09c-29.11,-28.72 -32.48,-74.57 -7.87,-107.21 212.83,-281.22 395.17,-548.39 571.49,-806.68 13.1,-19.17 33.97,-32.09 56.99,-35.08 22.91,-3.07 46.41,3.66 63.99,18.8 980.22,849.53 1935.26,1763.22 2838.39,2715.74 133.04,140.33 275.13,308.28 276.53,525.78 0.95,126.46 -50.6,248.34 -144.9,343.33 -100.85,101.48 -241.84,162.03 -377.3,162.03z"/><path class="fil1" d="M9757.49 8560.48c-1486.53,0 -2691.65,-1205.12 -2691.65,-2691.62 0,-1486.61 1205.12,-2691.64 2691.65,-2691.64 1486.5,0 2691.61,1205.04 2691.61,2691.64 0,1486.5 -1205.11,2691.62 -2691.61,2691.62zm0 0c-1486.53,0 -2691.65,-1205.12 -2691.65,-2691.62 0,-1486.61 1205.12,-2691.64 2691.65,-2691.64 1486.5,0 2691.61,1205.04 2691.61,2691.64 0,1486.5 -1205.11,2691.62 -2691.61,2691.62zm0 -6235.58c-1957.28,0 -3543.96,1586.68 -3543.96,3543.96 0,1957.25 1586.68,3543.94 3543.96,3543.94 1957.25,0 3543.93,-1586.68 3543.93,-3543.94 0,-1957.28 -1586.68,-3543.96 -3543.93,-3543.96z"/><path class="fil2" d="M7147.23 5868.86c0,1439.25 1170.99,2610.23 2610.26,2610.23 1439.24,0 2610.23,-1170.98 2610.23,-2610.23 0,-1439.38 -1170.99,-2610.23 -2610.23,-2610.23 -1439.27,0 -2610.26,1170.85 -2610.26,2610.23zm2610.26 2773c-1529.09,0 -2773.03,-1243.94 -2773.03,-2773 0,-1529.09 1243.94,-2773.03 2773.03,-2773.03 1529.06,0 2773,1243.94 2773,2773.03 0,1529.06 -1243.94,2773 -2773,2773zm0 -6235.57c-1909.28,0 -3462.58,1553.3 -3462.58,3462.57 0,1909.25 1553.3,3462.55 3462.58,3462.55 1909.25,0 3462.55,-1553.3 3462.55,-3462.55 0,-1909.28 -1553.3,-3462.57 -3462.55,-3462.57zm0 7087.9c-1998.99,0 -3625.35,-1626.36 -3625.35,-3625.32 0,-1999.09 1626.35,-3625.26 3625.35,-3625.26 1998.96,0 3625.35,1626.17 3625.35,3625.26 0,1998.96 -1626.39,3625.32 -3625.35,3625.32z"/><path class="fil2" d="M12432.08 8608.75l-7.5 -1.04c-14.3,-4.11 -22.73,-19.17 -18.62,-33.57l62.4 -218.17c4.03,-14.32 18.91,-23.02 33.49,-18.61 14.43,4.11 22.76,19.09 18.62,33.6l-62.29 218.14c-3.48,11.88 -14.32,19.65 -26.09,19.65z"/><path class="fil2" d="M12730.22 8990.9l-3.47 -0.19c-14.96,-1.96 -25.35,-15.62 -23.47,-30.5 33.31,-254.55 73.43,-512.2 119.54,-765.6 2.63,-14.8 17.02,-24.35 31.53,-21.8 14.77,2.7 24.5,16.73 21.8,31.53 -45.85,252.48 -85.86,509.17 -118.98,762.9 -1.88,13.66 -13.47,23.65 -26.94,23.65z"/><path class="fil2" d="M13117.33 9361.73c-14.98,0 -27.13,-12.07 -27.13,-27.13 0,-127.61 19.63,-341.74 36.94,-530.52 10.58,-115.17 19.73,-214.61 22.83,-277.19 0.74,-14.96 12.54,-26.94 28.43,-25.72 14.98,0.74 26.49,13.47 25.72,28.54 -3.15,63.62 -12.33,163.54 -22.91,279.26 -17.21,187.75 -36.76,400.48 -36.76,525.64 0,15.06 -12.17,27.13 -27.13,27.13z"/><path class="fil2" d="M13513.7 9727.15c-14.8,0 -26.86,-11.8 -27.13,-26.49l-20.5 -905.09c-0.27,-15.06 11.61,-27.42 26.49,-27.79 16.73,0.19 27.5,11.51 27.76,26.49l20.5 905.12c0.29,15.04 -11.61,27.39 -26.46,27.76l-0.66 0z"/><path class="fil2" d="M13890.89 10127.54c-14.5,0 -26.57,-11.51 -27.13,-26.12l-35.46 -947.94c-0.56,-14.87 11.14,-27.5 26.09,-28.06 15.91,0.19 27.5,11.22 28.16,26.09l35.46 947.86c0.56,14.98 -11.14,27.58 -26.09,28.17l-1.04 0z"/><path class="fil2" d="M14274.71 10464.99c-14.29,0 -26.28,-11.14 -27.02,-25.64l-47.89 -885.44c-0.85,-14.98 10.66,-27.82 25.54,-28.56 17.58,-1.59 27.69,10.69 28.61,25.56l47.89 885.55c0.85,14.93 -10.66,27.66 -25.62,28.53l-1.51 0z"/><path class="fil2" d="M14654.72 10776.89c-13.92,0 -25.91,-10.79 -26.94,-25.08l-66.51 -861.97c-1.11,-14.88 10,-28 24.98,-29.12 13.47,-2.12 27.98,10 29.09,24.98l66.51 861.97c1.14,14.96 -10,27.98 -24.98,29.09l-2.15 0.13z"/><path class="fil2" d="M15014.52 11057.14c-13.66,0 -25.46,-10.39 -26.83,-24.42l-77.75 -755.95c-1.59,-14.88 9.26,-28.19 24.24,-29.75 13.84,-1.62 28.16,9.23 29.65,24.24l77.75 756.06c1.59,14.87 -9.28,28.13 -24.24,29.65l-2.81 0.19z"/><path class="fil2" d="M15366.83 11016.93c-13.02,0 -24.53,-9.46 -26.68,-22.78l-54.63 -337.79c-2.44,-14.88 7.67,-28.74 22.46,-31.13 15.06,-2.71 28.72,7.66 31.13,22.43l54.55 337.79c2.44,14.8 -7.67,28.74 -22.46,31.08l-4.38 0.4z"/><path class="fil4" d="M9757.49 8479.1c-1439.27,0 -2610.26,-1170.98 -2610.26,-2610.23 0,-123.97 8.72,-246.04 25.46,-365.42 26.39,90.64 55.66,180.56 87.48,269.42 -0.29,141.93 15.62,200.29 66.88,367.28 34.79,121.53 68.02,243.22 112.07,361.94 43.59,115.43 116.28,368.97 328.27,658.98l0.19 0.19c197.11,238.45 487.03,493.85 617.16,585.15 306.47,206.47 448.1,286.74 741.58,355.13 190.08,47.15 357.07,64.25 507.58,64.25 181.04,0 338.29,-24.8 483.56,-51.92 560.28,-103.18 893.31,-220.31 1336.38,-540.81 14.77,-9.18 30.12,-14.96 45.45,-17.95 86.82,-66.24 172.24,-136.12 261.1,-215.54 102.73,-97.67 284.67,-302.25 298.52,-328 52.29,-61.63 88.15,-138.63 134.71,-205.14 -377.46,977.51 -1327.18,1672.68 -2436.11,1672.68zm-2170.75 -886.5c-4.48,-4.85 -9.07,-9.81 -13.66,-14.85 -196.37,-220.79 -306.57,-442.51 -381.59,-657.3 100.11,243.33 233.78,469.26 395.25,672.15zm4376 -44.23c113.47,-148.66 212.25,-309.09 294.22,-479.07 -6.66,18.43 -13.28,36.94 -19.94,55.37 -39.09,90.67 -80.72,180.27 -123.84,269.42 -41.26,47.15 -92.26,99.47 -150.44,154.28z"/><path class="fil2" d="M9668.41 8566.47c-101.3,0 -202.44,-8.14 -302.36,-26.31l-2.7 -0.56c-162.39,-19.09 -325.93,-38.16 -483.18,-83.82 -287.85,-93.56 -547.55,-254.55 -791.72,-430.71 -102.7,-84.57 -265.39,-175.68 -501.7,-432.48 -161.47,-202.89 -295.15,-428.82 -395.25,-672.15 -40.31,-115.43 -70.43,-229.01 -98.33,-339.3 -46.3,-364.57 -53.04,-731.93 -5.59,-1098.2 3.74,-0.26 7.58,-0.37 11.4,-0.37 24.9,0 49.67,5.81 72.31,16.02 0.48,1.67 0.93,3.26 1.41,4.85 -16.73,119.38 -25.46,241.44 -25.46,365.42 0,1439.25 1170.99,2610.23 2610.26,2610.23 1108.93,0 2058.65,-695.17 2436.11,-1672.68 20.79,-29.57 43.59,-57.07 71.12,-80.27 20.57,-12.36 43.49,-18.06 66.32,-18.06 17.77,0 35.46,3.47 52,9.84 -41.53,117.31 -83.82,234.34 -126.09,351.37 -81.97,169.98 -180.75,330.41 -294.22,479.07 -175.79,165.66 -416.87,355.21 -652.43,501.8 -48.44,36.49 -84.38,61.47 -187.93,125.35 -255.1,134.82 -534.18,220.31 -813.6,288.97 -134.71,36.22 -268.79,77.01 -408.46,88.6 -76.98,8.62 -154.44,13.39 -231.9,13.39z"/><path class="fil4" d="M10216.7 9494.19c15.25,-2.33 23.31,-3.26 24.43,-3.26 0.19,0 0.19,0 0,0l-15.99 2.23 -8.43 1.04z"/><path class="fil4" d="M9836.32 9880.74c-143.49,0 -287.19,-11.4 -429.86,-34.9 -197.48,-22.14 -395.7,-48.71 -589.55,-91.41l0 -42.93c0,-44.98 -36.49,-81.44 -81.39,-81.44l-336.04 0c-80.06,-31.37 -158.55,-67.38 -235.19,-108.91 -229.2,-122.94 -414.69,-310.21 -617.42,-470.38 -191.96,-162.21 -400.95,-305.17 -572.42,-490.29 -338.48,-324.53 -534.84,-752.43 -759.35,-1155.9 -63.72,-142.11 33.12,-240.44 138.08,-240.44 6.07,0 12.25,0.37 18.51,1.04 342.78,892.17 1028.4,1615.61 1894.78,2008.06 49,29.35 104.3,58.55 171.02,89.05l23.09 10.18 4.59 1.99 4.22 1.78c119.46,46.67 240.71,89.6 365.02,121.4 223.2,49.41 333.97,56.17 465.42,75.31 182.05,28.48 365.5,45.88 549.03,45.88 116.65,0 233.41,-7.03 349.8,-22.83l18.03 -1.8 -12.44 1.88 20.87 -2.92c9.36,-1.09 15.06,-1.96 15.99,-2.23 7.11,-0.95 14.21,-1.96 21.32,-3 -0.82,0.08 -1.67,0.19 -2.6,0.29 1.67,-0.21 3.37,-0.4 4.96,-0.66 8.96,-1.22 17.95,-2.5 27.02,-3.74 -4.77,0.77 -9.73,1.48 -14.88,2.25 215.65,-27.71 422.94,-97.13 624.45,-176.82 417.16,-139.01 801.09,-352.11 1135.61,-623.41 1.41,0.19 2.89,0.48 4.3,0.74l117.87 115.91c6.18,28.27 4.11,58.1 -9.36,85.04 -52.74,95.52 -170.06,151.07 -254.92,218.35 -179.05,114.3 -355.77,232.67 -537.92,341.93 -457.91,275.97 -987.4,432.93 -1520.65,432.93z"/><path class="fil2" d="M8816.92 9754.43c-142.19,-31.32 -281.94,-71.26 -417.43,-124.37l336.04 0c44.89,0 81.39,36.46 81.39,81.44l0 42.93z"/><path class="fil4" d="M12386.33 8797.53l-222.75 -219.09c208.8,-185.71 396,-394.88 557.57,-623.71 88.12,77.57 176.05,155.69 263.7,234.26 -3.08,6.26 -6.37,12.44 -10.11,18.43 -37.68,62.21 -82.42,119.94 -129.83,175.13 10.1,-59.59 20.47,-118.99 31.24,-178.2 2.7,-14.8 -7.03,-28.83 -21.8,-31.53 -1.48,-0.29 -3.08,-0.48 -4.59,-0.48 -12.81,0 -24.61,9.07 -26.94,22.28 -16.09,88.39 -31.43,177.35 -46.01,266.43 -104.59,134.61 -233.23,249.85 -383,332.28 -2.44,1.51 -4.96,2.91 -7.48,4.21zm107.85 -461.28c-11.88,0 -22.44,7.95 -25.83,19.73l-62.4 218.17c-4.11,14.4 4.32,29.46 18.62,33.57l7.5 1.04c11.78,0 22.62,-7.77 26.09,-19.65l62.29 -218.14c4.14,-14.51 -4.19,-29.49 -18.62,-33.6 -2.52,-0.74 -5.14,-1.11 -7.66,-1.11z"/><path class="fil2" d="M12275.38 8826.72c-42.56,0 -83.19,-12.35 -118.54,-33.41 0.85,3.1 1.59,6.1 2.33,9.17l-117.87 -115.91c6.55,1.14 13.2,2.81 19.83,5.14 -3.18,-5.99 -6.07,-12.14 -8.7,-18.43 37.6,-30.87 74.76,-62.58 111.14,-94.85l222.75 219.09c-37.05,20.21 -74.67,29.2 -110.95,29.2zm709.47 -637.73c-87.65,-78.57 -175.58,-156.7 -263.7,-234.26 18.8,-26.76 37.31,-53.7 55.48,-80.91 1.78,-0.11 3.55,-0.11 5.33,-0.11 19.17,0 39.38,2.81 60.62,8.91 129.75,34.24 199.44,187.38 142.27,306.37z"/><path class="fil2" d="M10901.4 9309.25c2.15,-0.85 4.22,-1.7 6.37,-2.52 102.15,-33.89 550.65,-276.16 772.26,-414.24 21.24,-10.21 131.53,-88.04 172.13,-116.57 50.22,-42.93 105.44,-91.2 168.1,-91.2 5.54,0 11.14,0.37 16.76,1.11 -334.53,271.31 -718.46,484.41 -1135.61,623.41zm-2634.92 -136.01c-866.37,-392.44 -1552,-1115.89 -1894.78,-2008.06 60.17,6.73 120.02,46.59 151.18,129.67 244.18,435.08 385.23,753.17 709.57,1053.64 232.86,223.2 357.76,282.05 570.19,462.5 208.25,164.09 301.43,264.76 463.83,362.24zm3785.96 -499.95c-30.5,-71.28 -27.13,-156.32 33.39,-230.79 24.24,-42 69.98,-60.99 108.43,-87.64l2.44 -1.96c194.11,-175.71 227.42,-164.09 345.18,-301.51l9.09 -10.77c55,-85.12 126.28,-164.09 225.65,-166.8 -18.17,27.21 -36.68,54.15 -55.48,80.91 -161.57,228.83 -348.77,438 -557.57,623.71 -36.38,32.27 -73.54,63.99 -111.14,94.85z"/><path class="fil2" d="M12432.08 8608.75l-7.5 -1.04c-14.3,-4.11 -22.73,-19.17 -18.62,-33.57l62.4 -218.17c3.39,-11.78 13.95,-19.73 25.83,-19.73 2.52,0 5.14,0.37 7.66,1.11 14.43,4.11 22.76,19.09 18.62,33.6l-62.29 218.14c-3.48,11.88 -14.32,19.65 -26.09,19.65z"/><path class="fil2" d="M12776.81 8461.04c14.58,-89.07 29.91,-178.04 46.01,-266.43 2.33,-13.21 14.13,-22.28 26.94,-22.28 1.51,0 3.11,0.19 4.59,0.48 14.77,2.7 24.5,16.73 21.8,31.53 -10.76,59.21 -21.13,118.61 -31.24,178.2 -18.8,21.88 -38.08,43.41 -57.54,64.73 -3.56,4.59 -7,9.25 -10.56,13.76z"/><path class="fil4" d="M10291.82 9483.82c5.44,-0.74 10.39,-1.51 14.61,-1.88 -4.88,0.56 -9.73,1.22 -14.61,1.88z"/><polygon class="fil3" points="8926.09,5242.9 8504.37,5636.3 9653.9,6913.81 10924.89,5063.57 10454.04,4689.18 9566.53,5939.96 "/><path class="fil2" d="M8618.32 5641.34l1026.99 1141.31 1169.55 -1702.63 -344.18 -273.61 -837.74 1180.69c-14.32,20.02 -36.75,32.54 -61.28,34.13 -25.17,1.41 -48.45,-8.04 -65,-26.17l-584.99 -636.73 -303.37 283zm1035.58 1353.85c-23.02,0 -45,-9.73 -60.51,-26.94l-1149.56 -1277.51c-29.65,-32.93 -27.39,-83.64 4.96,-113.95l421.82 -393.37c15.91,-14.8 37.34,-23.2 58.66,-21.9 21.72,0.93 42.11,10.29 56.78,26.28l572.34 623.04 829.25 -1168.71c12.89,-18.24 32.83,-30.31 55,-33.49 22.17,-2.89 44.53,3 62.03,16.92l470.83 374.3c33.49,26.57 40.7,74.57 16.47,109.73l-1270.96 1850.33c-14.03,20.58 -36.86,33.49 -61.76,35.16l-5.33 0.11z"/><polygon class="fil2" points="3851.48,13005.61 3868.58,13003.28 3851.48,13005.61 "/><path class="fil4" d="M2541.03 13345.91c-136.35,0 -195.91,-162.4 -130.26,-257.33 12.17,7.19 26.33,11.4 41.48,11.4l1478.46 0c45,0 81.49,-36.46 81.49,-81.38l0 -1.96c45.45,25.83 78.1,74.09 76.61,129.41 1.85,81.91 -71.65,149.46 -150.44,149.46 -4.22,0 -8.41,-0.19 -12.62,-0.56 -9.44,0.11 -18.91,0.85 -28.45,1.67l0.4 0c-48,6.74 -96.37,10.31 -144.74,12.73 -10.85,0.77 -21.69,1.48 -32.75,1.59 -50.04,1.7 -100.08,2.55 -150.23,2.55 -0.93,0 -1.96,0 -2.92,0 -340.78,15.14 -681.3,25.91 -1022.22,32.43 -1.3,0 -2.6,0 -3.82,0z"/><path class="fil2" d="M3930.71 13099.99l-1478.46 0c-15.14,0 -29.3,-4.22 -41.48,-11.4 16.07,-23.2 39.62,-42.37 71.36,-54.18 69,-18.06 141.5,-21.43 214.45,-21.43 22.27,0 44.63,0.29 66.98,0.66 22.35,0.29 44.63,0.58 66.91,0.58 27.58,0 55,-0.48 82.05,-2.09 264.54,-9.81 528.82,-27.47 793.66,-29.43 12.44,-2.18 24.72,-3.19 36.68,-3.19 37.42,0 71.65,10.08 100.19,27.29l5.44 -0.71 -0.48 0c1.14,-0.13 2.36,-0.32 3.48,-0.48l-3 0.48 3 -0.48c8.88,-1.22 17.87,-2.33 26.76,-3.55l-9.65 1.22 7.5 -1.04 5.89 -0.67 8.51 -1.22c13.1,-1.41 22.35,-2.15 28.06,-2.33 6.55,-0.93 13.1,-1.41 19.65,-1.41 26.02,0 51.55,7.29 74.01,20.02l0 1.96c0,44.92 -36.49,81.38 -81.49,81.38z"/><polygon class="fil2" points="3848.48,13006.09 3851.48,13005.61 3851.48,13005.61 "/><path class="fil4" d="M4912.52 13342.73c-152.11,0 -213.95,-185.6 -128.16,-283.24 14.13,24.24 40.31,40.49 70.35,40.49l1478.55 0c23.57,0 44.92,-10.07 59.8,-26.09 51.82,99.26 2.7,248.74 -147.44,252.3 -117.87,4.98 -235.85,6.37 -353.8,6.37 -83.16,0 -166.24,-0.67 -249.4,-1.38 -83.27,-0.66 -166.61,-1.43 -249.88,-1.43 -159.4,0 -318.64,2.62 -477.75,12.99 -0.77,0 -1.51,0 -2.25,0z"/><path class="fil2" d="M6333.25 13099.99l-1478.55 0c-30.04,0 -56.22,-16.26 -70.35,-40.49 16.17,-18.32 37.52,-33.57 64.54,-43.89 71.57,-18.83 146.11,-22.54 221.35,-22.54 24.8,0 49.56,0.48 74.36,0.85 24.9,0.34 49.69,0.82 74.46,0.82 42.3,0 84.41,-1.19 125.83,-5.52 200.66,-3.53 401.24,-1.01 601.83,-8.7 73.99,2.33 147.79,9.92 221.8,9.92 25.62,0 51.37,-0.93 77.09,-3.26 73.06,1.94 122.17,38.45 147.44,86.71 -14.87,16.02 -36.22,26.09 -59.8,26.09z"/><path class="fil4" d="M7490.29 13318.52c-62.21,0 -124.53,-0.85 -186.63,-2.89 -1.78,0.08 -3.55,0.08 -5.33,0.08 -127.6,0 -213.28,-153.7 -145.19,-262.39 6.26,-11.43 13.92,-21.61 22.54,-30.68 2.15,43.01 37.71,77.35 81.31,77.35l1478.54 0c38.45,0 70.65,-26.76 79.16,-62.61 46.19,81.44 13.47,202.46 -80.01,234.29 -24.98,13.39 -52.66,15.06 -80.72,15.06 -4.96,0 -9.84,-0.11 -14.8,-0.11 -4.93,-0.08 -10,-0.19 -14.96,-0.19 -11.99,0 -23.94,0.35 -35.56,1.78 -119.65,7.58 -239.48,11.59 -359.32,14.06 -246.11,3.05 -492.81,16.25 -739.04,16.25z"/><path class="fil2" d="M8735.53 13099.99l-1478.54 0c-43.6,0 -79.16,-34.34 -81.31,-77.35 22.06,-23.1 50.89,-38.85 81.57,-49.41 9.07,-4.11 23.2,-5.59 38.45,-5.59 24.98,0 52.67,3.9 65.1,6.42 67.54,6.55 135.67,5.99 203.39,7.98 58.92,2.7 117.87,3.82 176.8,3.82 212.54,0 425.19,-14.61 637.65,-20.84 5.97,0.29 11.96,0.35 18.14,0.35 33.87,0 70.35,-3.53 107.48,-7.08 37.15,-3.58 74.94,-7.03 111.54,-7.03 64.44,0 125.24,10.93 172.21,52.19 10.76,10.13 19.65,21.53 26.68,33.94 -8.51,35.85 -40.7,62.61 -79.16,62.61z"/></g></g></svg>