<?xml version="1.0" ?><!DOCTYPE svg  PUBLIC '-//W3C//DTD SVG 1.1//EN'  'http://www.w3.org/Graphics/SVG/1.1/DTD/svg11.dtd'><svg width="16666.66px" height="16666.66px" viewBox="0 0 16666.66 16666.66" style="shape-rendering:geometricPrecision; text-rendering:geometricPrecision; image-rendering:optimizeQuality; fill-rule:evenodd; clip-rule:evenodd" version="1.1" xml:space="preserve" xmlns="http://www.w3.org/2000/svg" xmlns:xlink="http://www.w3.org/1999/xlink" xmlns:xodm="http://www.corel.com/coreldraw/odm/2003"><defs><style type="text/css">
   <![CDATA[
    .fil0 {fill:none}
    .fil1 {fill:black;fill-rule:nonzero}
    .fil5 {fill:#96B9D7;fill-rule:nonzero}
    .fil3 {fill:#ACD4F7;fill-rule:nonzero}
    .fil4 {fill:#DEDEDE;fill-rule:nonzero}
    .fil2 {fill:white;fill-rule:nonzero}
   ]]>
  </style></defs><g id="Layer_x0020_1"><rect class="fil0" height="16666.66" width="16666.66" x="-0" y="-0"/><g id="_1314859588432"><path class="fil1" d="M12285.88 14068.74l-11290.22 0c-45.16,0 -81.87,-36.68 -81.87,-81.87 0,-45.19 36.71,-81.87 81.87,-81.87l11290.22 0c45.19,0 81.9,36.68 81.9,81.87 0,45.19 -36.71,81.87 -81.9,81.87z"/><polygon class="fil2" points="9357.22,12804.97 11740.05,12804.97 11740.05,2679.79 9357.22,2679.79 "/><path class="fil1" d="M9438.16 12723.1l2220.02 0 0 -9961.33 -2220.02 0 0 9961.33zm2301.89 163.74l-2382.83 0c-46.12,0 -81.87,-36.71 -81.87,-81.87l0 -10125.17c0,-45.17 35.75,-81.87 81.87,-81.87l2382.83 0c45.19,0 81.87,36.7 81.87,81.87l0 10125.17c0,45.16 -36.68,81.87 -81.87,81.87z"/><polygon class="fil3" points="5448.87,12804.97 7832.66,12804.97 7832.66,5905.99 5448.87,5905.99 "/><path class="fil1" d="M5530.74 12723.1l2220.05 0 0 -6735.21 -2220.05 0 0 6735.21zm2301.92 163.74l-2383.79 0c-45.16,0 -81.87,-36.71 -81.87,-81.87l0 -6898.95c0,-45.27 36.71,-81.87 81.87,-81.87l2383.79 0c45.17,0 81.87,36.6 81.87,81.87l0 6898.95c0,45.16 -36.7,81.87 -81.87,81.87z"/><path class="fil2" d="M11987.55 10209.13c572.18,562.42 1143.44,1124.84 1715.62,1687.21 301.15,296.99 604.17,594.67 933.55,852.34 176.92,138.98 374.56,270.37 590.05,270.44 216.46,0.21 446.09,-181.88 444.22,-425.92 -1.89,-190.26 -132.72,-343.19 -255.99,-473.08 -910.04,-960.01 -1861.46,-1870.24 -2849.61,-2726.42 -180.68,265.38 -362.32,530.67 -577.84,815.42z"/><path class="fil1" d="M12096.74 10200.96l1663.84 1636.92c294.56,290.61 600.41,590.94 926.02,846.42 168.46,131.27 350.07,252.87 541.13,252.94l0 0c93.16,0 191.96,-42.81 262.55,-114.63 64,-64.37 98.81,-145.57 98.81,-228.86 -0.93,-159.04 -115.75,-293.44 -233.39,-417.35 -883.66,-931.78 -1816.29,-1826.57 -2774.3,-2660.55 -150.59,220.67 -307.74,447.56 -484.66,685.11zm3131 2900.06l-0.96 0c-239.95,-0.11 -449.82,-138.43 -640.87,-287.87 -333.14,-261.08 -641.81,-564.88 -940.13,-858.56l-1715.62 -1687.1c-29.16,-28.89 -31.98,-74.91 -7.52,-107.85 213.62,-282.91 397.13,-551.57 575.01,-811.5 13.18,-19.29 33.88,-32.28 57.41,-35.3 22.57,-3.01 46.1,3.68 64,19.02 986.26,854.5 1947.09,1773.64 2855.24,2731.86 133.65,141.28 276.69,310.2 278.58,529 0.93,127.17 -50.82,249.88 -145.87,345.3 -101.64,102.09 -243.74,163 -379.26,163z"/><path class="fil2" d="M9757.18 10262.69c-1495.38,0 -2707.5,-1212.21 -2707.5,-2707.69 0,-1495.41 1212.13,-2707.69 2707.5,-2707.69 1495.38,0 2707.51,1212.29 2707.51,2707.69 0,1495.48 -1212.13,2707.69 -2707.51,2707.69zm0 0c-1495.38,0 -2707.5,-1212.21 -2707.5,-2707.69 0,-1495.41 1212.13,-2707.69 2707.5,-2707.69 1495.38,0 2707.51,1212.29 2707.51,2707.69 0,1495.48 -1212.13,2707.69 -2707.51,2707.69zm0 -6272.72c-1968.75,0 -3564.83,1596.08 -3564.83,3565.02 0,1968.94 1596.08,3565.1 3564.83,3565.1 1968.75,0 3564.83,-1596.16 3564.83,-3565.1 0,-1968.94 -1596.08,-3565.02 -3564.83,-3565.02z"/><path class="fil1" d="M7131.55 7555.08c0,1447.87 1177.29,2625.74 2625.63,2625.74 1447.39,0 2625.63,-1177.88 2625.63,-2625.74 0,-1447.95 -1178.25,-2625.9 -2625.63,-2625.9 -1448.35,0 -2625.63,1177.95 -2625.63,2625.9zm2625.63 2789.48c-1538.67,0 -2789.38,-1251.37 -2789.38,-2789.48 0,-1538.19 1250.7,-2789.67 2789.38,-2789.67 1537.74,0 2789.38,1251.48 2789.38,2789.67 0,1538.11 -1251.64,2789.48 -2789.38,2789.48zm0 -6272.82c-1920.76,0 -3482.96,1562.68 -3482.96,3483.34 0,1920.6 1562.2,3483.18 3482.96,3483.18 1920.76,0 3482.96,-1562.57 3482.96,-3483.18 0,-1920.66 -1562.2,-3483.34 -3482.96,-3483.34zm0 7130.23c-2011.11,0 -3646.7,-1635.99 -3646.7,-3646.89 0,-2011.01 1635.59,-3647 3646.7,-3647 2011.11,0 3646.7,1635.99 3646.7,3647 0,2010.9 -1635.59,3646.89 -3646.7,3646.89z"/><path class="fil1" d="M12447.75 10311.25l-7.52 -1.02c-15.07,-4.16 -22.59,-19.2 -18.83,-33.77l63.06 -219.41c3.76,-14.57 18.83,-23.24 32.95,-18.7 15.04,4.06 23.53,19.18 18.81,33.67l-62.11 219.47c-3.76,12.06 -15.07,19.77 -26.35,19.77z"/><path class="fil1" d="M12747.97 10695.71l-3.76 -0.21c-15.07,-1.95 -25.43,-15.71 -23.53,-30.6 32.92,-256.15 73.39,-515.31 119.51,-770.26 2.83,-14.88 17.87,-24.3 31.98,-21.95 15.07,2.78 24.49,16.89 22.6,31.74 -46.13,254.02 -86.57,512.22 -120.44,767.54 -1.89,13.74 -13.18,23.74 -26.36,23.74z"/><path class="fil1" d="M13136.62 11068.72c-15.04,0 -27.29,-12.14 -27.29,-27.29 0,-128.37 19.76,-343.67 37.67,-533.69 10.35,-115.75 19.74,-215.78 22.57,-278.71 0.94,-14.97 12.25,-27.8 29.19,-25.88 15.05,0.72 26.36,13.52 25.4,28.6 -2.83,64.07 -12.22,164.57 -22.57,280.98 -17.9,188.79 -37.64,402.87 -37.64,528.7 0,15.15 -12.24,27.29 -27.32,27.29z"/><path class="fil1" d="M13535.64 11436.32c-15.04,0 -27.29,-11.76 -27.29,-26.65l-20.7 -910.5c0,-15.04 11.29,-27.58 26.36,-27.93l0.93 0c15.07,0 27.29,11.87 27.29,26.6l20.7 910.63c0,15.07 -11.28,27.56 -26.33,27.85l-0.96 0z"/><path class="fil1" d="M13914.9 11839.12c-14.11,0 -26.35,-11.58 -27.29,-26.28l-35.75 -953.5c0,-15.05 11.28,-27.77 26.33,-28.33 15.07,-0.35 28.25,11.23 28.25,26.25l35.75 953.63c0.96,14.96 -11.28,27.64 -26.36,28.22l-0.93 0z"/><path class="fil1" d="M14301.69 12178.65c-15.05,0 -27.29,-11.29 -27.29,-25.77l-48.93 -890.76c-0.93,-15.04 11.29,-27.96 26.36,-28.73 16.94,-0.64 27.29,10.67 28.22,25.72l47.99 890.75c0.93,15.05 -10.35,27.93 -25.4,28.7l-0.96 0.08z"/><path class="fil1" d="M14683.77 12492.39c-14.11,0 -26.35,-10.91 -27.29,-25.21l-66.83 -867.2c-0.93,-14.96 10.35,-28.14 25.43,-29.29 13.18,-1.87 27.29,10.06 29.16,25.16l66.82 867.12c0.93,15.02 -10.35,28.22 -25.4,29.26l-1.89 0.16z"/><path class="fil1" d="M15045.16 12774.26c-13.18,0 -25.43,-10.43 -26.36,-24.44l-79.04 -760.6c-0.96,-14.96 9.39,-28.33 24.46,-29.85 14.11,-1.94 29.18,9.34 30.12,24.3l78.11 760.57c1.87,14.96 -9.42,28.33 -24.46,29.82l-2.83 0.19z"/><path class="fil1" d="M15399.96 12733.9c-13.18,0 -24.49,-9.5 -27.31,-22.97l-54.58 -339.83c-2.8,-14.96 7.55,-28.89 22.59,-31.24 15.05,-2.91 29.19,7.63 31.06,22.49l55.54 339.81c1.87,14.96 -8.48,28.92 -22.59,31.37l-4.7 0.37z"/><path class="fil4" d="M9757.18 10180.82c-1448.35,0 -2625.63,-1177.88 -2625.63,-2625.74 0,-124.69 8.45,-247.5 25.39,-367.68 26.36,91.29 55.54,181.64 87.53,271.03 0,142.77 16,201.59 67.76,369.47 34.84,122.26 68.72,244.79 112.95,364.11 43.27,116.23 116.69,371.18 330.31,662.91l0 0.19c197.62,239.98 489.38,496.8 620.17,588.72 308.67,207.62 450.78,288.48 746.28,357.17 191.06,47.43 359.52,64.64 511.02,64.64 181.64,0 339.75,-24.92 486.55,-52.2 563.7,-103.83 897.8,-221.57 1343.89,-544.07 15.04,-9.13 30.09,-15.05 46.09,-18.06 87.53,-66.64 173.16,-136.93 262.58,-216.8 103.5,-98.17 286.08,-304.09 300.19,-329.88 52.71,-62.1 88.46,-139.54 135.52,-206.48 -380.19,983.24 -1335.4,1682.68 -2450.58,1682.68zm-2184.27 -891.8c-3.76,-4.88 -8.46,-9.87 -13.18,-14.96 -197.62,-221.81 -308.67,-444.64 -383.95,-660.54 100.7,244.41 235.26,471.67 397.13,675.5zm4402.42 -44.52c113.85,-149.5 213.63,-310.73 296.43,-481.81 -7.52,18.54 -14.11,37.16 -20.7,55.7 -38.57,91.1 -80.94,181.24 -124.23,270.95 -41.41,47.41 -93.16,100.01 -151.5,155.15z"/><path class="fil1" d="M9667.79 10268.8c-102.6,0 -204.24,-8.16 -304.91,-26.52l-2.83 -0.59c-162.81,-19.18 -327.51,-38.39 -485.62,-84.32 -289.84,-94.12 -550.52,-256.04 -796.16,-433.28 -103.5,-85.05 -267.24,-176.73 -505.36,-435.07 -161.87,-203.83 -296.43,-431.09 -397.13,-675.5 -40.47,-116.42 -70.59,-230.83 -98.81,-341.89 -47.06,-366.75 -53.65,-736.3 -5.65,-1104.76 3.76,-0.27 7.52,-0.45 11.31,-0.45 25.39,0 49.86,5.92 72.45,16.17 0.93,1.6 0.93,3.2 1.87,4.8 -16.94,120.18 -25.39,243 -25.39,367.68 0,1447.87 1177.29,2625.74 2625.63,2625.74 1115.18,0 2070.39,-699.43 2450.58,-1682.68 20.7,-29.74 44.23,-57.41 71.52,-80.75 20.73,-12.41 43.3,-18.14 66.83,-18.14 17.87,0 35.77,3.47 51.75,9.98 -41.4,117.99 -83.74,235.74 -126.1,353.46 -82.8,171.08 -182.57,332.31 -296.43,481.81 -176.94,166.67 -419.73,357.36 -655.95,504.82 -48.93,36.71 -85.63,61.81 -189.17,126.13 -256.92,135.67 -537.34,221.71 -818.73,290.67 -135.52,36.44 -270.1,77.55 -410.34,89.15 -78.11,8.75 -156.22,13.52 -233.37,13.52z"/><path class="fil4" d="M12149.43 10483.17c-19.77,-14.65 -37.64,-32.39 -52.69,-52.05l52.69 52.05z"/><path class="fil4" d="M12401.65 10501.26l-224 -220.48c209.86,-186.71 398.09,-397.35 560.9,-627.43 88.46,78 176.92,156.59 265.38,235.63 -3.76,6.32 -6.59,12.54 -10.35,18.62 -37.64,62.61 -82.8,120.61 -130.8,176.09 10.35,-59.94 20.7,-119.7 31.99,-179.27 1.89,-14.86 -7.52,-28.97 -22.6,-31.74 -0.93,-0.24 -2.8,-0.35 -4.69,-0.35 -12.24,0 -24.46,9.04 -27.29,22.3 -16,88.94 -31.05,178.44 -46.12,268.1 -104.44,135.35 -234.33,251.37 -384.89,334.2 -2.83,1.5 -4.72,2.91 -7.52,4.32zm108.2 -464.15c-12.22,0 -22.57,8 -25.4,19.93l-63.06 219.41c-3.76,14.57 3.76,29.61 18.83,33.77l7.52 1.02c11.28,0 22.59,-7.71 26.35,-19.77l62.11 -219.47c4.72,-14.48 -3.76,-29.61 -18.81,-33.67 -1.9,-0.85 -4.72,-1.23 -7.55,-1.23z"/><path class="fil1" d="M12289.64 10530.6c-50.82,0 -99.74,-17.87 -140.21,-47.43l-52.69 -52.05c-12.24,-16.72 -23.53,-35.05 -32.01,-54.37 38.57,-31.24 76.24,-63.28 112.93,-95.98l224 220.48c-37.67,20.33 -75.31,29.34 -112.01,29.34zm714.29 -641.62c-88.46,-79.04 -176.92,-157.63 -265.38,-235.63 18.83,-26.92 37.64,-53.94 55.52,-81.39 1.89,0 3.76,-0.11 5.65,-0.11 18.83,0 39.54,2.83 61.17,9.02 129.86,34.46 200.45,188.42 143.04,308.11z"/><path class="fil1" d="M12064.73 10376.76c-30.11,-71.79 -26.35,-157.74 34.81,-232.67 24.49,-42.33 69.65,-61.41 109.19,-88.24l1.87 -2c195.75,-176.71 228.7,-165.05 347.28,-303.31l9.39 -10.8c55.54,-85.6 127.06,-165.05 226.8,-167.77 -17.87,27.45 -36.68,54.47 -55.52,81.39 -162.81,230.09 -351.04,440.72 -560.9,627.43 -36.68,32.7 -74.35,64.74 -112.93,95.98z"/><path class="fil1" d="M12447.75 10311.25l-7.52 -1.02c-15.07,-4.16 -22.59,-19.2 -18.83,-33.77l63.06 -219.41c2.83,-11.93 13.18,-19.93 25.4,-19.93 2.83,0 5.65,0.37 7.55,1.23 15.04,4.06 23.53,19.18 18.81,33.67l-62.11 219.47c-3.76,12.06 -15.07,19.77 -26.35,19.77z"/><path class="fil1" d="M12794.06 10162.74c15.07,-89.66 30.12,-179.16 46.12,-268.1 2.83,-13.26 15.05,-22.3 27.29,-22.3 1.89,0 3.76,0.11 4.69,0.35 15.07,2.78 24.49,16.89 22.6,31.74 -11.29,59.57 -21.64,119.32 -31.99,179.27 -18.83,22.14 -38.6,43.75 -57.41,65.22 -3.76,4.59 -7.55,9.23 -11.31,13.82z"/><path class="fil3" d="M9272.53 6853.78c-238.09,-22.49 -431.01,-245.05 -449.85,-483.24 -18.81,-238.2 115.75,-473.83 314.33,-607.67 197.62,-133.92 448.89,-173.8 686.04,-144.72 303.98,37.16 600.43,191.7 769.83,446.65 169.39,254.92 190.09,612.55 16.94,864.93 -154.35,225.5 -446.08,364.4 -507.25,631 -42.36,188.61 35.74,421.89 -102.57,556.66 -109.19,105.96 -303.98,72.27 -407.51,-38.98 -104.44,-111.13 -132.69,-273.57 -128.93,-425.65 2.83,-88.09 15.07,-176.92 47.99,-258.89 134.58,-337.46 589.13,-522.67 595.71,-885.93 2.83,-173.16 -118.57,-341.33 -284.21,-392.44 -131.73,-40.84 -308.68,16.65 -334.07,152.83 -17.87,92.14 37.64,181.35 50.82,274.34 16,125.06 -55.54,256.9 -267.27,311.1z"/><path class="fil1" d="M9734.59 6020.75c38.6,0 77.17,5.36 112.95,16.54 202.31,62.31 345.38,260.98 341.59,472.26 -4.69,239.87 -170.33,405.13 -329.37,564.93 -113.85,113.21 -220.21,220.21 -271.97,349.7 -25.42,64 -39.53,139.57 -42.36,231.04 -2.8,112.18 13.18,266.9 106.36,367.39 43.3,45.94 109.16,75.5 174.09,77.09 32.94,-0.19 80,-5.76 116.71,-41.13 64,-62.1 64,-164.89 63.04,-283.84 0,-76.4 0,-155.36 16.94,-232.17 43.3,-188.68 180.71,-315.82 313.4,-438.91 78.11,-72.56 152.45,-141.06 207.04,-220.32 147.76,-215.97 140.21,-533.96 -18.83,-773.3 -145.87,-220.48 -412.18,-373.98 -711.46,-410.68 -238.09,-29.37 -462.07,17.5 -630.53,131.28 -184.44,125.17 -293.6,334.47 -277.62,533.31 16,202.15 176.94,381.42 361.39,406.74 135.52,-38.68 206.1,-117.24 191.99,-217.2 -3.76,-28.04 -13.18,-58.05 -22.59,-89.87 -19.77,-62.21 -41.41,-132.77 -27.29,-210.43 14.11,-74.06 60.24,-137.97 129.86,-180.04 57.41,-34.44 127.06,-52.39 196.68,-52.39zm96.01 2242.69l-9.42 -0.11c-108.22,-2.61 -216.45,-50.9 -288.91,-129.01 -104.46,-111.72 -156.24,-279.04 -150.59,-483.91 3.76,-110.95 20.7,-204.77 53.65,-286.85 64,-160.83 188.23,-284.85 308.67,-404.84 143.04,-143.22 277.62,-278.37 281.38,-452.38 2.83,-137.6 -94.11,-271.97 -225.87,-312.54 -57.38,-17.61 -127.96,-9.5 -176.92,19.66 -30.12,18.27 -47.99,41.8 -53.65,70.21 -6.59,37.37 6.59,80.75 22.59,131.01 11.28,36.97 23.53,75.28 29.19,117.16 19.77,148.32 -56.48,331.64 -328.44,401.27 -8.48,2.37 -17.9,3.2 -27.29,2.16 -271.04,-25.5 -500.67,-270.63 -524.19,-558.15 -20.7,-256.73 116.68,-524.46 350.07,-682.09 200.45,-136 463.96,-192.18 742.52,-158.19 345.38,42.44 655.01,222.83 827.24,482.68 194.79,293.42 202.31,686.79 16.94,956.52 -64.96,94.3 -148.7,172.3 -230.57,247.8 -119.54,110.95 -232.46,215.79 -264.44,355.07 -13.18,58.53 -13.18,124.98 -13.18,195.19 0.93,136.63 0.93,291.44 -112.95,402.01 -57.41,56.48 -137.38,87.34 -225.84,87.34z"/><path class="fil3" d="M9913.4 8547.18c-113.88,-39.32 -246.57,-20.22 -343.48,51.3 -96.94,71.63 -154.35,193.96 -145.87,313.96 12.22,163.34 152.46,308.01 315.26,324.76 162.81,16.65 330.31,-96.28 374.54,-253.83 45.19,-157.52 -21.63,-374.35 -200.45,-436.19z"/><path class="fil1" d="M9791.99 8609.12c-62.1,0 -124.2,19.1 -173.15,55.22 -75.28,55.43 -119.51,150.48 -112.93,242.14 9.42,124.61 117.65,236.41 241.85,249.21 123.3,12.8 253.16,-74.54 287.97,-194.79 34.81,-122.56 -17.87,-290.91 -149.63,-336.37 -30.12,-10.46 -62.11,-15.42 -94.12,-15.42zm-19.76 711.52c-14.11,0 -27.29,-0.61 -41.41,-2.06 -202.34,-20.81 -373.6,-196.58 -387.71,-400.23 -11.31,-146.35 59.27,-297.68 177.85,-385.66 118.58,-87.34 278.56,-111.61 418.8,-62.88 221.15,76.51 309.61,338.9 253.16,536.04 -51.78,183.03 -232.46,314.78 -420.68,314.78z"/><polygon class="fil2" points="1536.79,12804.97 3919.62,12804.97 3919.62,8150.79 1536.79,8150.79 "/><path class="fil1" d="M1618.66 12723.1l2219.09 0 0 -4490.43 -2219.09 0 0 4490.43zm2300.96 163.74l-2382.83 0c-45.19,0 -81.9,-36.71 -81.9,-81.87l0 -4654.17c0,-45.16 36.71,-81.87 81.9,-81.87l2382.83 0c45.16,0 81.87,36.71 81.87,81.87l0 4654.17c0,45.16 -36.71,81.87 -81.87,81.87z"/><path class="fil1" d="M2117.43 12631.78l-17.87 -6.96c-136.48,-121.86 -267.27,-252.68 -390.57,-388.68 -10.35,-11.18 -9.39,-28.41 1.89,-38.55 11.28,-10 28.22,-9.15 38.57,1.95 121.41,134.58 251.29,263.96 385.85,384.62 11.31,10.08 12.24,27.31 2.83,38.6l-20.7 9.02z"/><path class="fil1" d="M2696.2 12632.26l-18.83 -7.74 -924.16 -904.09c-11.28,-10.51 -11.28,-27.82 -0.93,-38.57 10.35,-10.83 28.25,-10.91 38.6,-0.48l924.13 904.12c11.31,10.54 11.31,27.85 0.96,38.6l-19.77 8.17z"/><path class="fil1" d="M3216.61 12602.33l-19.74 -8.27 -1458.7 -1500.31c-10.35,-10.8 -10.35,-28.01 0.93,-38.55 10.35,-10.46 28.25,-10.27 38.6,0.54l1457.74 1500.31c10.35,10.81 10.35,28.06 0,38.57l-18.83 7.71z"/><path class="fil1" d="M3693.75 12420.13l-19.77 -7.79c-642.74,-628.47 -1285.52,-1276.31 -1911.35,-1925.48 -10.35,-10.91 -10.35,-28.12 0.96,-38.65 10.35,-10.38 27.29,-10.19 38.57,0.72 624.87,648.8 1267.64,1296.29 1910.41,1924.44 10.35,10.54 10.35,27.77 0,38.57l-18.83 8.19z"/><path class="fil1" d="M3688.12 11711.97l-17.9 -6.88c-654.05,-579.79 -1294,-1195.91 -1902.87,-1831.16 -10.35,-10.91 -10.35,-28.14 0.94,-38.6 10.35,-10.43 28.22,-9.95 38.57,0.85 607,634.1 1246.01,1249.23 1899.13,1828.06 11.28,10.08 12.22,27.29 2.83,38.6l-20.7 9.12z"/><path class="fil1" d="M3675.87 11136.32l-18.83 -7.52c-641.81,-614.17 -1284.58,-1246.46 -1910.39,-1879.57 -10.37,-10.7 -10.37,-28.06 0,-38.57 11.29,-10.72 28.22,-10.43 38.57,0.19 625.83,632.72 1268.57,1264.74 1909.48,1878.51 10.35,10.43 11.28,27.69 0.93,38.6l-19.77 8.37z"/><path class="fil1" d="M3681.53 10499.1l-18.83 -7.52 -1902.89 -1813.68c-11.28,-10.35 -11.28,-27.67 -0.93,-38.57 10.35,-10.91 27.29,-11.28 38.6,-0.93l1902.86 1813.65c11.31,10.33 11.31,27.64 0.94,38.57l-19.74 8.48z"/><path class="fil1" d="M3696.57 9855.77l-17.87 -6.96c-506.32,-454.09 -998.5,-937.52 -1464.33,-1437.04 -10.35,-11.02 -9.42,-28.33 0.93,-38.6 11.28,-10.16 28.22,-9.57 38.57,1.33 464.89,498.29 956.14,980.71 1460.57,1433.76 11.31,10.06 12.24,27.26 2.83,38.47l-20.7 9.04z"/><path class="fil1" d="M3678.7 9186.19l-18.83 -7.63c-262.55,-251.37 -523.23,-509.23 -777.33,-766.23 -10.35,-10.72 -10.35,-28.04 0,-38.57 11.29,-10.65 28.22,-10.46 38.57,0.19 253.16,256.71 514.78,514.19 776.39,765.3 10.35,10.43 11.31,27.74 0.96,38.55l-19.77 8.41z"/><path class="fil1" d="M3688.12 8650.71l-17.9 -6.32c-86.57,-72.74 -172.22,-150.75 -252.2,-232.06 -10.35,-10.72 -10.35,-27.96 0,-38.57 11.28,-10.65 28.22,-10.46 38.57,0.19 79.07,80.08 162.81,156.96 248.46,228.48 12.22,9.69 13.15,26.92 3.76,38.5l-20.7 9.79z"/><path class="fil5" d="M7750.79 10924.94c-44.23,-5.47 -86.59,-19.77 -124.23,-44.79 -38.57,-17.15 -120.44,-107.11 -139.28,-130.74 -29.18,-27.74 -57.41,-55.62 -86.59,-82.78 -293.6,-264.47 -500.64,-575.97 -723.68,-876.35 -64,-78.11 -37.64,-170.59 32.94,-232.54 272.9,413.52 627.7,768.28 1040.84,1041.51l0 325.69z"/><path class="fil1" d="M7792.19 10927.36c-14.11,0 -27.29,-0.72 -41.4,-2.43l0 -325.69c25.4,16.83 51.75,33.48 77.17,49.78 0,0 0,0.06 0,0.19 -1.89,91.02 10.35,182.73 30.09,272.34 -21.64,3.87 -44.23,5.81 -65.87,5.81z"/><path class="fil1" d="M7827.96 10649.02c-25.42,-16.3 -51.78,-32.94 -77.17,-49.78 -413.14,-273.22 -767.94,-627.99 -1040.84,-1041.51 28.22,-24.57 63.04,-44.33 102.57,-56.55 58.34,116.31 128,189.99 227.74,285.78 99.74,96.38 171.29,215.79 276.69,306.99 172.22,147.55 350.07,288.06 538.3,413.7 -16,43.75 -26.35,91.1 -27.29,141.36z"/><polygon class="fil4" points="11634.65,11027.51 11650.65,11014.6 11650.65,11014.6 11657.25,11009.64 "/><polygon class="fil4" points="11631.82,11029 11634.65,11027.51 11633.71,11027.69 "/><path class="fil4" d="M10073.38 11452.81c-22.57,0 -46.1,-0.32 -68.69,-0.85 -192.93,-9.52 -381.13,-49.59 -566.53,-100.04l0 -163.66c105.4,9.12 211.73,13.71 319.02,13.71 693.59,0 1343.88,-194.98 1896.3,-533 1.87,0.19 3.76,0.26 4.7,0.43l0 339.27c-2.83,2 -4.7,3.98 -7.52,5.92l0 0c-22.59,17.98 -46.12,35.43 -69.65,51.78 -186.33,121.41 -401.83,194.82 -613.59,259.94 -290.8,78.67 -591.95,126.5 -894.04,126.5z"/><path class="fil1" d="M9438.16 11351.92c-33.88,-9.44 -68.69,-19.21 -102.57,-29.19 -2.83,-48.69 -6.59,-97.31 -8.48,-145.97 36.71,4.45 74.35,8.19 111.06,11.5l0 163.66zm2220.02 -343.25l0 -339.27c74.35,8.88 139.28,73.55 137.41,152.56 1.87,86.99 -73.41,137.78 -137.41,186.71z"/><path class="fil1" d="M9757.18 11201.97c-107.29,0 -213.63,-4.59 -319.02,-13.71 -36.71,-3.31 -74.35,-7.04 -111.06,-11.5 -2.83,-48.26 -4.7,-96.54 -5.65,-144.91 17.9,2.35 34.84,4.88 53.65,6.67 31.05,2.8 62.13,3.87 93.18,3.87 47.06,0 94.09,-2.27 141.15,-3.79 83.76,23.34 168.46,41.88 255.99,51.03 80.93,10.91 175.98,17.02 279.49,17.02 291.76,0 651.25,-48.44 968.39,-174.65 145.87,-62.61 179.74,-59.86 361.39,-174.22 64.93,-36.49 16.94,-32.28 127.03,-83.84 13.18,-3.76 26.36,-5.55 39.54,-5.55 3.76,0 8.48,0.19 12.24,0.59 -552.42,338.02 -1202.71,533 -1896.3,533z"/></g></g></svg>