<svg width="103" height="17" viewBox="0 0 103 17" fill="none" xmlns="http://www.w3.org/2000/svg">
<path d="M10.864 10.084H4.564L3.322 13H0.91L6.58 0.399999H8.884L14.572 13H12.124L10.864 10.084ZM10.09 8.248L7.714 2.74L5.356 8.248H10.09ZM21.2864 3.28C22.2224 3.28 23.0564 3.484 23.7884 3.892C24.5324 4.3 25.1144 4.876 25.5344 5.62C25.9544 6.364 26.1644 7.222 26.1644 8.194C26.1644 9.166 25.9544 10.03 25.5344 10.786C25.1144 11.53 24.5324 12.106 23.7884 12.514C23.0564 12.922 22.2224 13.126 21.2864 13.126C19.9904 13.126 18.9644 12.694 18.2084 11.83V16.492H15.9584V3.388H18.1004V4.648C18.4724 4.192 18.9284 3.85 19.4684 3.622C20.0204 3.394 20.6264 3.28 21.2864 3.28ZM21.0344 11.2C21.8624 11.2 22.5404 10.924 23.0684 10.372C23.6084 9.82 23.8784 9.094 23.8784 8.194C23.8784 7.294 23.6084 6.568 23.0684 6.016C22.5404 5.464 21.8624 5.188 21.0344 5.188C20.4944 5.188 20.0084 5.314 19.5764 5.566C19.1444 5.806 18.8024 6.154 18.5504 6.61C18.2984 7.066 18.1724 7.594 18.1724 8.194C18.1724 8.794 18.2984 9.322 18.5504 9.778C18.8024 10.234 19.1444 10.588 19.5764 10.84C20.0084 11.08 20.4944 11.2 21.0344 11.2ZM31.8472 3.28C33.2632 3.28 34.3432 3.622 35.0872 4.306C35.8432 4.978 36.2212 5.998 36.2212 7.366V13H34.0972V11.83C33.8212 12.25 33.4252 12.574 32.9092 12.802C32.4052 13.018 31.7932 13.126 31.0732 13.126C30.3532 13.126 29.7232 13.006 29.1832 12.766C28.6432 12.514 28.2232 12.172 27.9232 11.74C27.6352 11.296 27.4912 10.798 27.4912 10.246C27.4912 9.382 27.8092 8.692 28.4452 8.176C29.0932 7.648 30.1072 7.384 31.4872 7.384H33.9712V7.24C33.9712 6.568 33.7672 6.052 33.3592 5.692C32.9632 5.332 32.3692 5.152 31.5772 5.152C31.0372 5.152 30.5032 5.236 29.9752 5.404C29.4592 5.572 29.0212 5.806 28.6612 6.106L27.7792 4.468C28.2832 4.084 28.8892 3.79 29.5972 3.586C30.3052 3.382 31.0552 3.28 31.8472 3.28ZM31.5412 11.488C32.1052 11.488 32.6032 11.362 33.0352 11.11C33.4792 10.846 33.7912 10.474 33.9712 9.994V8.878H31.6492C30.3532 8.878 29.7052 9.304 29.7052 10.156C29.7052 10.564 29.8672 10.888 30.1912 11.128C30.5152 11.368 30.9652 11.488 31.5412 11.488ZM41.2508 4.792C41.8988 3.784 43.0388 3.28 44.6708 3.28V5.422C44.4788 5.386 44.3048 5.368 44.1488 5.368C43.2728 5.368 42.5888 5.626 42.0968 6.142C41.6048 6.646 41.3588 7.378 41.3588 8.338V13H39.1088V3.388H41.2508V4.792ZM52.7091 12.478C52.4451 12.694 52.1211 12.856 51.7371 12.964C51.3651 13.072 50.9691 13.126 50.5491 13.126C49.4931 13.126 48.6771 12.85 48.1011 12.298C47.5251 11.746 47.2371 10.942 47.2371 9.886V5.26H45.6531V3.46H47.2371V1.264H49.4871V3.46H52.0611V5.26H49.4871V9.832C49.4871 10.3 49.6011 10.66 49.8291 10.912C50.0571 11.152 50.3871 11.272 50.8191 11.272C51.3231 11.272 51.7431 11.14 52.0791 10.876L52.7091 12.478ZM66.692 3.28C67.904 3.28 68.864 3.634 69.572 4.342C70.28 5.038 70.634 6.088 70.634 7.492V13H68.384V7.78C68.384 6.94 68.198 6.31 67.826 5.89C67.454 5.458 66.92 5.242 66.224 5.242C65.468 5.242 64.862 5.494 64.406 5.998C63.95 6.49 63.722 7.198 63.722 8.122V13H61.472V7.78C61.472 6.94 61.286 6.31 60.914 5.89C60.542 5.458 60.008 5.242 59.312 5.242C58.544 5.242 57.932 5.488 57.476 5.98C57.032 6.472 56.81 7.186 56.81 8.122V13H54.56V3.388H56.702V4.612C57.062 4.18 57.512 3.85 58.052 3.622C58.592 3.394 59.192 3.28 59.852 3.28C60.572 3.28 61.208 3.418 61.76 3.694C62.324 3.958 62.768 4.354 63.092 4.882C63.488 4.378 63.998 3.988 64.622 3.712C65.246 3.424 65.936 3.28 66.692 3.28ZM82.6331 8.248C82.6331 8.404 82.6211 8.626 82.5971 8.914H75.0551C75.1871 9.622 75.5291 10.186 76.0811 10.606C76.6451 11.014 77.3411 11.218 78.1691 11.218C79.2251 11.218 80.0951 10.87 80.7791 10.174L81.9851 11.56C81.5531 12.076 81.0071 12.466 80.3471 12.73C79.6871 12.994 78.9431 13.126 78.1151 13.126C77.0591 13.126 76.1291 12.916 75.3251 12.496C74.5211 12.076 73.8971 11.494 73.4531 10.75C73.0211 9.994 72.8051 9.142 72.8051 8.194C72.8051 7.258 73.0151 6.418 73.4351 5.674C73.8671 4.918 74.4611 4.33 75.2171 3.91C75.9731 3.49 76.8251 3.28 77.7731 3.28C78.7091 3.28 79.5431 3.49 80.2751 3.91C81.0191 4.318 81.5951 4.9 82.0031 5.656C82.4231 6.4 82.6331 7.264 82.6331 8.248ZM77.7731 5.08C77.0531 5.08 76.4411 5.296 75.9371 5.728C75.4451 6.148 75.1451 6.712 75.0371 7.42H80.4911C80.3951 6.724 80.1011 6.16 79.6091 5.728C79.1171 5.296 78.5051 5.08 77.7731 5.08ZM90.2484 3.28C91.4604 3.28 92.4324 3.634 93.1644 4.342C93.8964 5.05 94.2624 6.1 94.2624 7.492V13H92.0124V7.78C92.0124 6.94 91.8144 6.31 91.4184 5.89C91.0224 5.458 90.4584 5.242 89.7264 5.242C88.8984 5.242 88.2444 5.494 87.7644 5.998C87.2844 6.49 87.0444 7.204 87.0444 8.14V13H84.7944V3.388H86.9364V4.63C87.3084 4.186 87.7764 3.85 88.3404 3.622C88.9044 3.394 89.5404 3.28 90.2484 3.28ZM102.895 12.478C102.631 12.694 102.307 12.856 101.923 12.964C101.551 13.072 101.155 13.126 100.735 13.126C99.6786 13.126 98.8626 12.85 98.2866 12.298C97.7106 11.746 97.4226 10.942 97.4226 9.886V5.26H95.8386V3.46H97.4226V1.264H99.6726V3.46H102.247V5.26H99.6726V9.832C99.6726 10.3 99.7866 10.66 100.015 10.912C100.243 11.152 100.573 11.272 101.005 11.272C101.509 11.272 101.929 11.14 102.265 10.876L102.895 12.478Z" fill="white"/>
</svg>
