<svg width="58" height="14" viewBox="0 0 58 14" fill="none" xmlns="http://www.w3.org/2000/svg">
<path d="M11.888 0.399999V13H9.548V7.6H3.032V13H0.692V0.399999H3.032V5.602H9.548V0.399999H11.888ZM19.3683 13.126C18.3963 13.126 17.5203 12.916 16.7403 12.496C15.9603 12.076 15.3483 11.494 14.9043 10.75C14.4723 9.994 14.2563 9.142 14.2563 8.194C14.2563 7.246 14.4723 6.4 14.9043 5.656C15.3483 4.912 15.9603 4.33 16.7403 3.91C17.5203 3.49 18.3963 3.28 19.3683 3.28C20.3523 3.28 21.2343 3.49 22.0143 3.91C22.7943 4.33 23.4003 4.912 23.8323 5.656C24.2763 6.4 24.4983 7.246 24.4983 8.194C24.4983 9.142 24.2763 9.994 23.8323 10.75C23.4003 11.494 22.7943 12.076 22.0143 12.496C21.2343 12.916 20.3523 13.126 19.3683 13.126ZM19.3683 11.2C20.1963 11.2 20.8803 10.924 21.4203 10.372C21.9603 9.82 22.2303 9.094 22.2303 8.194C22.2303 7.294 21.9603 6.568 21.4203 6.016C20.8803 5.464 20.1963 5.188 19.3683 5.188C18.5403 5.188 17.8563 5.464 17.3163 6.016C16.7883 6.568 16.5243 7.294 16.5243 8.194C16.5243 9.094 16.7883 9.82 17.3163 10.372C17.8563 10.924 18.5403 11.2 19.3683 11.2ZM35.9558 3.388V13H33.8138V11.776C33.4538 12.208 33.0038 12.544 32.4638 12.784C31.9238 13.012 31.3418 13.126 30.7178 13.126C29.4338 13.126 28.4198 12.772 27.6758 12.064C26.9438 11.344 26.5778 10.282 26.5778 8.878V3.388H28.8278V8.572C28.8278 9.436 29.0198 10.084 29.4038 10.516C29.7998 10.936 30.3578 11.146 31.0778 11.146C31.8818 11.146 32.5178 10.9 32.9858 10.408C33.4658 9.904 33.7058 9.184 33.7058 8.248V3.388H35.9558ZM41.8718 13.126C41.0918 13.126 40.3298 13.024 39.5858 12.82C38.8418 12.616 38.2478 12.358 37.8038 12.046L38.6678 10.336C39.0998 10.624 39.6158 10.858 40.2158 11.038C40.8278 11.206 41.4278 11.29 42.0158 11.29C43.3598 11.29 44.0318 10.936 44.0318 10.228C44.0318 9.892 43.8578 9.658 43.5098 9.526C43.1738 9.394 42.6278 9.268 41.8718 9.148C41.0798 9.028 40.4318 8.89 39.9278 8.734C39.4358 8.578 39.0038 8.308 38.6318 7.924C38.2718 7.528 38.0918 6.982 38.0918 6.286C38.0918 5.374 38.4698 4.648 39.2258 4.108C39.9938 3.556 41.0258 3.28 42.3218 3.28C42.9818 3.28 43.6418 3.358 44.3018 3.514C44.9618 3.658 45.5018 3.856 45.9218 4.108L45.0578 5.818C44.2418 5.338 43.3238 5.098 42.3038 5.098C41.6438 5.098 41.1398 5.2 40.7918 5.404C40.4558 5.596 40.2878 5.854 40.2878 6.178C40.2878 6.538 40.4678 6.796 40.8278 6.952C41.1998 7.096 41.7698 7.234 42.5378 7.366C43.3058 7.486 43.9358 7.624 44.4278 7.78C44.9198 7.936 45.3398 8.2 45.6878 8.572C46.0478 8.944 46.2278 9.472 46.2278 10.156C46.2278 11.056 45.8378 11.776 45.0578 12.316C44.2778 12.856 43.2158 13.126 41.8718 13.126ZM57.2015 8.248C57.2015 8.404 57.1895 8.626 57.1655 8.914H49.6235C49.7555 9.622 50.0975 10.186 50.6495 10.606C51.2135 11.014 51.9095 11.218 52.7375 11.218C53.7935 11.218 54.6635 10.87 55.3475 10.174L56.5535 11.56C56.1215 12.076 55.5755 12.466 54.9155 12.73C54.2555 12.994 53.5115 13.126 52.6835 13.126C51.6275 13.126 50.6975 12.916 49.8935 12.496C49.0895 12.076 48.4655 11.494 48.0215 10.75C47.5895 9.994 47.3735 9.142 47.3735 8.194C47.3735 7.258 47.5835 6.418 48.0035 5.674C48.4355 4.918 49.0295 4.33 49.7855 3.91C50.5415 3.49 51.3935 3.28 52.3415 3.28C53.2775 3.28 54.1115 3.49 54.8435 3.91C55.5875 4.318 56.1635 4.9 56.5715 5.656C56.9915 6.4 57.2015 7.264 57.2015 8.248ZM52.3415 5.08C51.6215 5.08 51.0095 5.296 50.5055 5.728C50.0135 6.148 49.7135 6.712 49.6055 7.42H55.0595C54.9635 6.724 54.6695 6.16 54.1775 5.728C53.6855 5.296 53.0735 5.08 52.3415 5.08Z" fill="white"/>
</svg>
