<svg width="73" height="19" viewBox="0 0 73 19" fill="none" xmlns="http://www.w3.org/2000/svg">
<path d="M8.4561 0.770508H11.2383V13.9999H8.4561V8.56165H2.78958V13.9999H0.00732422V0.770508H2.78958V6.17212H8.4561V0.770508Z" fill="white"/>
<path d="M18.7504 14.183C17.7365 14.183 16.8369 13.9907 16.0516 13.6062C15.2664 13.2217 14.6482 12.6571 14.1968 11.9125C13.7517 11.1678 13.5291 10.292 13.5291 9.28491C13.5291 7.77734 14.0113 6.58716 14.9758 5.71436C15.9404 4.84155 17.1986 4.40515 18.7504 4.40515C20.3085 4.40515 21.5698 4.84155 22.5343 5.71436C23.4988 6.58716 23.9811 7.77734 23.9811 9.28491C23.9811 10.7986 23.4988 11.9949 22.5343 12.8738C21.5698 13.7466 20.3085 14.183 18.7504 14.183ZM18.7226 12.0864C19.5016 12.0864 20.1292 11.8301 20.6053 11.3174C21.0875 10.8047 21.3287 10.1272 21.3287 9.28491C21.3287 8.44263 21.0875 7.76514 20.6053 7.25244C20.1292 6.73975 19.5016 6.4834 18.7226 6.4834C17.9745 6.4834 17.3624 6.7428 16.8863 7.2616C16.4164 7.77429 16.1815 8.44873 16.1815 9.28491C16.1815 10.1211 16.4164 10.7986 16.8863 11.3174C17.3624 11.8301 17.9745 12.0864 18.7226 12.0864Z" fill="white"/>
<path d="M32.2907 4.58826H34.9617V13.9999H32.4298L32.3649 12.8646C31.6601 13.7435 30.6492 14.183 29.3323 14.183C28.1884 14.183 27.3105 13.9022 26.6984 13.3407C26.0863 12.7731 25.7803 11.9674 25.7803 10.9237V4.58826H28.4605V10.3561C28.4605 10.942 28.6182 11.3723 28.9335 11.647C29.255 11.9216 29.6692 12.059 30.1762 12.059C30.7945 12.059 31.2984 11.882 31.6879 11.528C32.0836 11.1678 32.2845 10.585 32.2907 9.7793V4.58826Z" fill="white"/>
<path d="M44.6903 4.58826L40.4984 11.9674H44.5605V13.9999H36.7052L40.8786 6.62073H37.0298V4.58826H44.6903Z" fill="white"/>
<path d="M47.8899 3.17834C47.4633 3.17834 47.0985 3.03186 46.7955 2.73889C46.4926 2.43982 46.3411 2.07971 46.3411 1.65857C46.3411 1.24353 46.4926 0.889526 46.7955 0.596558C47.1047 0.297485 47.4695 0.147949 47.8899 0.147949C48.3041 0.147949 48.6627 0.297485 48.9657 0.596558C49.2686 0.889526 49.4201 1.24353 49.4201 1.65857C49.4201 2.07971 49.2686 2.43982 48.9657 2.73889C48.6627 3.03186 48.3041 3.17834 47.8899 3.17834ZM46.5266 13.9999V4.58826H49.2161V13.9999H46.5266Z" fill="white"/>
<path d="M57.6092 4.40515C58.753 4.40515 59.631 4.68896 60.2431 5.25659C60.8552 5.81812 61.1612 6.62073 61.1612 7.66443V13.9999H58.481V8.23206C58.481 7.64001 58.3202 7.20667 57.9987 6.93201C57.6834 6.65735 57.2753 6.52002 56.7745 6.52002C56.484 6.52002 56.2181 6.55969 55.977 6.63904C55.7358 6.71838 55.5133 6.84351 55.3092 7.0144C55.1052 7.1792 54.9444 7.41418 54.827 7.71936C54.7157 8.02454 54.6569 8.3877 54.6508 8.80884V13.9999H51.9798V4.58826H54.6508V5.63196C55.3556 4.81409 56.3418 4.40515 57.6092 4.40515Z" fill="white"/>
<path d="M70.3241 4.58826H72.8652V13.2949C72.8652 14.1921 72.7447 14.9734 72.5035 15.6387C72.2686 16.304 71.9255 16.838 71.4741 17.2408C71.0228 17.6498 70.4941 17.9519 69.8882 18.1472C69.2823 18.3425 68.5898 18.4402 67.8108 18.4402C65.2944 18.4402 63.656 17.4667 62.8955 15.5197L65.112 14.5858C65.3841 15.2023 65.7272 15.657 66.1415 15.95C66.5557 16.2429 67.0782 16.3894 67.7088 16.3894C69.3596 16.3894 70.185 15.422 70.185 13.4872V12.3885C69.9006 12.7731 69.4987 13.0844 68.9794 13.3224C68.4662 13.5543 67.9036 13.6703 67.2915 13.6703C66.7041 13.6703 66.1446 13.5604 65.6128 13.3407C65.0873 13.1149 64.6267 12.8036 64.231 12.4069C63.8353 12.004 63.52 11.5096 63.285 10.9237C63.0563 10.3378 62.9419 9.703 62.9419 9.01941C62.9419 8.32971 63.0563 7.69495 63.285 7.11511C63.52 6.52917 63.8353 6.04089 64.231 5.65027C64.6329 5.25964 65.0966 4.95447 65.6221 4.73474C66.1538 4.51501 66.7165 4.40515 67.31 4.40515C67.9654 4.40515 68.5527 4.53638 69.0721 4.79883C69.5976 5.05518 69.9933 5.40002 70.2592 5.83337L70.3241 4.58826ZM66.2249 10.8138C66.701 11.296 67.2853 11.5371 67.9777 11.5371C68.6702 11.5371 69.2545 11.293 69.7306 10.8047C70.2066 10.3164 70.4447 9.72131 70.4447 9.01941C70.4447 8.3114 70.2066 7.71326 69.7306 7.22498C69.2607 6.73669 68.6764 6.49255 67.9777 6.49255C67.2729 6.49255 66.6855 6.73364 66.2157 7.21582C65.7519 7.69189 65.5201 8.29309 65.5201 9.01941C65.5201 9.73352 65.755 10.3317 66.2249 10.8138Z" fill="white"/>
</svg>
