<svg width="35" height="35" viewBox="0 0 35 35" fill="none" xmlns="http://www.w3.org/2000/svg">
<rect width="35" height="35" rx="17.5" fill="#F6F8F9"/>
<path d="M23.7574 12.3652C22.1262 10.813 19.4711 10.813 17.8393 12.3649L17.5 12.6872L17.1611 12.365C15.5292 10.8129 12.8744 10.8131 11.2425 12.365C10.4412 13.1272 10 14.1381 10 15.2112C10 16.2847 10.4412 17.2954 11.2426 18.0579L17.1377 23.6545C17.2391 23.751 17.3697 23.7991 17.5 23.7991C17.6303 23.7991 17.7607 23.7508 17.8623 23.6543L23.7574 18.0579C24.5586 17.2956 25 16.2847 25 15.2114C25 14.1381 24.5586 13.1273 23.7574 12.3652ZM23.0321 17.2947L17.5 22.547L11.9681 17.2949C11.3777 16.7335 11.0526 15.9935 11.0526 15.2114C11.0526 14.4293 11.3777 13.6893 11.9681 13.1279C12.5839 12.5419 13.3926 12.2491 14.2016 12.2491C15.0107 12.2491 15.8198 12.5422 16.4356 13.1282L17.1374 13.7947C17.3405 13.9879 17.6593 13.9879 17.8625 13.7947L18.5644 13.1279C19.7961 11.9561 21.8002 11.9561 23.0319 13.1279C23.6221 13.6893 23.9474 14.4293 23.9474 15.2114C23.9474 15.9935 23.6221 16.7333 23.0321 17.2947Z" fill="#696969"/>
</svg>
