<svg width="19" height="15" viewBox="0 0 19 15" fill="none" xmlns="http://www.w3.org/2000/svg">
<path d="M17.2372 6.62462V2.39349C17.2372 1.46067 16.4782 0.701744 15.5454 0.701744H3.45459C2.52177 0.701744 1.76284 1.46067 1.76284 2.39349V6.62462C0.74768 6.90565 0 7.8371 0 8.94043V12.1553C0 12.4668 0.252566 12.7194 0.564062 12.7194H1.76284V13.7341C1.76284 14.0456 2.01541 14.2982 2.32691 14.2982C2.6384 14.2982 2.89097 14.0456 2.89097 13.7341V12.7194H16.109V13.7341C16.109 14.0456 16.3616 14.2982 16.6731 14.2982C16.9846 14.2982 17.2372 14.0456 17.2372 13.7341V12.7194H18.4359C18.7474 12.7194 19 12.4668 19 12.1553V8.94043C19 7.8371 18.2523 6.90565 17.2372 6.62462ZM2.89097 2.39349C2.89097 2.08273 3.14383 1.82987 3.45459 1.82987H15.5455C15.8562 1.82987 16.1091 2.08273 16.1091 2.39349V6.53734H14.7874V5.4051C14.7874 4.42055 13.9864 3.61958 13.0019 3.61958H10.7215C10.2493 3.61958 9.81966 3.80412 9.50004 4.10453C9.18041 3.80416 8.75076 3.61958 8.27858 3.61958H5.99817C5.01362 3.61958 4.21266 4.42059 4.21266 5.4051V6.53734H2.89097V2.39349ZM13.6593 5.4051V6.53734H10.0641V5.4051C10.0641 5.04258 10.359 4.7477 10.7215 4.7477H13.0019C13.3644 4.7477 13.6593 5.04261 13.6593 5.4051ZM8.9359 5.4051V6.53734H5.34067V5.4051C5.34067 5.04258 5.63562 4.7477 5.99806 4.7477H8.27847C8.64099 4.7477 8.9359 5.04261 8.9359 5.4051ZM17.8719 11.5913H1.12812V8.94043C1.12812 8.23743 1.70005 7.66547 2.40309 7.66547H16.5969C17.2999 7.66547 17.8719 8.2374 17.8719 8.94043V11.5913Z" fill="#696969"/>
</svg>
