<svg width="56" height="15" viewBox="0 0 56 15" fill="none" xmlns="http://www.w3.org/2000/svg">
<path d="M7.578 14.18C6.294 14.18 5.136 13.904 4.104 13.352C3.072 12.788 2.262 12.014 1.674 11.03C1.086 10.034 0.792 8.924 0.792 7.7C0.792 6.476 1.086 5.372 1.674 4.388C2.262 3.392 3.072 2.618 4.104 2.066C5.136 1.502 6.294 1.22 7.578 1.22C8.862 1.22 10.02 1.502 11.052 2.066C12.084 2.618 12.894 3.386 13.482 4.37C14.07 5.354 14.364 6.464 14.364 7.7C14.364 8.936 14.07 10.046 13.482 11.03C12.894 12.014 12.084 12.788 11.052 13.352C10.02 13.904 8.862 14.18 7.578 14.18ZM7.578 12.128C8.418 12.128 9.174 11.942 9.846 11.57C10.518 11.186 11.046 10.658 11.43 9.986C11.814 9.302 12.006 8.54 12.006 7.7C12.006 6.86 11.814 6.104 11.43 5.432C11.046 4.748 10.518 4.22 9.846 3.848C9.174 3.464 8.418 3.272 7.578 3.272C6.738 3.272 5.982 3.464 5.31 3.848C4.638 4.22 4.11 4.748 3.726 5.432C3.342 6.104 3.15 6.86 3.15 7.7C3.15 8.54 3.342 9.302 3.726 9.986C4.11 10.658 4.638 11.186 5.31 11.57C5.982 11.942 6.738 12.128 7.578 12.128ZM20.5343 2.336C19.5863 2.336 19.1123 2.852 19.1123 3.884V4.46H21.7583V6.26H19.1843V14H16.9343V6.26H15.3503V4.46H16.9343V3.848C16.9343 2.816 17.2343 2.006 17.8343 1.418C18.4343 0.817999 19.2803 0.518 20.3723 0.518C21.2363 0.518 21.9143 0.692 22.4063 1.04L21.7763 2.732C21.3923 2.468 20.9783 2.336 20.5343 2.336ZM27.1789 2.336C26.2309 2.336 25.7569 2.852 25.7569 3.884V4.46H28.4029V6.26H25.8289V14H23.5789V6.26H21.9949V4.46H23.5789V3.848C23.5789 2.816 23.8789 2.006 24.4789 1.418C25.0789 0.817999 25.9249 0.518 27.0169 0.518C27.8809 0.518 28.5589 0.692 29.0509 1.04L28.4209 2.732C28.0369 2.468 27.6229 2.336 27.1789 2.336ZM31.3549 4.388H33.6049V14H31.3549V4.388ZM32.4889 2.804C32.0809 2.804 31.7389 2.678 31.4629 2.426C31.1869 2.162 31.0489 1.838 31.0489 1.454C31.0489 1.07 31.1869 0.751999 31.4629 0.499999C31.7389 0.235999 32.0809 0.104 32.4889 0.104C32.8969 0.104 33.2389 0.23 33.5149 0.481999C33.7909 0.722 33.9289 1.028 33.9289 1.4C33.9289 1.796 33.7909 2.132 33.5149 2.408C33.2509 2.672 32.9089 2.804 32.4889 2.804ZM40.9719 14.126C39.9759 14.126 39.0819 13.916 38.2899 13.496C37.4979 13.076 36.8799 12.494 36.4359 11.75C35.9919 10.994 35.7699 10.142 35.7699 9.194C35.7699 8.246 35.9919 7.4 36.4359 6.656C36.8799 5.912 37.4919 5.33 38.2719 4.91C39.0639 4.49 39.9639 4.28 40.9719 4.28C41.9199 4.28 42.7479 4.472 43.4559 4.856C44.1759 5.24 44.7159 5.792 45.0759 6.512L43.3479 7.52C43.0719 7.076 42.7239 6.746 42.3039 6.53C41.8959 6.302 41.4459 6.188 40.9539 6.188C40.1139 6.188 39.4179 6.464 38.8659 7.016C38.3139 7.556 38.0379 8.282 38.0379 9.194C38.0379 10.106 38.3079 10.838 38.8479 11.39C39.3999 11.93 40.1019 12.2 40.9539 12.2C41.4459 12.2 41.8959 12.092 42.3039 11.876C42.7239 11.648 43.0719 11.312 43.3479 10.868L45.0759 11.876C44.7039 12.596 44.1579 13.154 43.4379 13.55C42.7299 13.934 41.9079 14.126 40.9719 14.126ZM55.9163 9.248C55.9163 9.404 55.9043 9.626 55.8803 9.914H48.3383C48.4703 10.622 48.8123 11.186 49.3643 11.606C49.9283 12.014 50.6243 12.218 51.4523 12.218C52.5083 12.218 53.3783 11.87 54.0623 11.174L55.2683 12.56C54.8363 13.076 54.2903 13.466 53.6303 13.73C52.9703 13.994 52.2263 14.126 51.3983 14.126C50.3423 14.126 49.4123 13.916 48.6083 13.496C47.8043 13.076 47.1803 12.494 46.7363 11.75C46.3043 10.994 46.0883 10.142 46.0883 9.194C46.0883 8.258 46.2983 7.418 46.7183 6.674C47.1503 5.918 47.7443 5.33 48.5003 4.91C49.2563 4.49 50.1083 4.28 51.0563 4.28C51.9923 4.28 52.8263 4.49 53.5583 4.91C54.3023 5.318 54.8783 5.9 55.2863 6.656C55.7063 7.4 55.9163 8.264 55.9163 9.248ZM51.0563 6.08C50.3363 6.08 49.7243 6.296 49.2203 6.728C48.7283 7.148 48.4283 7.712 48.3203 8.42H53.7743C53.6783 7.724 53.3843 7.16 52.8923 6.728C52.4003 6.296 51.7883 6.08 51.0563 6.08Z" fill="white"/>
</svg>
