<svg width="40" height="15" viewBox="0 0 40 15" fill="none" xmlns="http://www.w3.org/2000/svg">
<path d="M14.212 1.4L8.722 14H6.418L0.91 1.4H3.448L7.642 11.12L11.872 1.4H14.212ZM15.4135 4.388H17.6635V14H15.4135V4.388ZM16.5475 2.804C16.1395 2.804 15.7975 2.678 15.5215 2.426C15.2455 2.162 15.1075 1.838 15.1075 1.454C15.1075 1.07 15.2455 0.751999 15.5215 0.499999C15.7975 0.235999 16.1395 0.104 16.5475 0.104C16.9555 0.104 17.2975 0.23 17.5735 0.481999C17.8495 0.722 17.9875 1.028 17.9875 1.4C17.9875 1.796 17.8495 2.132 17.5735 2.408C17.3095 2.672 16.9675 2.804 16.5475 2.804ZM20.6166 0.643999H22.8666V14H20.6166V0.643999ZM25.8198 0.643999H28.0698V14H25.8198V0.643999ZM34.6949 4.28C36.1109 4.28 37.1909 4.622 37.9349 5.306C38.6909 5.978 39.0689 6.998 39.0689 8.366V14H36.9449V12.83C36.6689 13.25 36.2729 13.574 35.7569 13.802C35.2529 14.018 34.6409 14.126 33.9209 14.126C33.2009 14.126 32.5709 14.006 32.0309 13.766C31.4909 13.514 31.0709 13.172 30.7709 12.74C30.4829 12.296 30.3389 11.798 30.3389 11.246C30.3389 10.382 30.6569 9.692 31.2929 9.176C31.9409 8.648 32.9549 8.384 34.3349 8.384H36.8189V8.24C36.8189 7.568 36.6149 7.052 36.2069 6.692C35.8109 6.332 35.2169 6.152 34.4249 6.152C33.8849 6.152 33.3509 6.236 32.8229 6.404C32.3069 6.572 31.8689 6.806 31.5089 7.106L30.6269 5.468C31.1309 5.084 31.7369 4.79 32.4449 4.586C33.1529 4.382 33.9029 4.28 34.6949 4.28ZM34.3889 12.488C34.9529 12.488 35.4509 12.362 35.8829 12.11C36.3269 11.846 36.6389 11.474 36.8189 10.994V9.878H34.4969C33.2009 9.878 32.5529 10.304 32.5529 11.156C32.5529 11.564 32.7149 11.888 33.0389 12.128C33.3629 12.368 33.8129 12.488 34.3889 12.488Z" fill="white"/>
</svg>
