<svg width="18" height="18" viewBox="0 0 18 18" fill="none" xmlns="http://www.w3.org/2000/svg">
<rect width="18" height="18" rx="4" fill="#CD0000"/>
<path fill-rule="evenodd" clip-rule="evenodd" d="M14.3565 4.74676C14.5144 4.90495 14.6032 5.11941 14.6032 5.34301C14.6032 5.5666 14.5144 5.78105 14.3565 5.93926L8.45021 12.9705C8.292 13.1285 8.07755 13.2172 7.85396 13.2172C7.63036 13.2172 7.41591 13.1285 7.25771 12.9705L3.60146 9.31426C3.45242 9.1543 3.37128 8.94276 3.37513 8.72416C3.37899 8.50557 3.46754 8.29702 3.62214 8.14242C3.77672 7.98784 3.98529 7.89929 4.20387 7.89543C4.42246 7.89157 4.63401 7.97272 4.79396 8.12176L7.85396 11.1818L13.164 4.74676C13.3221 4.58875 13.5366 4.5 13.7602 4.5C13.9837 4.5 14.1983 4.58875 14.3565 4.74676Z" fill="white"/>
</svg>
