<svg width="200" height="34" viewBox="0 0 200 34" fill="none" xmlns="http://www.w3.org/2000/svg">
<path d="M38.6596 21.3404C38.1821 21.0221 37.8448 18.1133 38.0479 14.2773C43.2352 13.8464 50.6617 14.0326 59.9975 16.704C59.9992 16.8025 60 16.9011 60 17C60 19.6319 59.4019 22.1242 58.3342 24.3482C52.1738 21.8049 45.6139 21.682 41.8128 21.6108C40.1283 21.5792 38.9856 21.5578 38.6596 21.3404Z" fill="#CD0000"/>
<path d="M55.9886 27.9686C52.8702 31.6575 48.2086 34 43 34C33.6112 34 26 26.3888 26 17C26 10.1911 30.003 4.31712 35.7839 1.60307C34.7387 5.27259 34.1241 8.60734 33.8165 11.552C31.4144 12.0845 29.7803 12.6887 28.8936 13.0213C27.4468 13.5638 28 16 29.9787 15.5532C30.2587 15.5132 30.658 15.4295 31.1733 15.3216C31.8057 15.1891 32.613 15.02 33.5883 14.8501C33.36 21.9485 35.0168 26.0426 36.1276 26.0426C36.3253 26.0426 36.6611 26.0296 37.1124 26.0122C40.301 25.8891 49.2536 25.5437 55.9886 27.9686Z" fill="#CD0000"/>
<path d="M41.4095 0.0734224C39.7584 3.2993 38.8246 7.21711 38.3627 10.8084C43.4244 10.2515 50.3946 10.3227 59.353 12.3387C57.3267 5.21609 50.7725 0 43 0C42.4637 0 41.9331 0.0248366 41.4095 0.0734224Z" fill="#CD0000"/>
<path d="M73.472 11.868H68.096V8.7H82.736V11.868H77.36V25.5H73.472V11.868ZM92.7296 25.788C90.9856 25.788 89.4096 25.412 88.0016 24.66C86.6096 23.908 85.5136 22.876 84.7136 21.564C83.9296 20.236 83.5376 18.748 83.5376 17.1C83.5376 15.452 83.9296 13.972 84.7136 12.66C85.5136 11.332 86.6096 10.292 88.0016 9.54C89.4096 8.788 90.9856 8.412 92.7296 8.412C94.4736 8.412 96.0416 8.788 97.4336 9.54C98.8256 10.292 99.9216 11.332 100.722 12.66C101.522 13.972 101.922 15.452 101.922 17.1C101.922 18.748 101.522 20.236 100.722 21.564C99.9216 22.876 98.8256 23.908 97.4336 24.66C96.0416 25.412 94.4736 25.788 92.7296 25.788ZM92.7296 22.476C93.7216 22.476 94.6176 22.252 95.4176 21.804C96.2176 21.34 96.8416 20.7 97.2896 19.884C97.7536 19.068 97.9856 18.14 97.9856 17.1C97.9856 16.06 97.7536 15.132 97.2896 14.316C96.8416 13.5 96.2176 12.868 95.4176 12.42C94.6176 11.956 93.7216 11.724 92.7296 11.724C91.7376 11.724 90.8416 11.956 90.0416 12.42C89.2416 12.868 88.6096 13.5 88.1456 14.316C87.6976 15.132 87.4736 16.06 87.4736 17.1C87.4736 18.14 87.6976 19.068 88.1456 19.884C88.6096 20.7 89.2416 21.34 90.0416 21.804C90.8416 22.252 91.7376 22.476 92.7296 22.476ZM110.364 25.788C109.036 25.788 107.748 25.612 106.5 25.26C105.268 24.892 104.276 24.42 103.524 23.844L104.844 20.916C105.564 21.444 106.42 21.868 107.412 22.188C108.404 22.508 109.396 22.668 110.388 22.668C111.492 22.668 112.308 22.508 112.836 22.188C113.364 21.852 113.628 21.412 113.628 20.868C113.628 20.468 113.468 20.14 113.148 19.884C112.844 19.612 112.444 19.396 111.948 19.236C111.468 19.076 110.812 18.9 109.98 18.708C108.7 18.404 107.652 18.1 106.836 17.796C106.02 17.492 105.316 17.004 104.724 16.332C104.148 15.66 103.86 14.764 103.86 13.644C103.86 12.668 104.124 11.788 104.652 11.004C105.18 10.204 105.972 9.572 107.028 9.108C108.1 8.644 109.404 8.412 110.94 8.412C112.012 8.412 113.06 8.54 114.084 8.796C115.108 9.052 116.004 9.42 116.772 9.9L115.572 12.852C114.02 11.972 112.468 11.532 110.916 11.532C109.828 11.532 109.02 11.708 108.492 12.06C107.98 12.412 107.724 12.876 107.724 13.452C107.724 14.028 108.02 14.46 108.612 14.748C109.22 15.02 110.14 15.292 111.372 15.564C112.652 15.868 113.7 16.172 114.516 16.476C115.332 16.78 116.028 17.26 116.604 17.916C117.196 18.572 117.492 19.46 117.492 20.58C117.492 21.54 117.22 22.42 116.676 23.22C116.148 24.004 115.348 24.628 114.276 25.092C113.204 25.556 111.9 25.788 110.364 25.788ZM133.156 22.38V25.5H120.148V8.7H132.844V11.82H124.012V15.468H131.812V18.492H124.012V22.38H133.156ZM136.25 8.7H140.138V25.5H136.25V8.7Z" fill="black"/>
</svg>
