<svg width="32" height="32" viewBox="0 0 32 32" fill="none" xmlns="http://www.w3.org/2000/svg">
<circle cx="16" cy="16" r="16" fill="url(#paint0_linear_257_1364)"/>
<path d="M21.2646 9.60001H11.5354C10.4369 9.60001 9.60001 10.4369 9.60001 11.5354V21.2646C9.60001 22.3631 10.4369 23.2 11.5354 23.2H21.2646C22.3631 23.2 23.2 22.3631 23.2 21.2646V11.5354C23.2 10.4369 22.3631 9.60001 21.2646 9.60001ZM16.4 20.48C18.6492 20.48 20.48 18.7015 20.48 16.5569C20.48 16.1908 20.4277 15.7723 20.3231 15.4585H21.4739V21.0031C21.4739 21.2646 21.2646 21.5262 20.9508 21.5262H11.8492C11.5877 21.5262 11.3262 21.3169 11.3262 21.0031V15.4062H12.5292C12.4246 15.7723 12.3723 16.1385 12.3723 16.5046C12.32 18.7015 14.1508 20.48 16.4 20.48ZM16.4 18.9108C14.9354 18.9108 13.7846 17.76 13.7846 16.3477C13.7846 14.9354 14.9354 13.7846 16.4 13.7846C17.8646 13.7846 19.0154 14.9354 19.0154 16.3477C19.0154 17.8123 17.8646 18.9108 16.4 18.9108ZM21.4215 13.3139C21.4215 13.6277 21.16 13.8892 20.8462 13.8892H19.3815C19.0677 13.8892 18.8062 13.6277 18.8062 13.3139V11.9015C18.8062 11.5877 19.0677 11.3262 19.3815 11.3262H20.8462C21.16 11.3262 21.4215 11.5877 21.4215 11.9015V13.3139Z" fill="white"/>
<defs>
<linearGradient id="paint0_linear_257_1364" x1="6.8" y1="28.4" x2="28" y2="6.4" gradientUnits="userSpaceOnUse">
<stop stop-color="#EEA054"/>
<stop offset="0.502762" stop-color="#D64763"/>
<stop offset="1" stop-color="#B62A99"/>
</linearGradient>
</defs>
</svg>
