<svg width="32" height="32" viewBox="0 0 32 32" fill="none" xmlns="http://www.w3.org/2000/svg">
<circle cx="16" cy="16" r="16" fill="#48C95F"/>
<path d="M22.3415 9.65001C20.761 8.07501 18.6537 7.20001 16.4293 7.20001C11.8049 7.20001 8.05854 10.9333 8.05854 15.5417C8.05854 17 8.46829 18.4583 9.17073 19.6833L8 24L12.4488 22.8333C13.678 23.475 15.0244 23.825 16.4293 23.825C21.0537 23.825 24.8 20.0917 24.8 15.4833C24.7415 13.325 23.9219 11.225 22.3415 9.65001ZM20.4683 18.5167C20.2927 18.9833 19.4732 19.45 19.0634 19.5083C18.7122 19.5667 18.2439 19.5667 17.7756 19.45C17.4829 19.3333 17.0732 19.2167 16.6049 18.9833C14.4976 18.1083 13.1512 16.0083 13.0341 15.8333C12.9171 15.7167 12.1561 14.725 12.1561 13.675C12.1561 12.625 12.6829 12.1583 12.8585 11.925C13.0341 11.6917 13.2683 11.6917 13.4439 11.6917C13.561 11.6917 13.7366 11.6917 13.8537 11.6917C13.9707 11.6917 14.1463 11.6333 14.3219 12.0417C14.4976 12.45 14.9073 13.5 14.9659 13.5583C15.0244 13.675 15.0244 13.7917 14.9659 13.9083C14.9073 14.025 14.8488 14.1417 14.7317 14.2583C14.6146 14.375 14.4976 14.55 14.439 14.6083C14.3219 14.725 14.2049 14.8417 14.3219 15.0167C14.439 15.25 14.8488 15.8917 15.4927 16.475C16.3122 17.175 16.9561 17.4083 17.1902 17.525C17.4244 17.6417 17.5415 17.5833 17.6585 17.4667C17.7756 17.35 18.1854 16.8833 18.3024 16.65C18.4195 16.4167 18.5951 16.475 18.7707 16.5333C18.9463 16.5917 20 17.1167 20.1756 17.2333C20.4098 17.35 20.5268 17.4083 20.5854 17.4667C20.6439 17.6417 20.6439 18.05 20.4683 18.5167Z" fill="white"/>
</svg>
