<svg width="32" height="32" viewBox="0 0 32 32" fill="none" xmlns="http://www.w3.org/2000/svg">
<circle cx="16" cy="16" r="16" fill="#F40000"/>
<path d="M22.9705 15.1305C22.9705 14.8202 22.9188 14.4582 22.9188 14.0445C22.8671 13.6307 22.8153 13.217 22.7636 12.855C22.6602 12.4412 22.505 12.1309 22.1947 11.8723C21.9361 11.6138 21.5741 11.4586 21.2121 11.4069C20.0226 11.2517 18.2642 11.2 15.8852 11.2C13.5063 11.2 11.6961 11.2517 10.5584 11.4069C10.1963 11.4586 9.83433 11.6138 9.57575 11.8723C9.31716 12.1309 9.11029 12.4412 9.00685 12.855C8.90342 13.217 8.85171 13.579 8.85171 14.0445C8.79999 14.4582 8.79999 14.8202 8.79999 15.1305C8.79999 15.4408 8.79999 15.8028 8.79999 16.32C8.79999 16.8372 8.79999 17.2509 8.79999 17.5095C8.79999 17.8198 8.85171 18.1818 8.85171 18.5956C8.90343 19.0093 8.95514 19.423 9.00685 19.7851C9.11029 20.1988 9.26544 20.5091 9.57575 20.7677C9.83433 21.0263 10.1963 21.1814 10.5584 21.2331C11.7479 21.3883 13.5063 21.44 15.8852 21.44C18.2642 21.44 20.0743 21.3883 21.2121 21.2331C21.5741 21.1814 21.9361 21.0263 22.1947 20.7677C22.4533 20.5091 22.6602 20.1988 22.7636 19.7851C22.8671 19.423 22.9188 19.061 22.9188 18.5956C22.9705 18.1818 22.9705 17.8198 22.9705 17.5095C22.9705 17.1992 22.9705 16.8372 22.9705 16.32C22.9705 15.8028 22.9705 15.3891 22.9705 15.1305ZM18.6263 16.7337L14.5406 19.2679C14.4889 19.3196 14.3854 19.3713 14.282 19.3713C14.1786 19.3713 14.1269 19.3713 14.0234 19.3196C13.8683 19.2162 13.7648 19.061 13.7648 18.8542V13.7342C13.7648 13.5273 13.8683 13.3721 14.0234 13.2687C14.1786 13.1653 14.3854 13.1653 14.5406 13.2687L18.6263 15.8028C18.7814 15.9063 18.8848 16.0614 18.8848 16.2166C18.8848 16.3717 18.7814 16.6303 18.6263 16.7337Z" fill="white"/>
</svg>
